<svg version="1.1" xmlns="http://www.w3.org/2000/svg" style="display: block;" viewBox="0 0 1024 2048" width="1024" height="2048">
<defs>
	<linearGradient id="Gradient1" gradientUnits="userSpaceOnUse" x1="511.701" y1="1393.93" x2="511.319" y2="300.086">
		<stop class="stop0" offset="0" stop-opacity="1" stop-color="rgb(255,146,95)"/>
		<stop class="stop1" offset="1" stop-opacity="1" stop-color="rgb(107,47,108)"/>
	</linearGradient>
</defs>
<path transform="translate(0,0)" fill="url(#Gradient1)" d="M 0 121.721 L -0 -0 L 1024 0 L 1024 74.7638 L 1024 128.94 L 1024 150.413 L 1024 253.023 L 1024 286.464 L 1024 362.007 L 1024 370.837 L 1024 426.153 L 1024 580.171 L 1024 641.104 L 1024 736.067 L 1024 777.983 L 1024 1203.56 L 1024 1258.05 L 1024 1297.37 L 1024 1519.01 L 1024 1597.96 L 1024 1686.91 L 1024 1847.92 L 1024 1888.54 L 1024 2048 L 677.821 2048 L 525.125 2048 L -0 2048 L -0 1892.99 L 0 1820.68 L -0 1772.87 L 0 1728.89 L 0 1656.62 L -0 1632.29 L -0 1587.3 L 0 1518.76 L 0 1463.53 L 0 1418.97 L 0 1395.36 L 0 1378.6 L 0 1349 L 0 1276.55 L -0 1046.18 L 0 990.246 L -0 988.902 L 0 945.715 L 0 833.518 L -0 778.167 L 0 651.646 L 0 561.455 L -0 473.896 L 0 377.633 L 0 287.649 L -0 243.001 L 0 199.362 L -0 161.925 L 0 121.721 z"/>
<path transform="translate(0,0)" fill="rgb(242,106,79)" d="M 1024 580.171 L 1024 641.104 L 751.195 642.613 C 757.389 640.866 763.596 641.291 769.946 640.862 L 803.638 638.245 L 912.605 627.657 C 913.992 624.617 915.374 622.002 917.748 619.607 C 925.675 611.609 937.696 609.71 948.373 611.652 C 951.465 612.214 954.347 613.671 957.5 613.662 L 960.853 609.179 C 967.606 602.033 975.372 598.259 984.985 596.495 C 986.568 596.204 990.014 596.161 991.193 595.489 C 993.818 593.993 996.826 590.472 999.16 588.392 C 1007.46 587.037 1015.11 581.582 1024 580.171 z"/>
<path transform="translate(0,0)" fill="rgb(242,148,121)" d="M 0 990.246 L 13.5016 999.366 C 14.4372 999.981 16.8921 1002 17.8243 1002.2 C 19.0272 1002.45 22.0581 1001.66 23.3856 1001.5 C 28.3912 1000.91 34.4308 999.743 39.412 1000.69 C 54.2155 1003.51 69.3046 1008.29 83.8354 1012.34 L 128.56 1023.8 L 223.413 1045.87 L -0 1046.18 L 0 990.246 z"/>
<path transform="translate(0,0)" fill="rgb(242,106,79)" d="M 1024 777.983 L 808.626 778.006 L 743.203 777.996 C 730.469 777.987 717.345 778.66 704.695 777.286 C 717.594 773.675 731.298 771.997 744.5 769.861 L 781.325 763.752 L 799.103 761.373 C 800.981 761.135 804.518 761.176 806.178 760.479 C 808.007 759.711 810.279 755.625 812.43 754.314 C 827.405 745.181 848.037 744.09 864.736 747.962 C 870.391 742.007 876.182 736.503 883.01 731.895 C 910.564 713.301 947.728 713.216 977.087 727.501 C 981.021 729.415 984.766 731.952 988.212 734.637 C 988.826 735.116 991.344 737.542 991.917 737.638 C 993.282 737.868 999.144 735.473 1001.1 735.208 C 1008.45 734.217 1016.75 734.661 1024 736.067 L 1024 777.983 z"/>
<path transform="translate(0,0)" fill="rgb(239,60,45)" d="M 0 1276.55 C 2.9533 1279.55 9.5353 1287.62 13.5 1288.16 C 15.5661 1287.4 17.0034 1287.07 17.8223 1284.73 C 18.9547 1281.5 18.4449 1275.62 18.536 1272.09 C 18.8118 1261.39 18.6548 1250.49 19.5583 1239.84 C 26.7236 1236.53 34.0062 1233.67 41.4545 1231.07 C 43.4721 1230.36 46.0076 1229.01 48.0645 1229.47 L 49.9167 1260.19 C 50.2877 1265.13 50.235 1270.59 51.612 1275.37 L 53.5 1276.42 C 55.1005 1275.54 56.2076 1275.33 56.7994 1273.44 C 59.2223 1265.7 57.9996 1252.13 57.9322 1243.85 L 70.9583 1247.97 L 72.91 1273.23 C 73.0534 1274.89 72.962 1278.9 73.9074 1280.08 L 75.1759 1299.63 L 99.775 1306.67 C 99.8143 1309.08 99.1557 1319.78 100.017 1321.46 C 102.897 1327.08 112.301 1331.32 115.285 1336.93 C 117.033 1340.21 117.335 1351.12 117.978 1355.15 L 118.985 1355.2 C 119.183 1371 118.995 1387.05 123.615 1402.33 C 120.843 1403.31 117.872 1402.23 115 1401.69 L 92.6495 1397.12 C 61.9555 1391.19 30.1784 1386.71 0 1378.6 L 0 1349 L 0 1276.55 z"/>
<path transform="translate(0,0)" fill="rgb(153,105,151)" d="M 0 377.633 C 31.291 385.113 66.5976 393.944 92.5849 413.907 C 95.4119 416.415 96.8453 418.873 100.831 418.588 C 122.487 417.038 154.75 416.791 172.546 431.642 C 176.037 434.556 178.317 437.588 178.701 442.195 C 181.514 443.474 185.172 442.59 188.188 442.279 L 207.358 440.623 L 232.771 440.008 C 258.452 440.129 284.77 442.838 309.461 450.108 C 317.446 452.459 324.683 455.828 332.434 458.76 C 368.53 445.064 405.03 452.568 441.617 459.871 L 511.233 475.508 L -0 473.896 L 0 377.633 z"/>
<path transform="translate(0,0)" fill="rgb(239,60,45)" d="M 537.324 1304.73 C 537.871 1297.17 538.877 1289.03 541.424 1281.87 C 542.587 1278.6 543.732 1276.07 547 1274.49 L 549.13 1276 C 551.396 1281.42 551.742 1288.06 552.598 1293.85 C 555.407 1292.64 557.937 1291.29 561.073 1291.68 C 564.279 1292.86 565.771 1296.01 567.525 1298.75 C 570.224 1305.72 572.401 1312.59 574.396 1319.79 C 575.016 1322.02 575.531 1326.29 577.22 1327.8 L 587.331 1318.16 C 593.177 1324.47 599.349 1332.79 608.809 1332.97 C 611.887 1333.03 614.046 1331.6 616.095 1329.49 C 623.049 1322.33 621.222 1304.64 630 1299.74 C 636.523 1304.37 632.724 1316.8 643.738 1315.68 C 648.126 1312.67 650.536 1305.18 654.5 1303.82 C 660.088 1306.65 663.069 1320.21 665.341 1326.05 C 666.069 1327.93 666.625 1330.07 668.65 1330.87 L 665.148 1345.06 L 637.248 1350.83 L 637.596 1378.45 L 517.316 1404.65 L 420.492 1417.87 L 366.724 1423.55 C 335.752 1427.57 303.234 1433.51 273.041 1441.46 L 269.61 1440.44 L 270.104 1411.54 L 270.306 1402.31 L 270.158 1393.75 L 327.711 1393.94 C 329.244 1386.82 330.948 1375.97 334.66 1369.68 C 335.995 1367.41 336.565 1367.42 339 1366.83 L 340.098 1367.57 C 345.735 1372.1 346.031 1386.04 346.654 1392.86 C 354.199 1394.28 365.848 1390.28 373.54 1388.84 L 464.143 1370.22 L 485.137 1366.04 C 488.429 1365.38 492.43 1365.01 495.194 1362.99 C 505.807 1355.22 504.608 1337.1 513.478 1327.82 C 517.185 1323.95 521.899 1322.02 526.54 1319.58 C 532.802 1316.28 535.379 1311.24 537.324 1304.73 z"/>
<path transform="translate(0,0)" fill="rgb(153,105,151)" d="M 759.087 301.252 C 767.997 298.772 777.051 295.781 786.139 294.089 C 834.244 285.134 882.274 291.084 925.979 313.206 L 927.982 311.649 C 956.229 289.85 988.709 281.947 1024 286.464 L 1024 362.007 L 973.497 362.17 L 589.562 362.049 L 499.614 360.546 C 523.241 355.142 546.502 348.724 570.507 345.087 C 577.023 344.099 583.781 343.212 590.362 342.993 C 593.885 342.875 599.52 343.818 602.752 343.004 C 604.344 342.603 608.113 338.911 609.668 337.741 C 615.007 333.722 620.663 330.017 626.454 326.678 C 636.889 320.663 648.666 317.045 660.375 314.523 C 679.663 310.369 703.087 312.924 719.635 323.695 C 726.672 319.073 732.602 313.801 740.15 309.77 C 746.132 306.574 753.624 305.032 759.087 301.252 z"/>
<path transform="translate(0,0)" fill="rgb(157,206,226)" d="M 0 287.649 C 3.5023 290.892 7.61446 295.789 11.7729 298.004 C 20.1476 283.305 31.2383 272.528 47.9572 267.905 C 63.0344 263.735 79.801 266.328 93.2998 274.067 C 106.539 281.658 116.39 293.489 121.865 307.704 C 126.897 325.877 125.735 339.291 118.986 356.897 C 160.861 341.565 212.017 342.065 255.069 351.456 C 269.548 354.614 284.202 358.476 297.684 364.733 L 298.654 365.191 C 299.819 365.749 301.998 367.285 303.179 367.489 C 306.198 368.009 313.428 365.744 316.757 365.246 C 341.015 361.619 365.659 360.734 390.14 361.841 C 402.941 362.419 416.663 363.763 429.067 367.076 C 433.582 368.281 438.704 371.347 443 372.082 C 450.329 373.337 458.537 373.082 465.993 373.6 L 514.931 377.415 L 557.535 381.733 C 568.656 383.098 580.063 385.144 591.273 385.238 L 591.672 385.377 C 598.089 387.469 606.371 387.426 613.118 388.304 L 651.391 394.135 C 634.75 396.633 615.571 394.848 598.703 394.836 L 489.425 394.792 L 93.8558 394.946 C 95.6136 400.44 97.294 404.864 94.5376 410.377 L 92.5849 413.907 C 66.5976 393.944 31.291 385.113 0 377.633 L 0 287.649 z"/>
<path transform="translate(0,0)" fill="rgb(242,106,79)" d="M 0 651.646 C 16.0549 642.894 31.7383 639.269 49.6354 644.567 C 68.1454 650.046 81.4399 663.911 90.2632 680.525 L 96.2305 692.926 C 125.056 683.476 156.126 680.772 184.031 694.976 C 204.318 705.303 217.17 720.082 227.768 739.989 C 258.53 724.59 296.85 712.136 331.007 723.539 C 345.744 728.458 357.085 735.29 368.243 746.06 C 370.264 748.01 380.457 761.372 381.418 761.648 C 381.607 761.702 385.242 760.043 385.679 759.872 C 393.639 756.755 403.112 754.661 411.565 753.362 C 434.735 749.801 458.221 754.604 480.064 762.32 C 488.852 765.425 498.042 768.869 505.452 774.633 C 508.346 776.885 513.237 776.6 516.807 776.857 L 539.401 778.5 L 538.357 779.5 L 537.638 779.406 C 523.872 777.708 508.635 779.077 494.668 779.015 L 399.181 778.478 L -0 778.167 L 0 651.646 z"/>
<path transform="translate(0,0)" fill="rgb(3,50,112)" d="M 176.612 1288.68 C 176.807 1257.37 172.98 1216.89 186.645 1188.01 C 189.316 1182.36 192.997 1177.74 198.995 1175.64 C 202.833 1175.98 203.743 1176.8 206.857 1178.91 C 213.726 1186.92 216.838 1197.62 218.825 1207.8 C 223.791 1233.25 221.724 1258.8 223.113 1284.43 L 223.182 1391.15 L 241.147 1392.42 C 242.06 1380.51 242.169 1361.13 251.844 1352.82 C 253.676 1351.25 255.227 1351.13 257.5 1350.63 C 260.59 1351.44 262.578 1353.14 264.134 1355.88 C 270.32 1366.76 270.123 1381.57 270.158 1393.75 L 270.306 1402.31 L 270.104 1411.54 L 269.61 1440.44 C 268.646 1446.12 267.867 1451.8 265.81 1457.2 C 261.034 1468.98 254.178 1480.37 241.898 1485.59 C 238.472 1487.04 234.647 1487.81 231.022 1488.62 L 223.388 1488.22 C 223.457 1497.42 222.196 1509.2 224.003 1518.1 C 221.667 1525.89 223.211 1538.67 223.185 1547.05 L 223.021 1614.8 L 223.049 1635.49 C 218.57 1637 213.584 1640.91 209.434 1643.44 L 177.601 1663.38 L 177.177 1595.92 L 177.271 1565.67 L 176.784 1563.79 C 177.808 1559.11 177.184 1553.23 177.183 1548.4 L 177.141 1518.95 L 177.087 1489.86 L 176.873 1456.89 L 163.025 1452.29 L 149.736 1442.91 C 143.001 1436.39 136.358 1429.83 132.195 1421.31 C 128.34 1418.14 125.348 1407 123.615 1402.33 C 118.995 1387.05 119.183 1371 118.985 1355.2 L 122.217 1294.73 C 124.565 1285.57 126.96 1268.77 135.569 1263.56 C 137.817 1262.2 139.958 1261.82 142.489 1262.61 C 146.603 1263.89 149.463 1268.45 151.207 1272.1 C 154.293 1278.56 155.984 1286.24 157.317 1293.26 C 157.381 1293.59 157.394 1294.45 157.732 1294.63 L 162.233 1350.31 C 163.262 1358.49 165.332 1365.9 167.014 1373.88 C 170.543 1373.94 173.642 1374.83 177.032 1375.06 L 176.612 1288.68 z"/>
<path transform="translate(0,0)" fill="rgb(242,148,121)" d="M 167.014 1373.88 C 170.543 1373.94 173.642 1374.83 177.032 1375.06 L 177.007 1392.63 C 172.163 1387.56 169.387 1380.36 167.014 1373.88 z"/>
<path transform="translate(0,0)" fill="rgb(203,27,22)" d="M 223.816 1434.19 L 240.764 1435.64 C 240.523 1440.39 239.659 1444.77 235.945 1448.08 C 233.056 1450.65 228.602 1451.74 224.976 1452.82 C 222.659 1448.84 223.833 1439.09 223.816 1434.19 z"/>
<path transform="translate(0,0)" fill="rgb(239,60,45)" d="M 223.182 1391.15 L 241.147 1392.42 L 241.097 1433.47 L 240.764 1435.64 L 223.816 1434.19 L 223.722 1426.1 L 223.182 1391.15 z"/>
<path transform="translate(0,0)" fill="rgb(254,223,212)" d="M 272.88 592.953 C 277.488 591.007 282.165 591.126 287.034 590.496 L 316 587.141 L 382.964 579.611 L 439.447 573.111 C 448.071 572.179 457.137 572.095 465.66 570.7 C 468.904 570.169 471.998 568.338 475.123 567.327 C 480.099 565.717 485.34 564.579 490.43 563.377 C 510.816 558.564 532.175 556.191 553.098 555.322 C 572.34 554.523 591.836 555.008 611.015 556.772 L 636 559.36 C 639.119 559.702 643.636 560.84 646.681 560.551 C 648.122 560.414 652.09 557.22 653.542 556.274 C 660.285 551.88 666.999 547.568 674.096 543.754 C 683.46 538.721 693.033 534.725 703.112 531.395 C 758.638 513.049 823.529 513.648 876.198 540.25 C 865.223 521.27 859.163 500.593 863.411 478.648 C 866.937 460.435 877.107 445.415 892.5 435.107 C 911.956 422.079 936.009 417.34 959 421.95 C 977.732 425.707 987.312 434.249 997.703 449.714 C 1005.6 439.072 1011.79 432.005 1024 426.153 L 1024 580.171 C 1015.11 581.582 1007.46 587.037 999.16 588.392 L 883.098 588.927 C 862.463 589.059 840.094 587.502 819.647 589.86 L 414.437 593.033 C 411.184 592.238 406.551 592.815 403.167 592.82 L 380.185 592.845 L 272.88 592.953 z"/>
<path transform="translate(0,0)" fill="rgb(242,148,121)" d="M 0 833.518 C 10.854 832.228 20.1114 832.189 29.1483 839.432 C 32.7633 842.33 35.7767 845.984 38.7459 849.52 C 56.7928 834.008 76.1193 824.373 100.579 826.23 C 121.177 827.793 139.614 837.613 152.93 853.192 C 160.209 861.708 164.84 872.06 167.263 882.948 C 174.209 869.627 184.214 860.359 198.844 855.814 C 214.014 851.102 229.871 852.323 244 859.753 C 255.516 865.809 264.773 876.35 268.512 888.887 C 272.116 900.97 269.27 912.127 264.825 923.472 C 266.54 923.951 270.877 921.58 272.737 920.926 C 279.025 918.717 285.994 916.572 292.5 915.171 C 309.362 911.54 326.566 909.547 343.816 910.416 C 368.738 911.671 396.046 918.613 417.617 931.266 C 421.413 933.493 425.391 935.766 428.838 938.5 C 429.65 939.144 432.951 942.57 433.66 942.712 C 435.156 943.011 442.732 939.792 445 939.269 C 454.059 937.18 463.626 936.068 472.907 935.607 C 519.239 933.306 565.234 940.534 609.879 952.529 C 594.223 955.151 577.398 954.012 561.5 954.789 L 353.574 957.131 L 285.408 957.576 C 276.536 957.576 265.689 958.731 257.062 956.877 L 254.995 958.343 L 397.458 987.915 L -0 988.902 L 0 945.715 L 0 833.518 z"/>
<path transform="translate(0,0)" fill="rgb(254,223,212)" d="M 421.728 1275.9 C 398.8 1254.62 383.121 1230.66 376.63 1199.83 C 369.223 1164.65 375.682 1126.9 395.551 1096.77 C 415.071 1067.18 447.277 1044.38 482.166 1037.32 C 518.851 1029.89 559.532 1038.58 590.5 1059.37 C 619.761 1079.02 641.76 1110.46 648.36 1145.3 C 655.537 1183.2 646.974 1219.26 625.44 1250.86 C 609.175 1272.51 591.609 1286.94 567.525 1298.75 C 565.771 1296.01 564.279 1292.86 561.073 1291.68 C 557.937 1291.29 555.407 1292.64 552.598 1293.85 C 551.742 1288.06 551.396 1281.42 549.13 1276 L 547 1274.49 C 543.732 1276.07 542.587 1278.6 541.424 1281.87 C 538.877 1289.03 537.871 1297.17 537.324 1304.73 C 534.88 1305.49 532.349 1305.96 529.815 1306.32 C 491.737 1311.7 451.961 1298.77 421.728 1275.9 z"/>
<path transform="translate(0,0)" fill="rgb(203,27,22)" d="M 684.337 1252.43 L 720.215 1265.49 C 744.465 1272.66 768.799 1278.71 793.701 1283.12 L 811.804 1286.11 C 813.955 1286.44 816.908 1286.4 818.605 1287.77 L 812.579 1352.97 C 806.379 1396.38 795.148 1440.91 779.976 1482 C 775.513 1494.09 771.01 1507.62 764.726 1518.86 L 712.775 1518.61 L 417.323 1518.74 L 224.003 1518.1 C 222.196 1509.2 223.457 1497.42 223.388 1488.22 L 231.022 1488.62 C 234.647 1487.81 238.472 1487.04 241.898 1485.59 C 254.178 1480.37 261.034 1468.98 265.81 1457.2 C 267.867 1451.8 268.646 1446.12 269.61 1440.44 L 273.041 1441.46 C 303.234 1433.51 335.752 1427.57 366.724 1423.55 L 420.492 1417.87 L 517.316 1404.65 L 637.596 1378.45 L 637.248 1350.83 L 665.148 1345.06 L 668.65 1330.87 L 679.422 1274.67 L 679.668 1274.59 L 684.337 1252.43 z"/>
<path transform="translate(0,0)" fill="rgb(134,12,12)" d="M 637.596 1378.45 L 637.081 1400.95 C 622.728 1401.61 520.343 1406.54 517.316 1404.65 L 637.596 1378.45 z"/>
<path transform="translate(0,0)" fill="rgb(134,12,12)" d="M 561.428 1452.89 C 554.077 1451.01 545.297 1450.84 537.694 1450.01 C 510.48 1447.07 481.72 1446.59 454.956 1441.35 C 465.903 1438.31 480.478 1438.42 491.849 1437.88 L 624.03 1436.3 C 609.059 1444.06 593.602 1447.45 577.164 1450.5 C 572.381 1451.38 566.23 1453.05 561.428 1452.89 z"/>
<path transform="translate(0,0)" fill="rgb(134,12,12)" d="M 223.388 1488.22 L 231.022 1488.62 C 234.125 1490.88 238.661 1490.68 242.375 1490.99 L 266.5 1493.15 C 283.54 1494.5 436.068 1503.25 440.197 1506.27 L 417.323 1518.74 L 224.003 1518.1 C 222.196 1509.2 223.457 1497.42 223.388 1488.22 z"/>
<path transform="translate(0,0)" fill="rgb(239,60,45)" d="M 223.021 1614.8 L 223.185 1547.05 C 223.211 1538.67 221.667 1525.89 224.003 1518.1 L 417.323 1518.74 L 712.775 1518.61 L 764.726 1518.86 L 852.166 1518.96 L 1024 1519.01 L 1024 1597.96 L 944.294 1601.94 L 750.376 1655.94 L 737.825 1660.1 L 662.509 1658.96 L 444.799 1671.69 L 444.708 1670.32 C 434.527 1665.66 421.592 1663.56 410.718 1660.51 L 339.435 1640.2 L 279.923 1623.32 C 268.594 1619.99 256.562 1615.3 245 1613.35 C 238.232 1612.21 229.788 1613.98 223.021 1614.8 z"/>
<path transform="translate(0,0)" fill="rgb(134,12,12)" d="M 550.247 1610.22 L 627.347 1588.77 C 637.864 1585.83 648.723 1581.64 659.349 1579.41 C 660.626 1579.15 661.67 1579.38 662.837 1579.89 L 700.155 1591.68 L 788.448 1619.96 L 805.366 1625.3 C 806.645 1625.69 809.327 1626.91 810.46 1626.83 C 813.67 1626.6 818.945 1623.93 822.116 1622.82 L 859 1609.27 C 865.944 1606.61 873.619 1602.89 880.85 1601.26 C 885.453 1600.22 892.295 1601.06 897.179 1601.08 L 944.294 1601.94 L 750.376 1655.94 L 737.825 1660.1 L 662.509 1658.96 C 657.774 1656.23 651.63 1654.86 646.467 1652.99 C 636.328 1649.31 625.912 1644.84 615.445 1642.29 C 610.614 1639.27 603.857 1637.71 598.402 1636.04 C 589.11 1633.2 578.349 1630.45 569.903 1625.69 C 562.839 1621.71 556.35 1615.56 550.247 1610.22 z"/>
<path transform="translate(0,0)" fill="rgb(203,27,22)" d="M 223.021 1614.8 L 223.185 1547.05 C 223.211 1538.67 221.667 1525.89 224.003 1518.1 L 223.732 1556.68 C 226.433 1558.57 252.716 1552.02 258.967 1553.55 L 411.985 1593 L 519.132 1619.78 C 528.601 1615.5 540.211 1613.19 550.247 1610.22 C 556.35 1615.56 562.839 1621.71 569.903 1625.69 C 578.349 1630.45 589.11 1633.2 598.402 1636.04 C 603.857 1637.71 610.614 1639.27 615.445 1642.29 C 625.912 1644.84 636.328 1649.31 646.467 1652.99 C 651.63 1654.86 657.774 1656.23 662.509 1658.96 L 444.799 1671.69 L 444.708 1670.32 C 434.527 1665.66 421.592 1663.56 410.718 1660.51 L 339.435 1640.2 L 279.923 1623.32 C 268.594 1619.99 256.562 1615.3 245 1613.35 C 238.232 1612.21 229.788 1613.98 223.021 1614.8 z"/>
<path transform="translate(0,0)" fill="rgb(134,12,12)" d="M 904.139 855.053 C 910.358 854.304 915.687 854.192 921.899 855.1 L 937.529 860.02 C 939.824 870.202 940.825 888.162 950 894.195 L 973.824 907.924 L 973.794 1074.2 L 997.276 1092.27 L 995.015 1194.41 L 1024 1203.56 L 1024 1258.05 L 1024 1297.37 L 1024 1519.01 L 852.166 1518.96 L 764.726 1518.86 C 771.01 1507.62 775.513 1494.09 779.976 1482 C 795.148 1440.91 806.379 1396.38 812.579 1352.97 L 818.605 1287.77 C 816.908 1286.4 813.955 1286.44 811.804 1286.11 L 793.701 1283.12 C 768.799 1278.71 744.465 1272.66 720.215 1265.49 L 684.337 1252.43 L 684.239 1228.9 C 684.157 1227.26 684.418 1226.68 685.182 1225.3 L 733.995 1211.41 L 733.985 1174.42 C 733.999 1166.48 733.502 1158.25 734.905 1150.42 L 734.989 1149.97 C 739.238 1139.49 744.454 1131.11 754.164 1124.76 C 765.828 1117.13 778.048 1116.95 791.178 1119.76 C 794.791 1121.49 798.799 1123.06 801.951 1125.55 C 811.421 1130.64 818.999 1141.82 821.938 1152 L 824.138 1161.11 C 826.283 1147.16 824.812 1131.2 824.816 1117.03 C 824.817 1113.76 824.091 1108.53 824.815 1105.45 C 825.039 1104.5 826.778 1103.55 827.534 1103.05 L 844.117 1092.17 C 844.897 1091.67 848.597 1089.74 848.953 1089.11 C 850.043 1087.16 848.945 1074.42 848.95 1071.6 L 849.643 1002 L 849.862 982.72 C 849.874 981.601 849.555 978.01 849.924 977.265 C 850.026 977.058 852.839 975.806 853.188 975.631 L 868.2 967.932 C 868.894 967.574 871.537 966.499 871.799 966.076 C 872.469 964.997 872.434 959.698 872.534 958.275 L 873.563 907.957 C 873.794 897.234 872.815 883.935 878.131 874.336 C 884.108 863.544 892.587 858.218 904.139 855.053 z"/>
<path transform="translate(0,0)" fill="rgb(101,1,12)" d="M 921.899 855.1 L 937.529 860.02 C 939.824 870.202 940.825 888.162 950 894.195 L 973.824 907.924 L 973.794 1074.2 L 997.276 1092.27 L 995.015 1194.41 L 1024 1203.56 L 1024 1258.05 L 952.718 1201.26 L 963.01 1096.82 L 941.685 1084.25 L 941.796 951.924 C 943.566 949.692 946.919 947.862 949.253 946.187 L 963.093 935.822 C 953.242 933.839 943.581 928.922 936.443 921.795 C 917.973 903.354 921.876 878.877 921.899 855.1 z"/>
<path transform="translate(0,0)" fill="rgb(203,27,22)" d="M 734.989 1149.97 C 739.238 1139.49 744.454 1131.11 754.164 1124.76 C 765.828 1117.13 778.048 1116.95 791.178 1119.76 C 794.791 1121.49 798.799 1123.06 801.951 1125.55 C 811.421 1130.64 818.999 1141.82 821.938 1152 L 824.138 1161.11 L 824.019 1202.12 C 813.726 1202.01 803.623 1201.74 793.447 1203.6 L 784.957 1205.85 L 785.32 1206.42 C 788.561 1211.14 796.842 1213.98 802.119 1216.17 C 830.074 1227.77 861.902 1234.54 891.743 1239.39 L 931.656 1243.96 C 936.481 1244.38 945.406 1243.9 949.562 1245.67 C 880.538 1268.25 802.983 1263.53 733.416 1245.37 C 722.639 1242.56 711.914 1239.04 701.431 1235.28 C 696.645 1233.56 688.997 1229.07 684.239 1228.9 C 684.157 1227.26 684.418 1226.68 685.182 1225.3 L 733.995 1211.41 L 733.985 1174.42 C 733.999 1166.48 733.502 1158.25 734.905 1150.42 L 734.989 1149.97 z"/>
<path transform="translate(0,0)" fill="rgb(101,1,12)" d="M 791.178 1119.76 C 794.791 1121.49 798.799 1123.06 801.951 1125.55 C 811.421 1130.64 818.999 1141.82 821.938 1152 L 824.138 1161.11 L 824.019 1202.12 C 813.726 1202.01 803.623 1201.74 793.447 1203.6 L 784.957 1205.85 L 784.413 1199.97 C 785.251 1194.29 784.8 1188.04 784.841 1182.29 L 785.057 1149.23 C 786.242 1139.05 787.811 1129.48 791.178 1119.76 z"/>
<path transform="translate(0,0)" fill="rgb(203,27,22)" d="M 824.138 1161.11 C 826.283 1147.16 824.812 1131.2 824.816 1117.03 C 824.817 1113.76 824.091 1108.53 824.815 1105.45 C 825.039 1104.5 826.778 1103.55 827.534 1103.05 L 844.117 1092.17 C 844.897 1091.67 848.597 1089.74 848.953 1089.11 C 850.043 1087.16 848.945 1074.42 848.95 1071.6 L 849.643 1002 L 849.862 982.72 C 849.874 981.601 849.555 978.01 849.924 977.265 C 850.026 977.058 852.839 975.806 853.188 975.631 L 868.2 967.932 C 868.894 967.574 871.537 966.499 871.799 966.076 C 872.469 964.997 872.434 959.698 872.534 958.275 L 873.563 907.957 C 873.794 897.234 872.815 883.935 878.131 874.336 C 884.108 863.544 892.587 858.218 904.139 855.053 L 901.635 1202.15 L 824.019 1202.12 L 824.138 1161.11 z"/>
<path transform="translate(0,0)" fill="rgb(101,1,12)" d="M 1024 1297.37 L 1024 1519.01 L 852.166 1518.96 L 899.485 1444.75 L 910.01 1428.68 C 910.578 1427.84 912.159 1424.95 912.814 1424.58 C 914.943 1423.36 920.951 1422.96 923.533 1422.5 L 956.38 1416.66 C 957.304 1416.5 962.407 1415.93 962.912 1415.47 C 963.178 1415.24 964.206 1405.51 964.35 1404.46 L 968.21 1375.55 C 968.708 1372.08 968.81 1366.99 969.983 1363.77 C 971.765 1358.89 979.894 1351.3 983.349 1347.09 L 1024 1297.37 z"/>
<path transform="translate(0,0)" fill="rgb(3,50,112)" d="M 0 121.721 L -0 -0 L 1024 0 L 1024 74.7638 L 1024 128.94 L 1024 150.413 L 1024 253.023 L 1024 286.464 C 988.709 281.947 956.229 289.85 927.982 311.649 L 925.979 313.206 C 882.274 291.084 834.244 285.134 786.139 294.089 C 777.051 295.781 767.997 298.772 759.087 301.252 C 756.716 300.164 752.533 301.789 750 302.559 C 748.98 302.869 748.209 303.43 747.342 304.008 C 745.639 305.142 743.394 305.419 741.5 306.51 L 740.921 306.727 C 733.38 309.713 726.266 316.05 719.635 320.752 C 712.437 316.944 705.343 313.45 697.166 312.243 C 696.334 312.12 696.937 312.205 695.916 311.811 C 694.076 311.101 691.481 312.108 690 311.5 C 684.706 309.326 675.541 310.51 669.5 310.51 C 667.151 312.859 664.002 310.415 661.5 311.51 C 657.981 313.05 646.611 313.855 644.5 317 L 642.5 316.51 L 642.093 316.979 C 640.635 318.438 638.369 317.704 637.093 318.979 C 636.348 319.725 635.947 319.636 635.005 320.005 L 628.859 322.726 C 625.315 324.13 622.358 327.549 618.679 328.767 C 617.802 329.057 617.545 329.465 616.924 330.097 C 615.92 331.12 614.6 331.842 613.312 332.442 C 609.427 334.254 606.507 338.962 602.75 340.505 C 601.195 341.144 597.118 340.8 595.347 340.78 C 590.53 340.727 582.031 340.634 577.583 342.333 C 575.254 343.223 572.313 342.02 570 343.143 C 568.156 344.039 566.222 343.02 564.5 343.51 C 560.95 344.52 557.432 345.66 553.5 345.51 C 551.54 347.47 550.54 345.768 548.5 346.51 C 544.814 347.85 540.599 347.855 537 350 L 536.125 349.83 C 534.401 349.541 532.517 350.622 530.5 350.51 L 529 352 L 526.5 351.51 C 525.869 352.034 525.373 352.725 524.541 352.782 C 522.283 352.938 520.251 353.705 518.005 354.005 C 515.97 354.277 514.585 354.648 513 356 C 509.768 355.604 507.436 357.577 504.5 358 C 503.305 358.172 501.392 357.439 500 357.495 C 499.025 356.842 498.62 356.289 497.412 356.373 L 488.07 356.189 C 482.146 360.569 475.958 356.994 469.282 359.235 L 469.607 361.065 C 471.805 362.161 474.006 363.558 476.5 363.669 L 476.042 365.673 C 472.989 366.735 465.539 365.419 462.071 365.207 C 460.647 365.119 459.553 365.673 458.282 366.235 L 458.572 368.061 L 463.519 369.307 C 462.431 369.835 460.081 371.387 459 371.5 C 457.603 371.646 455.449 370.845 453.911 370.775 C 450.483 370.618 446.593 371.623 443.25 370.75 C 439.513 369.774 435.312 366.164 431.5 365.51 C 430.461 365.332 429.783 366.002 428.701 365.479 C 427.172 364.74 426.585 364.734 425 364.5 L 424.353 364.265 C 422.641 363.694 420.923 364.057 419.218 363.375 C 416.783 362.4 414.093 363.124 411.519 362.174 C 409.222 361.328 406.604 362.078 404.25 361.75 C 401.093 361.31 398.707 360.726 395.354 360.787 C 392.003 360.848 389.765 359.305 386.12 359.8 C 379.521 360.696 372.206 360.065 365.491 360.061 C 361.481 360.059 356.734 360.546 352.823 359.709 C 350.827 359.281 349.22 359.896 347.41 360.671 C 343.958 362.151 338.95 360.028 335.5 361 C 328.292 363.031 317.15 361.429 310.5 365 L 310.041 364.911 C 307.535 364.488 306.036 366.257 303.934 365.928 C 300.768 365.431 297.837 362.4 294.562 361.648 C 291.515 360.949 288.496 359.014 285.5 358 C 283.01 357.157 280.207 356.868 278.02 355.346 C 276.881 354.553 275.84 354.543 274.498 354.367 C 271.065 353.919 265.637 352.373 262.313 351.265 C 261.526 351.003 260.901 350.904 260.088 350.781 C 257.282 350.354 254.775 349.014 252 348.51 C 247.163 347.631 240.658 348.204 236.187 346.372 C 233.457 345.254 230.323 346.311 227.455 345.176 C 225.682 344.474 223.217 344.716 221.339 344.781 C 220.19 344.821 219.496 344.77 218.417 344.375 C 215.083 343.153 208.818 344.037 205.041 344.041 C 202.026 344.044 199.434 342.932 196.665 342.963 C 188.485 343.054 180.868 344.189 172.5 343.51 L 171 345 L 170.432 344.938 C 167.111 344.597 157.221 345.226 154.5 347 L 151 346.755 L 150.653 347.097 C 149.154 348.213 147.664 347.834 146 347.755 C 144.791 347.698 143.957 348.088 143 348.755 C 142.032 348.66 140.857 348.281 140.05 348.827 C 138.503 349.874 137.72 350.088 135.891 350.197 C 134.933 350.254 134.34 350.571 133.5 351 C 129.985 350.426 126.521 353.71 122.49 353.5 C 124.194 347.856 124.806 340.445 126.852 335.276 C 127.795 332.895 127.48 323.435 126.61 320.992 L 126.19 320.087 C 125.365 317.964 125.786 315.329 124.979 313.004 L 124.749 312.288 C 124.098 310.318 123.307 309.178 121.865 307.704 C 116.39 293.489 106.539 281.658 93.2998 274.067 C 79.801 266.328 63.0344 263.735 47.9572 267.905 C 31.2383 272.528 20.1476 283.305 11.7729 298.004 C 7.61446 295.789 3.5023 290.892 0 287.649 L -0 243.001 L 0 199.362 L -0 161.925 L 0 121.721 z"/>
<path transform="translate(0,0)" fill="rgb(8,100,185)" d="M 0 199.362 C 35.4659 194.12 70.1667 192.114 104.892 202.854 C 115.448 206.118 126.877 210.563 135.777 217.259 C 137.633 218.656 141.138 222.644 143.059 223.362 C 143.983 223.707 149.784 222.54 151.118 222.362 C 182.768 218.141 209.676 227.455 239 238.059 C 242.914 239.475 250.684 240.584 253.827 242.84 L -0 243.001 L 0 199.362 z"/>
<path transform="translate(0,0)" fill="rgb(8,100,185)" d="M 1024 128.94 L 718.707 129.663 L 744.468 121.052 L 775.887 112.472 C 804.007 104.807 834.994 97.5688 862.204 112.177 C 890.215 91.2167 926.609 88.9103 960.139 94.6304 C 964.592 95.3901 968.92 96.3211 973.272 97.5376 C 974.004 97.7421 977.018 98.8984 977.606 98.7852 C 978.301 98.6516 986.95 90.6649 989.041 89.4406 C 1000.01 83.0196 1012.01 78.8155 1024 74.7638 L 1024 128.94 z"/>
<path transform="translate(0,0)" fill="rgb(8,100,185)" d="M 0 121.721 C 10.3227 122.307 21.7852 123.454 31.3764 127.575 C 34.5748 128.949 39.1137 132.536 42.2336 133.225 C 42.7641 133.342 45.7226 132.122 46.5367 131.869 L 62.6194 127.191 C 72.5331 124.598 83.2966 121.686 93.5511 121.355 C 98.9458 121.18 105.043 122.608 110.188 124.197 C 111.806 124.696 118.389 127.749 119.568 127.543 C 121.355 127.231 127.745 121.289 129.683 119.967 C 134.313 116.808 139.231 114.154 144.24 111.656 C 184.862 91.3977 235.723 86.6419 280.114 94.4534 C 299.356 97.8396 319.53 103.43 336.795 112.768 C 341.933 115.548 346.987 118.668 351.842 121.916 C 353.213 122.833 356.544 125.743 357.946 126.085 C 359.083 126.362 367.581 122.747 369.262 122.196 C 376.335 119.875 383.767 118.239 391.055 116.724 C 416.635 111.408 447.321 112.725 471.95 121.295 C 480.999 124.443 489.513 128.508 495.983 135.795 L 501.188 142.059 C 522.884 135.95 543.801 133.006 565.859 139.074 C 577.571 142.295 588.673 147.509 600.027 151.745 C 610.801 155.765 621.632 158.435 632.565 161.868 L -0 161.925 L 0 121.721 z"/>
<path transform="translate(0,0)" fill="rgb(58,168,231)" d="M 1024 253.023 L 817.468 253.199 L 733.914 253.188 L 571.4 253.336 L 534.91 253.321 C 526.886 253.424 518.288 254.281 510.351 253.043 L 611.32 235.381 L 632.475 231.44 C 635.469 230.91 639.93 230.771 642.682 229.692 C 644.021 229.166 646.515 226.253 647.68 225.162 C 651.797 221.307 655.969 217.593 660.482 214.203 C 679.778 199.711 702.767 190.035 725.962 183.82 C 766.518 172.953 818.867 173.82 858.5 188.063 C 868.46 191.643 877.629 196.85 886.763 202.121 C 893.006 189.51 899.652 179.393 911.261 171.117 C 942.481 148.862 987.179 144.232 1024 150.413 L 1024 253.023 z"/>
<path transform="translate(0,0)" fill="rgb(134,12,12)" d="M 0 1378.6 C 30.1784 1386.71 61.9555 1391.19 92.6495 1397.12 L 115 1401.69 C 117.872 1402.23 120.843 1403.31 123.615 1402.33 C 125.348 1407 128.34 1418.14 132.195 1421.31 C 136.358 1429.83 143.001 1436.39 149.736 1442.91 L 163.025 1452.29 L 176.873 1456.89 L 177.087 1489.86 L 177.141 1518.95 L 177.183 1548.4 C 177.184 1553.23 177.808 1559.11 176.784 1563.79 L 177.271 1565.67 L 177.177 1595.92 L 177.601 1663.38 L 209.434 1643.44 C 213.584 1640.91 218.57 1637 223.049 1635.49 L 223.021 1614.8 C 229.788 1613.98 238.232 1612.21 245 1613.35 C 256.562 1615.3 268.594 1619.99 279.923 1623.32 L 339.435 1640.2 L 410.718 1660.51 C 421.592 1663.56 434.527 1665.66 444.708 1670.32 L 444.799 1671.69 L 662.509 1658.96 L 737.825 1660.1 L 750.376 1655.94 L 944.294 1601.94 L 1024 1597.96 L 1024 1686.91 L 1024 1847.92 L 1024 1888.54 L 1024 2048 L 677.821 2048 L 525.125 2048 L -0 2048 L -0 1892.99 L 0 1820.68 L -0 1772.87 L 0 1728.89 L 0 1656.62 L -0 1632.29 L -0 1587.3 L 0 1518.76 L 0 1463.53 L 0 1418.97 L 0 1395.36 L 0 1378.6 z"/>
<path transform="translate(0,0)" fill="rgb(1,2,67)" d="M 211.285 1896.39 C 208.974 1881.8 202.679 1866.7 197.761 1852.75 C 202.768 1858.9 206.299 1866.1 210.166 1872.98 L 227.602 1903.78 C 221.804 1901.98 216.777 1898.85 211.285 1896.39 z"/>
<path transform="translate(0,0)" fill="rgb(1,2,67)" d="M 263.451 1924.54 L 315.752 1888.33 L 276.808 1928.69 L 273.625 1931.5 L 263.451 1924.54 z"/>
<path transform="translate(0,0)" fill="rgb(1,2,67)" d="M 232.227 1906.78 L 231.989 1849.33 C 232.046 1839.2 231.514 1828.62 232.661 1818.57 C 237.48 1839.61 238.938 1862.6 241.191 1884.12 C 242.131 1893.11 242.308 1903.47 244.964 1912.13 C 240.993 1912.18 235.879 1908.55 232.227 1906.78 z"/>
<path transform="translate(0,0)" fill="rgb(1,2,67)" d="M 245.715 1912.31 C 250.215 1893.56 257.507 1875.1 264.201 1857.02 C 266.904 1849.73 269.12 1841.12 273.084 1834.48 L 257.276 1920.74 C 254.76 1919.39 252.063 1918.14 249.909 1916.25 C 248.803 1915.28 247.833 1914.69 246.493 1914.08 L 246 1913.86 L 245.715 1912.31 z"/>
<path transform="translate(0,0)" fill="rgb(203,27,22)" d="M 0 1820.68 L 75.7366 1858.82 C 84.2202 1863.32 95.8921 1868.02 102.505 1874.93 L 73.1212 1877.67 L -0 1892.99 L 0 1820.68 z"/>
<path transform="translate(0,0)" fill="rgb(239,60,45)" d="M 0 1656.62 C 14.2315 1659.56 28.9848 1660.61 43.4206 1662.28 L 124.407 1671.52 C 135.057 1672.77 146.779 1672.85 157.167 1675.18 L 62.8135 1734.54 L 0 1728.89 L 0 1656.62 z"/>
<path transform="translate(0,0)" fill="rgb(203,27,22)" d="M 170.336 1564.45 L 176.784 1563.79 L 177.271 1565.67 L 177.177 1595.92 L 176.881 1616.14 L 175.894 1616.23 L -0 1632.29 L -0 1587.3 C 5.76282 1585.93 12.1089 1585.7 18 1584.97 L 44.5383 1581.2 L 170.336 1564.45 z"/>
<path transform="translate(0,0)" fill="rgb(203,27,22)" d="M 0 1728.89 L 62.8135 1734.54 L 100.13 1741.53 L 133.415 1777.48 C 142.181 1787.21 159.621 1802.43 159.414 1816.34 C 159.389 1817.99 158.948 1819.64 157.736 1820.79 C 153.579 1824.76 150.44 1825.4 144.804 1825.23 C 129.309 1824.73 113.334 1819.11 98.8026 1814.24 C 72.6488 1805.48 46.5462 1794.85 21.5917 1783.1 C 14.505 1779.77 6.698 1776.89 -0 1772.87 L 0 1728.89 z"/>
<path transform="translate(0,0)" fill="rgb(239,60,45)" d="M 0 1518.76 L 177.141 1518.95 L 177.183 1548.4 C 177.184 1553.23 177.808 1559.11 176.784 1563.79 L 170.336 1564.45 L 44.5383 1581.2 L 18 1584.97 C 12.1089 1585.7 5.76282 1585.93 -0 1587.3 L 0 1518.76 z"/>
<path transform="translate(0,0)" fill="rgb(101,1,12)" d="M 744.889 1962.78 L 774 1988.07 C 763.122 1996.93 750.462 2003.83 738.499 2011.14 L 677.821 2048 L 525.125 2048 L 422.712 2007.45 C 449.893 2001.44 478.984 1999.32 506.615 1995.66 L 667.397 1974.77 L 724.469 1966.99 C 730.036 1966.17 740.358 1966.01 744.889 1962.78 z"/>
<path transform="translate(0,0)" fill="rgb(203,27,22)" d="M 0 1378.6 C 30.1784 1386.71 61.9555 1391.19 92.6495 1397.12 L 115 1401.69 C 117.872 1402.23 120.843 1403.31 123.615 1402.33 C 125.348 1407 128.34 1418.14 132.195 1421.31 C 136.358 1429.83 143.001 1436.39 149.736 1442.91 L 163.025 1452.29 L 176.873 1456.89 L 177.087 1489.86 L 177.141 1518.95 L 0 1518.76 L 0 1463.53 L 0 1418.97 L 0 1395.36 L 0 1378.6 z"/>
<path transform="translate(0,0)" fill="rgb(134,12,12)" d="M 0 1395.36 C 16.7835 1402.04 35.1072 1406.8 52.4638 1411.9 L 125.539 1434.74 L 141.256 1440.37 C 143.945 1441.43 146.787 1443.32 149.736 1442.91 L 163.025 1452.29 C 151.696 1451.75 139.355 1448.66 128.131 1446.71 L 0 1418.97 L 0 1395.36 z"/>
<path transform="translate(0,0)" fill="rgb(203,27,22)" d="M 0 1378.6 C 30.1784 1386.71 61.9555 1391.19 92.6495 1397.12 L 115 1401.69 C 117.872 1402.23 120.843 1403.31 123.615 1402.33 C 125.348 1407 128.34 1418.14 132.195 1421.31 C 136.358 1429.83 143.001 1436.39 149.736 1442.91 C 146.787 1443.32 143.945 1441.43 141.256 1440.37 L 125.539 1434.74 L 52.4638 1411.9 C 35.1072 1406.8 16.7835 1402.04 0 1395.36 L 0 1378.6 z"/>
<path transform="translate(0,0)" fill="rgb(134,12,12)" d="M 0 1463.53 L 177.087 1489.86 L 177.141 1518.95 L 0 1518.76 L 0 1463.53 z"/>
<path transform="translate(0,0)" fill="rgb(101,1,12)" d="M 244.138 1623.26 L 246.78 1622.32 L 303.284 1667.71 C 309.1 1672.28 315.612 1678.85 322.037 1682.32 L 362.304 1714.86 C 364.936 1717.02 371.797 1724.16 374.623 1725.07 C 377.333 1725.95 384.305 1724.95 387.371 1724.91 L 428.176 1724.37 L 447.603 1724.09 C 449.104 1724.07 452.606 1723.57 453.936 1724 C 455.747 1724.58 460.249 1729.54 461.861 1730.96 L 495.964 1761.13 C 513.551 1776.24 533.515 1790.18 550.031 1806.37 C 551.122 1807.44 551.812 1807.83 553.273 1808.2 C 564.988 1811.2 577.493 1812.58 589.387 1815.03 L 663.229 1832.56 C 657.882 1834.93 645.669 1833.03 639.68 1832.73 C 553.448 1828.44 469.053 1810.17 384.268 1795.4 L 119.983 1745.01 C 134.191 1736.11 146.521 1724.1 158.602 1712.56 L 205.171 1666.63 L 233.185 1637.05 C 237.064 1632.65 241.377 1628.49 244.138 1623.26 z"/>
<path transform="translate(0,0)" fill="rgb(1,2,67)" d="M 1024 1847.92 L 1024 1888.54 L 1024 2048 L 677.821 2048 L 738.499 2011.14 C 750.462 2003.83 763.122 1996.93 774 1988.07 L 744.889 1962.78 L 709.167 1929.23 L 772.746 1961.75 L 786.441 1960.2 C 781.805 1950.41 778.824 1938.76 775.329 1928.43 C 766.41 1902.05 757.697 1875.87 750.885 1848.85 L 799.741 1941.49 L 824.823 1898.69 L 832.765 1897.22 L 885.84 1885.05 L 935.063 1871.15 L 939.996 1868.92 C 949.47 1866.21 958.865 1862.24 968.64 1860.83 C 975.698 1860.31 983.559 1857.36 990.437 1855.59 L 1024 1847.92 z"/>
<path transform="translate(0,0)" fill="rgb(101,1,12)" d="M 772.746 1961.75 L 786.441 1960.2 C 786.495 1963.81 786.189 1964.55 784.114 1967.5 L 782.5 1968.1 L 772.746 1961.75 z"/>
<path transform="translate(0,0)" fill="rgb(3,50,112)" d="M 1024 1847.92 L 1024 1888.54 C 1000.21 1911.68 959.233 1920.21 926.774 1919.77 C 899.33 1919.4 876.293 1912.4 850.595 1903.97 C 845.425 1902.27 837.001 1900.57 832.765 1897.22 L 885.84 1885.05 L 935.063 1871.15 L 939.996 1868.92 C 949.47 1866.21 958.865 1862.24 968.64 1860.83 C 975.698 1860.31 983.559 1857.36 990.437 1855.59 L 1024 1847.92 z"/>
<path transform="translate(0,0)" fill="rgb(1,2,67)" d="M 102.505 1874.93 C 115.575 1874.78 128.694 1873.51 141.75 1874.3 C 166.483 1875.8 188.655 1887.73 211.285 1896.39 C 216.777 1898.85 221.804 1901.98 227.602 1903.78 L 232.227 1906.78 C 235.879 1908.55 240.993 1912.18 244.964 1912.13 L 245.715 1912.31 L 246 1913.86 L 246.493 1914.08 C 247.833 1914.69 248.803 1915.28 249.909 1916.25 C 252.063 1918.14 254.76 1919.39 257.276 1920.74 L 263.451 1924.54 L 273.625 1931.5 C 281.913 1937.15 289.952 1943.37 297.091 1950.44 C 302.298 1955.63 307.393 1960.83 312.062 1966.51 C 314.866 1969.92 318.466 1976.88 321.822 1979.3 C 323.398 1980.44 327.613 1980.82 329.589 1981.24 L 347.166 1985.38 C 372.634 1991.79 397.972 1998.58 422.712 2007.45 L 525.125 2048 L -0 2048 L -0 1892.99 L 73.1212 1877.67 L 102.505 1874.93 z"/>
<path transform="translate(0,0)" fill="rgb(3,50,112)" d="M 102.505 1874.93 C 115.575 1874.78 128.694 1873.51 141.75 1874.3 C 166.483 1875.8 188.655 1887.73 211.285 1896.39 C 216.777 1898.85 221.804 1901.98 227.602 1903.78 L 232.227 1906.78 C 235.879 1908.55 240.993 1912.18 244.964 1912.13 L 245.715 1912.31 L 246 1913.86 L 246.493 1914.08 C 247.833 1914.69 248.803 1915.28 249.909 1916.25 C 252.063 1918.14 254.76 1919.39 257.276 1920.74 L 263.451 1924.54 L 273.625 1931.5 C 281.913 1937.15 289.952 1943.37 297.091 1950.44 C 291.773 1954.31 284.262 1955.71 278.073 1957.78 C 251.707 1966.56 225.84 1973.11 198.302 1977.2 C 186.871 1978.9 172.981 1980.97 161.5 1978.86 C 158.487 1978.3 156.388 1976.04 154.809 1973.56 L 154.5 1973.06 C 147.364 1961.75 161.881 1945.67 158.079 1933.5 C 156.196 1931.09 154.356 1929.92 151.336 1929.35 C 143.479 1927.88 134.126 1929.62 126.113 1929.69 C 113.094 1929.81 99.7796 1929.15 86.8605 1927.53 C 72.0332 1925.67 56.4511 1923.06 42.2832 1918.23 C 38.812 1917.04 33.7719 1915.17 31.5493 1912.06 C 29.904 1909.76 30.4811 1908.59 30.957 1906 C 33.0136 1902.81 36.4236 1901.29 39.6471 1899.5 C 48.6026 1894.53 58.6656 1891.81 67.4458 1886.65 C 71.879 1884.04 71.8607 1882.49 73.1212 1877.67 L 102.505 1874.93 z"/>
<path transform="translate(0,0)" fill="rgb(239,60,45)" d="M 944.294 1601.94 L 1024 1597.96 L 1024 1686.91 L 1024 1847.92 L 990.437 1855.59 C 983.559 1857.36 975.698 1860.31 968.64 1860.83 C 958.865 1862.24 949.47 1866.21 939.996 1868.92 L 935.063 1871.15 L 885.84 1885.05 L 861.756 1843 L 707.514 1836.08 C 693.891 1835.28 676.051 1836.63 663.229 1832.56 L 589.387 1815.03 C 577.493 1812.58 564.988 1811.2 553.273 1808.2 C 551.812 1807.83 551.122 1807.44 550.031 1806.37 C 533.515 1790.18 513.551 1776.24 495.964 1761.13 L 461.861 1730.96 C 460.249 1729.54 455.747 1724.58 453.936 1724 C 452.606 1723.57 449.104 1724.07 447.603 1724.09 L 428.176 1724.37 L 387.371 1724.91 C 384.305 1724.95 377.333 1725.95 374.623 1725.07 C 371.797 1724.16 364.936 1717.02 362.304 1714.86 L 322.037 1682.32 L 444.799 1671.69 L 662.509 1658.96 L 737.825 1660.1 L 750.376 1655.94 L 944.294 1601.94 z"/>
<path transform="translate(0,0)" fill="rgb(1,2,67)" d="M 939.996 1868.92 C 944.979 1861.55 951.549 1854.66 957.396 1847.93 L 1001.97 1800.18 L 968.64 1860.83 C 958.865 1862.24 949.47 1866.21 939.996 1868.92 z"/>
<path transform="translate(0,0)" fill="rgb(1,2,67)" d="M 896.406 1842.32 C 893.522 1810.99 892.856 1779.24 894.209 1747.81 C 894.589 1738.98 894.343 1728.87 896.288 1720.3 C 900.115 1733.45 901.352 1747.61 903.555 1761.13 L 917.064 1850.2 L 950.434 1742.05 L 942.431 1814.56 L 936.922 1853 C 936.13 1858.55 934.259 1865.66 935.063 1871.15 L 885.84 1885.05 L 861.756 1843 L 834.352 1784.55 L 882.154 1844.08 L 895 1843.97 L 896.406 1842.32 z"/>
<path transform="translate(0,0)" fill="rgb(134,12,12)" d="M 896.406 1842.32 C 897.466 1849.5 898.63 1859.39 897.707 1866.58 L 882.154 1844.08 L 895 1843.97 L 896.406 1842.32 z"/>
<path transform="translate(0,0)" fill="rgb(203,27,22)" d="M 944.294 1601.94 L 1024 1597.96 L 1024 1686.91 L 737.825 1660.1 L 750.376 1655.94 L 944.294 1601.94 z"/>
</svg>