<svg version="1.1" xmlns="http://www.w3.org/2000/svg" style="display: block;" viewBox="0 0 1024 2048" width="1024" height="2048">
<defs>
	<linearGradient id="Gradient1" gradientUnits="userSpaceOnUse" x1="136.356" y1="1616.26" x2="730.76" y2="1883.11">
		<stop class="stop0" offset="0" stop-opacity="1" stop-color="rgb(104,0,219)"/>
		<stop class="stop1" offset="1" stop-opacity="1" stop-color="rgb(205,105,235)"/>
	</linearGradient>
	<linearGradient id="Gradient2" gradientUnits="userSpaceOnUse" x1="453.61" y1="1785.22" x2="350.006" y2="1572.52">
		<stop class="stop0" offset="0" stop-opacity="1" stop-color="rgb(84,46,43)"/>
		<stop class="stop1" offset="1" stop-opacity="1" stop-color="rgb(169,125,114)"/>
	</linearGradient>
	<linearGradient id="Gradient3" gradientUnits="userSpaceOnUse" x1="395.97" y1="1445.47" x2="367.628" y2="1772.83">
		<stop class="stop0" offset="0" stop-opacity="1" stop-color="rgb(159,110,98)"/>
		<stop class="stop1" offset="1" stop-opacity="1" stop-color="rgb(183,146,126)"/>
	</linearGradient>
	<linearGradient id="Gradient4" gradientUnits="userSpaceOnUse" x1="579.672" y1="1152.8" x2="303.871" y2="1485.16">
		<stop class="stop0" offset="0" stop-opacity="1" stop-color="rgb(105,7,185)"/>
		<stop class="stop1" offset="1" stop-opacity="1" stop-color="rgb(175,18,255)"/>
	</linearGradient>
	<linearGradient id="Gradient5" gradientUnits="userSpaceOnUse" x1="507.13" y1="1233.31" x2="443.183" y2="1398.04">
		<stop class="stop0" offset="0" stop-opacity="1" stop-color="rgb(141,27,192)"/>
		<stop class="stop1" offset="1" stop-opacity="1" stop-color="rgb(216,82,255)"/>
	</linearGradient>
	<linearGradient id="Gradient6" gradientUnits="userSpaceOnUse" x1="604.447" y1="1697.88" x2="265.018" y2="1383.69">
		<stop class="stop0" offset="0" stop-opacity="1" stop-color="rgb(164,127,109)"/>
		<stop class="stop1" offset="1" stop-opacity="1" stop-color="rgb(226,179,159)"/>
	</linearGradient>
	<linearGradient id="Gradient7" gradientUnits="userSpaceOnUse" x1="1020.27" y1="1478.72" x2="751.977" y2="1403.47">
		<stop class="stop0" offset="0" stop-opacity="1" stop-color="rgb(108,65,67)"/>
		<stop class="stop1" offset="1" stop-opacity="1" stop-color="rgb(138,89,90)"/>
	</linearGradient>
	<linearGradient id="Gradient8" gradientUnits="userSpaceOnUse" x1="511.003" y1="841.144" x2="511.864" y2="653.652">
		<stop class="stop0" offset="0" stop-opacity="1" stop-color="rgb(186,82,182)"/>
		<stop class="stop1" offset="1" stop-opacity="1" stop-color="rgb(75,0,192)"/>
	</linearGradient>
	<linearGradient id="Gradient9" gradientUnits="userSpaceOnUse" x1="371.137" y1="860.32" x2="370.988" y2="840.41">
		<stop class="stop0" offset="0" stop-opacity="1" stop-color="rgb(205,138,166)"/>
		<stop class="stop1" offset="1" stop-opacity="1" stop-color="rgb(190,114,167)"/>
	</linearGradient>
	<linearGradient id="Gradient10" gradientUnits="userSpaceOnUse" x1="769.667" y1="814.572" x2="768.719" y2="847.878">
		<stop class="stop0" offset="0" stop-opacity="1" stop-color="rgb(83,15,154)"/>
		<stop class="stop1" offset="1" stop-opacity="1" stop-color="rgb(163,83,188)"/>
	</linearGradient>
	<linearGradient id="Gradient11" gradientUnits="userSpaceOnUse" x1="208.802" y1="822.202" x2="205.27" y2="879.627">
		<stop class="stop0" offset="0" stop-opacity="1" stop-color="rgb(34,0,117)"/>
		<stop class="stop1" offset="1" stop-opacity="1" stop-color="rgb(130,45,215)"/>
	</linearGradient>
	<linearGradient id="Gradient12" gradientUnits="userSpaceOnUse" x1="775.708" y1="832.262" x2="779.016" y2="925.653">
		<stop class="stop0" offset="0" stop-opacity="1" stop-color="rgb(190,107,168)"/>
		<stop class="stop1" offset="1" stop-opacity="1" stop-color="rgb(255,245,175)"/>
	</linearGradient>
	<linearGradient id="Gradient13" gradientUnits="userSpaceOnUse" x1="196.843" y1="859.556" x2="201.389" y2="965.532">
		<stop class="stop0" offset="0" stop-opacity="1" stop-color="rgb(208,128,141)"/>
		<stop class="stop1" offset="1" stop-opacity="1" stop-color="rgb(255,253,225)"/>
	</linearGradient>
	<linearGradient id="Gradient14" gradientUnits="userSpaceOnUse" x1="496.406" y1="-24.0853" x2="525.62" y2="578.013">
		<stop class="stop0" offset="0" stop-opacity="1" stop-color="rgb(0,0,0)"/>
		<stop class="stop1" offset="1" stop-opacity="1" stop-color="rgb(21,6,213)"/>
	</linearGradient>
	<linearGradient id="Gradient15" gradientUnits="userSpaceOnUse" x1="753.897" y1="388.134" x2="802.088" y2="460.273">
		<stop class="stop0" offset="0" stop-opacity="1" stop-color="rgb(234,253,246)"/>
		<stop class="stop1" offset="1" stop-opacity="1" stop-color="rgb(254,255,255)"/>
	</linearGradient>
	<linearGradient id="Gradient16" gradientUnits="userSpaceOnUse" x1="712.189" y1="366.634" x2="801.558" y2="424.754">
		<stop class="stop0" offset="0" stop-opacity="1" stop-color="rgb(20,0,157)"/>
		<stop class="stop1" offset="1" stop-opacity="1" stop-color="rgb(138,71,255)"/>
	</linearGradient>
	<linearGradient id="Gradient17" gradientUnits="userSpaceOnUse" x1="716.457" y1="185.771" x2="720.956" y2="299.703">
		<stop class="stop0" offset="0" stop-opacity="1" stop-color="rgb(20,0,143)"/>
		<stop class="stop1" offset="1" stop-opacity="1" stop-color="rgb(50,3,219)"/>
	</linearGradient>
	<linearGradient id="Gradient18" gradientUnits="userSpaceOnUse" x1="516.871" y1="506.666" x2="510.223" y2="676.028">
		<stop class="stop0" offset="0" stop-opacity="1" stop-color="rgb(0,2,79)"/>
		<stop class="stop1" offset="1" stop-opacity="1" stop-color="rgb(61,12,164)"/>
	</linearGradient>
</defs>
<path transform="translate(0,0)" fill="rgb(33,11,86)" d="M -0 257.805 L 0 -0 L 1024 0 L 1024 287.335 L 1024 364.129 L 1024 553.808 L 1024 606.514 L 1024 634.144 L 1024 656.224 L 1024 727.577 L 1024 751.018 L 1024 784.455 L 1024 810.077 L 1024 815.436 L 1024 824.208 L 1024 827.243 L 1024 831.51 L 1024 839.884 L 1024 853.653 L 1024 871.06 L 1024 883.004 L 1024 927.719 L 1024 963.075 L 1024 967.924 L 1024 1011.84 L 1024 1043.92 L 1024 1044.74 L 1024 1105.55 L 1024 1170.72 L 1024 1253.54 L 1024 1289.39 L 1024 1407.99 L 1024 1471.25 L 1024 1500.38 L 1024 1533.82 L 1024 1620.82 L 1024 2048 L 554.659 2048 L 5 2048 L 0 2048 L 0 1982.33 L -0 1920.45 L 0 1807.44 L 0 1743.1 L 0 1672.24 L 0 1670.2 L 0 1637.56 L 0 1543.51 L -0 1478.24 L 0 1235.45 L 0 1225.56 L 0 1220.93 L 0 1212.4 L 0 1137.81 L 0 1125.99 L -0 1062.38 L 0 1040.03 L 0 1019.97 L 0 1017.62 L 0 979.293 L -0 975.317 L -0 932.566 L 0 913.558 L 0 895.043 L 0 868.114 L 0 839.34 L -0 836.782 L 0 770.307 L -0 748.011 L 0 702.715 L -0 656.402 L 0 631.864 L 0 598.319 L -0 575.531 L -0 502.967 L 0 490.375 L 0 396.12 L -0 318.454 L -0 257.805 z"/>
<path transform="translate(0,0)" fill="rgb(0,0,0)" d="M 884.167 1520.77 L 965.466 1508.32 C 984.473 1505.74 1005.51 1505.05 1024 1500.38 L 1024 1533.82 L 1024 1620.82 L 1024 2048 L 554.659 2048 L 774.658 1942.7 C 793.35 1931.69 811.382 1918.78 828.984 1906.1 C 878.432 1870.46 924.76 1830.34 959.616 1779.81 C 974.774 1757.84 987.503 1734.63 994.174 1708.62 C 1014.57 1629.13 962.289 1573.16 900.171 1533.07 L 881.791 1522.17 C 878.367 1520.29 874.22 1518.91 872.225 1515.53 L 884.167 1520.77 z"/>
<path transform="translate(0,0)" fill="rgb(72,40,37)" d="M 884.167 1520.77 L 965.466 1508.32 C 984.473 1505.74 1005.51 1505.05 1024 1500.38 L 1024 1533.82 L 1024 1620.82 C 995.977 1590.2 960.557 1566.9 925.885 1544.62 L 884.167 1520.77 z"/>
<path transform="translate(0,0)" fill="rgb(60,21,150)" d="M 713.397 1471.35 C 703.447 1466.38 691.968 1463.39 681.5 1459.59 C 686.085 1459.6 691.072 1461.1 695.61 1461.87 C 705.243 1459.55 718.968 1463.1 728.808 1464.67 L 758.638 1472.93 C 762.725 1474.26 767.572 1475.4 771.251 1477.64 L 796.787 1486.68 C 807.034 1488.31 818.123 1493.12 827.862 1496.82 L 843.869 1503.62 C 872.924 1527.18 891.58 1560.01 895.503 1597.43 C 899.758 1638.01 879.726 1675.39 854.862 1705.87 C 828.8 1737.81 794.806 1763.97 760.162 1785.94 C 623.014 1872.92 461.538 1903.74 306.865 1944.78 C 237.049 1963.31 169.032 1983.98 101.329 2009.2 L 32.6612 2035.91 C 24.4597 2039.2 11.8252 2042.59 5 2048 L 0 2048 L 0 1982.33 L -0 1920.45 L 280.086 1812.35 C 288.229 1810.86 296.739 1807.45 304.714 1805.04 L 353 1790.31 L 440.573 1764.88 C 511.828 1744.05 583.238 1722.11 650.438 1690.16 C 692.229 1670.29 734.769 1646.84 767.407 1613.5 C 781.089 1599.52 792.923 1583.75 799.51 1565.2 C 799.038 1561.43 799.769 1558.22 799.777 1554.5 C 799.789 1549.35 798.458 1543.77 797.075 1538.83 C 793.857 1527.32 782.271 1512.09 771.925 1506.4 C 753.424 1493.07 734.385 1480.45 713.397 1471.35 z"/>
<path transform="translate(0,0)" fill="url(#Gradient1)" d="M 713.397 1471.35 C 703.447 1466.38 691.968 1463.39 681.5 1459.59 C 686.085 1459.6 691.072 1461.1 695.61 1461.87 C 705.243 1459.55 718.968 1463.1 728.808 1464.67 L 758.638 1472.93 C 762.725 1474.26 767.572 1475.4 771.251 1477.64 L 796.787 1486.68 C 817.802 1497.76 837.713 1507.62 852.32 1527.25 C 855.677 1531.77 859.383 1537.08 861.13 1542.51 L 861.362 1543.27 C 866.953 1554.58 868.038 1567.25 865.599 1579.55 C 865.179 1581.67 864.673 1585.44 863.625 1587.26 L 863.271 1587.66 C 849.455 1636.02 778.502 1681.38 736.563 1704.7 C 706.615 1721.35 674.523 1738.06 642.2 1749.43 C 638.105 1752.36 632.454 1753.99 627.785 1755.84 L 597.203 1767.21 L 327.623 1851.69 C 245.136 1878.07 164.516 1907.89 85.1238 1942.53 C 56.5192 1955.01 27.4236 1967.43 0 1982.33 L -0 1920.45 L 280.086 1812.35 C 288.229 1810.86 296.739 1807.45 304.714 1805.04 L 353 1790.31 L 440.573 1764.88 C 511.828 1744.05 583.238 1722.11 650.438 1690.16 C 692.229 1670.29 734.769 1646.84 767.407 1613.5 C 781.089 1599.52 792.923 1583.75 799.51 1565.2 C 799.038 1561.43 799.769 1558.22 799.777 1554.5 C 799.789 1549.35 798.458 1543.77 797.075 1538.83 C 793.857 1527.32 782.271 1512.09 771.925 1506.4 C 753.424 1493.07 734.385 1480.45 713.397 1471.35 z"/>
<path transform="translate(0,0)" fill="rgb(203,138,227)" d="M 861.362 1543.27 C 866.953 1554.58 868.038 1567.25 865.599 1579.55 C 865.179 1581.67 864.673 1585.44 863.625 1587.26 L 863.271 1587.66 L 861.713 1586.9 C 863.014 1585.46 863.504 1580.62 863.51 1578.5 L 862.747 1580.17 L 861.51 1580 C 861.511 1573.18 859.824 1560.32 862.005 1554.25 L 863.25 1555.75 C 863.589 1553.47 862.843 1552.68 862.226 1550.55 L 862.005 1549.75 C 861.706 1548.89 861.481 1548.64 861.474 1547.67 C 861.466 1546.4 860.418 1545.24 859.747 1544.14 L 861.362 1543.27 z"/>
<path transform="translate(0,0)" fill="rgb(0,0,0)" d="M 713.397 1471.35 C 703.447 1466.38 691.968 1463.39 681.5 1459.59 C 686.085 1459.6 691.072 1461.1 695.61 1461.87 C 711.387 1466.63 726.623 1472.14 741.781 1478.56 C 762.408 1487.3 785.641 1498.69 796.703 1519.37 C 804.002 1533.02 804.697 1548.45 800.218 1563.11 L 799.51 1565.2 C 799.038 1561.43 799.769 1558.22 799.777 1554.5 C 799.789 1549.35 798.458 1543.77 797.075 1538.83 C 793.857 1527.32 782.271 1512.09 771.925 1506.4 C 753.424 1493.07 734.385 1480.45 713.397 1471.35 z"/>
<path transform="translate(0,0)" fill="url(#Gradient2)" d="M 713.397 1471.35 C 734.385 1480.45 753.424 1493.07 771.925 1506.4 C 782.271 1512.09 793.857 1527.32 797.075 1538.83 C 798.458 1543.77 799.789 1549.35 799.777 1554.5 C 799.769 1558.22 799.038 1561.43 799.51 1565.2 C 792.923 1583.75 781.089 1599.52 767.407 1613.5 C 734.769 1646.84 692.229 1670.29 650.438 1690.16 C 583.238 1722.11 511.828 1744.05 440.573 1764.88 L 353 1790.31 L 304.714 1805.04 C 296.739 1807.45 288.229 1810.86 280.086 1812.35 L -0 1920.45 L 0 1807.44 L 0 1743.1 L 0 1672.24 C 18.3306 1676.68 39.7308 1676.08 58.5005 1675.32 C 179.297 1670.46 293.806 1621.94 405.84 1580.78 L 621.499 1500.68 L 676 1483.18 L 699.462 1476.14 C 704.097 1474.81 709.376 1474.1 713.397 1471.35 z"/>
<path transform="translate(0,0)" fill="rgb(72,40,37)" d="M 316.927 1793.26 C 313.808 1796.68 308.483 1798.43 304.326 1800.33 L 306.25 1802.51 C 309.938 1799.57 314.774 1801.24 318.5 1797.51 L 320.25 1798.5 C 322.131 1796.63 324.663 1797.42 326.801 1795.99 C 327.518 1795.51 327.33 1795.5 328.083 1795.36 C 329.877 1795.05 331.669 1794.19 333.406 1794.05 C 335.308 1793.9 336.172 1793.49 337.628 1792.32 C 337.953 1792.05 341.925 1791.51 343 1791.51 C 343.976 1790.85 343.99 1790.53 344.5 1789.51 L 345.49 1790.5 L 346.5 1789.51 C 348.352 1789.6 349.718 1789.58 351.462 1788.89 L 351.876 1788.72 L 353 1790.31 L 304.714 1805.04 C 296.739 1807.45 288.229 1810.86 280.086 1812.35 L 279.488 1811.58 C 280.721 1809 312.311 1795.15 316.927 1793.26 z"/>
<path transform="translate(0,0)" fill="url(#Gradient3)" d="M 713.397 1471.35 C 734.385 1480.45 753.424 1493.07 771.925 1506.4 L 747.171 1511.76 C 743.904 1512.06 740.035 1512.04 737.012 1513.32 C 732.053 1515.4 724.392 1516.07 719.033 1517.34 L 676 1528.83 L 553.025 1568.55 L 441.289 1615.05 C 340.817 1657.66 241.91 1699.59 135.256 1724.48 C 90.7872 1734.86 45.7729 1742.93 0 1743.1 L 0 1672.24 C 18.3306 1676.68 39.7308 1676.08 58.5005 1675.32 C 179.297 1670.46 293.806 1621.94 405.84 1580.78 L 621.499 1500.68 L 676 1483.18 L 699.462 1476.14 C 704.097 1474.81 709.376 1474.1 713.397 1471.35 z"/>
<path transform="translate(0,0)" fill="rgb(112,70,67)" d="M 0 1807.44 C 29.6211 1806.9 58.5515 1805.37 87.8953 1800.87 C 242.575 1777.16 381.974 1697.97 522 1632.96 L 639.344 1583.68 L 658.467 1576.72 C 660.074 1576.15 661.508 1575.01 663.157 1574.64 C 665.667 1574.08 667.284 1572.43 669.579 1571.81 C 686.266 1567.32 703.539 1560.72 720.005 1555.01 C 727.094 1552.54 734.628 1551.1 741.783 1548.73 C 743.786 1548.06 746.087 1548.17 747.875 1546.98 C 749.531 1545.88 753.179 1546.21 755 1545.51 C 761.252 1543.1 768.051 1542.64 774.5 1540.51 C 777.316 1539.58 780.732 1540.31 783.477 1538.57 L 785.479 1539.14 C 782.686 1542.22 770.567 1543.46 766.074 1544.33 C 771.118 1546.27 783.274 1542.17 788.443 1540.68 C 790.828 1540 793.128 1538.72 795.51 1539.5 L 795.538 1540.09 C 795.657 1542.02 795.894 1542.91 797 1544.5 L 796.87 1545.37 C 796.737 1546.44 797.023 1546.85 797.338 1547.83 C 798.419 1551.22 797.797 1556.99 797.5 1560.51 C 796.096 1562.62 797.179 1564.41 796.037 1566.13 C 795.49 1566.95 795.36 1567.49 795.145 1568.42 C 794.428 1571.53 793.269 1574.85 791.51 1577.5 L 791.5 1578.51 C 789.641 1581.53 785.875 1583.73 782.473 1584.68 L 781.005 1585.01 C 777.101 1586.01 773.513 1587.83 769.5 1588.51 C 767.761 1590.25 766.55 1588.76 764.906 1589.98 C 763.883 1590.74 762.716 1590.8 761.5 1591 L 713.005 1604.01 L 712.388 1604.18 C 709.836 1604.94 707.873 1606.47 705.428 1607.32 L 671.988 1618.58 L 632.836 1631.83 C 591.978 1647.04 552.155 1664.5 513.649 1684.97 C 447.617 1720.07 384.36 1760.84 316.927 1793.26 C 312.311 1795.15 280.721 1809 279.488 1811.58 L 280.086 1812.35 L -0 1920.45 L 0 1807.44 z"/>
<path transform="translate(0,0)" fill="rgb(60,21,150)" d="M 932.913 1060.39 C 962.667 1051.86 993.109 1046.09 1024 1043.92 L 1024 1044.74 L 1024 1105.55 L 1024 1170.72 L 1024 1253.54 L 1024 1289.39 L 1024 1407.99 L 1024 1471.25 L 1024 1500.38 C 1005.51 1505.05 984.473 1505.74 965.466 1508.32 L 884.167 1520.77 L 872.225 1515.53 C 870.03 1513.77 866.573 1512.71 863.986 1511.58 L 843.869 1503.62 L 827.862 1496.82 C 818.123 1493.12 807.034 1488.31 796.787 1486.68 L 771.251 1477.64 C 767.572 1475.4 762.725 1474.26 758.638 1472.93 L 728.808 1464.67 C 718.968 1463.1 705.243 1459.55 695.61 1461.87 C 691.072 1461.1 686.085 1459.6 681.5 1459.59 C 691.968 1463.39 703.447 1466.38 713.397 1471.35 C 709.376 1474.1 704.097 1474.81 699.462 1476.14 L 676 1483.18 L 621.499 1500.68 L 405.84 1580.78 C 293.806 1621.94 179.297 1670.46 58.5005 1675.32 C 39.7308 1676.08 18.3306 1676.68 0 1672.24 L 0 1670.2 L 0 1637.56 L 0 1543.51 L -0 1478.24 L 0 1235.45 L 0 1225.56 L 0 1220.93 L 120.764 1233.57 L 165.944 1240.35 C 170.834 1241.1 178.086 1243.12 182.909 1242.7 L 359.928 1279.5 L 370.492 1282.02 L 454.123 1262.4 C 459.806 1260.93 465.664 1259.73 471.103 1257.5 C 485.527 1254.46 499.901 1249.49 514 1245.19 C 567.649 1228.84 620.376 1208.44 670.932 1184.16 L 715 1162.7 L 725.118 1157.33 L 768.255 1135.75 C 801.099 1119.16 832.638 1100.16 866.366 1085.28 C 875.739 1081.14 885.245 1076.48 895.001 1073.4 L 932.913 1060.39 z"/>
<path transform="translate(0,0)" fill="url(#Gradient4)" d="M 0 1220.93 L 120.764 1233.57 L 165.944 1240.35 C 170.834 1241.1 178.086 1243.12 182.909 1242.7 L 359.928 1279.5 L 370.492 1282.02 L 561.109 1329.34 L 649.522 1350.71 L 720.721 1367.76 C 734.005 1369.6 747.169 1373.34 760.298 1376.13 L 832.216 1389.59 C 846.863 1392.13 862.155 1395.47 876.96 1396.65 L 951.702 1406.44 L 933.188 1407.08 C 913.249 1409.7 892.261 1407.45 872.471 1410.99 C 788.627 1413.75 706.868 1433.59 625.087 1450.18 C 612.229 1445.92 599.635 1439.51 587.112 1434.26 L 423.24 1357.46 C 344.909 1321.57 264.49 1294.01 181.194 1272.17 C 121.485 1256.51 62.5519 1243.7 1.23548 1235.77 L 0 1235.45 L 0 1225.56 L 0 1220.93 z"/>
<path transform="translate(0,0)" fill="url(#Gradient5)" d="M 0 1220.93 L 120.764 1233.57 L 165.944 1240.35 C 170.834 1241.1 178.086 1243.12 182.909 1242.7 L 359.928 1279.5 L 370.492 1282.02 L 561.109 1329.34 L 649.522 1350.71 L 720.721 1367.76 C 734.005 1369.6 747.169 1373.34 760.298 1376.13 L 832.216 1389.59 C 846.863 1392.13 862.155 1395.47 876.96 1396.65 L 951.702 1406.44 L 933.188 1407.08 C 928.202 1406 922.226 1406.56 917.108 1406.53 C 915.909 1406.53 912.994 1406.86 912 1406.51 C 907.172 1404.81 901.24 1405.51 895.918 1405.51 C 894.741 1405.51 892.035 1405.86 891 1405.51 C 886.655 1404.05 882.836 1405.43 878.5 1404.51 C 871.963 1403.12 865.099 1402.84 858.5 1401.64 C 853.739 1400.78 846.733 1401.84 842.249 1400.15 C 835.247 1397.52 821.543 1400.23 815.807 1395.7 C 813.119 1394.1 810.55 1395.46 807.947 1394.27 C 803.948 1392.44 797.664 1393.89 793.844 1392.29 C 789.378 1390.42 783.357 1391.93 779.092 1390.17 C 778.261 1389.83 778.153 1389.77 777.285 1389.76 C 774.836 1389.74 773.068 1389.89 771 1388.51 C 768.093 1388.63 764.364 1387.23 762 1387.72 L 761.256 1387.88 C 759.817 1388.15 757.761 1387.89 756.562 1386.98 L 756 1386.51 L 753.5 1387 C 750.443 1385.54 746.52 1386.59 744.125 1384.99 C 742.133 1383.67 738.897 1385.72 736.594 1383.99 C 735.194 1382.94 732.632 1383.9 730.856 1383.36 C 728.155 1382.54 725.66 1382.88 722.977 1381.72 C 722.037 1381.32 720.525 1381.83 719.5 1382 C 717.849 1381.21 716.604 1380.73 714.748 1380.75 C 713.866 1380.76 713.107 1380.79 712.235 1380.62 C 710.066 1380.2 708.564 1380.68 706.5 1380.53 C 696.205 1379.81 684.723 1377.78 674.402 1376.01 L 516 1344.24 L 221.167 1262.44 L 133.607 1243.96 L 96.1075 1238.09 C 92.2283 1237.52 86.4641 1237.65 82.9309 1236.33 C 78.4439 1234.66 72.2616 1235.37 67.5 1234.51 C 60.2238 1233.2 51.2057 1233.84 44.5 1231.51 C 42.5261 1230.82 38.9739 1232.2 37 1231.51 C 33.6975 1230.36 30.7712 1230.72 27.5 1229.51 C 25.8229 1228.89 22.6771 1230.13 21 1229.51 C 18.0957 1228.43 15.4577 1228.46 12.5 1227.51 C 8.0171 1226.08 4.81467 1229.13 0 1225.56 L 0 1220.93 z"/>
<path transform="translate(0,0)" fill="rgb(33,11,86)" d="M 0 1235.45 L 1.23548 1235.77 C 5.37362 1239.98 11.3201 1242.48 16.4871 1245.27 L 37.6336 1257.71 C 53.538 1267.69 68.3132 1278.46 82.7054 1290.55 C 97.6506 1305.18 109.986 1319.93 119.969 1338.38 C 131.617 1341.61 143.816 1352.35 153.5 1359.37 C 195.078 1389.52 232.915 1423.98 265.758 1463.5 C 279.222 1479.7 292.639 1496.81 303.067 1515.2 L 310.728 1531.03 L 0 1637.56 L 0 1543.51 L -0 1478.24 L 0 1235.45 z"/>
<path transform="translate(0,0)" fill="rgb(0,0,0)" d="M 0 1235.45 L 1.23548 1235.77 C 5.37362 1239.98 11.3201 1242.48 16.4871 1245.27 L 37.6336 1257.71 C 53.538 1267.69 68.3132 1278.46 82.7054 1290.55 C 97.6506 1305.18 109.986 1319.93 119.969 1338.38 C 125.671 1351.33 128.807 1363.93 129.136 1378.13 C 126.327 1402.07 113.736 1419.49 95.0644 1434.19 C 68.024 1455.49 32.3268 1467.75 -0 1478.24 L 0 1235.45 z"/>
<path transform="translate(0,0)" fill="url(#Gradient6)" d="M 951.702 1406.44 L 1024 1407.99 L 1024 1471.25 L 1024 1500.38 C 1005.51 1505.05 984.473 1505.74 965.466 1508.32 L 884.167 1520.77 L 872.225 1515.53 C 870.03 1513.77 866.573 1512.71 863.986 1511.58 L 843.869 1503.62 L 827.862 1496.82 C 818.123 1493.12 807.034 1488.31 796.787 1486.68 L 771.251 1477.64 C 767.572 1475.4 762.725 1474.26 758.638 1472.93 L 728.808 1464.67 C 718.968 1463.1 705.243 1459.55 695.61 1461.87 C 691.072 1461.1 686.085 1459.6 681.5 1459.59 C 691.968 1463.39 703.447 1466.38 713.397 1471.35 C 709.376 1474.1 704.097 1474.81 699.462 1476.14 L 676 1483.18 L 621.499 1500.68 L 405.84 1580.78 C 293.806 1621.94 179.297 1670.46 58.5005 1675.32 C 39.7308 1676.08 18.3306 1676.68 0 1672.24 L 0 1670.2 L 0 1637.56 L 310.728 1531.03 L 446.141 1495.21 L 594.148 1457.78 C 595.305 1456.66 599.702 1456.13 601.402 1455.76 L 625.087 1450.18 C 706.868 1433.59 788.627 1413.75 872.471 1410.99 C 892.261 1407.45 913.249 1409.7 933.188 1407.08 L 951.702 1406.44 z"/>
<path transform="translate(0,0)" fill="rgb(235,203,181)" d="M 594.148 1457.78 C 590.331 1460.57 586.081 1461.22 581.735 1462.79 L 545.301 1474.81 L 464.75 1502.22 L 0 1670.2 L 0 1637.56 L 310.728 1531.03 L 446.141 1495.21 L 594.148 1457.78 z"/>
<path transform="translate(0,0)" fill="url(#Gradient7)" d="M 951.702 1406.44 L 1024 1407.99 L 1024 1471.25 L 1024 1500.38 C 1005.51 1505.05 984.473 1505.74 965.466 1508.32 L 884.167 1520.77 L 872.225 1515.53 C 870.03 1513.77 866.573 1512.71 863.986 1511.58 L 843.869 1503.62 L 827.862 1496.82 C 818.123 1493.12 807.034 1488.31 796.787 1486.68 L 771.251 1477.64 C 767.572 1475.4 762.725 1474.26 758.638 1472.93 L 728.808 1464.67 C 731.916 1462.47 737.25 1461.33 740.914 1459.91 L 791.5 1441.84 L 840.036 1423.7 C 850.829 1419.46 861.402 1414.45 872.471 1410.99 C 892.261 1407.45 913.249 1409.7 933.188 1407.08 L 951.702 1406.44 z"/>
<path transform="translate(0,0)" fill="rgb(112,70,67)" d="M 1024 1471.25 L 1024 1500.38 C 1005.51 1505.05 984.473 1505.74 965.466 1508.32 L 884.167 1520.77 L 872.225 1515.53 C 870.03 1513.77 866.573 1512.71 863.986 1511.58 L 843.869 1503.62 L 827.862 1496.82 L 1024 1471.25 z"/>
<path transform="translate(0,0)" fill="rgb(104,23,197)" d="M 932.913 1060.39 C 962.667 1051.86 993.109 1046.09 1024 1043.92 L 1024 1044.74 L 1024 1105.55 L 1024 1170.72 L 1024 1253.54 L 1024 1289.39 L 1024 1407.99 L 951.702 1406.44 L 876.96 1396.65 C 862.155 1395.47 846.863 1392.13 832.216 1389.59 L 760.298 1376.13 C 747.169 1373.34 734.005 1369.6 720.721 1367.76 L 649.522 1350.71 L 561.109 1329.34 L 370.492 1282.02 L 454.123 1262.4 C 459.806 1260.93 465.664 1259.73 471.103 1257.5 C 485.527 1254.46 499.901 1249.49 514 1245.19 C 567.649 1228.84 620.376 1208.44 670.932 1184.16 L 715 1162.7 L 725.118 1157.33 L 768.255 1135.75 C 801.099 1119.16 832.638 1100.16 866.366 1085.28 C 875.739 1081.14 885.245 1076.48 895.001 1073.4 L 932.913 1060.39 z"/>
<path transform="translate(0,0)" fill="rgb(181,45,200)" d="M 932.913 1060.39 C 962.667 1051.86 993.109 1046.09 1024 1043.92 L 1024 1044.74 L 1006.12 1048.96 C 962.452 1058.59 922.11 1080.8 881.934 1099.49 C 873.323 1106.1 861.935 1111.03 852.43 1116.49 C 825.507 1131.95 798.378 1148.9 769.946 1161.39 C 769.076 1162.43 768.898 1163 767.542 1163.36 C 761.939 1164.84 751.456 1170.12 746.839 1173.61 C 702.743 1192.29 659.339 1209.59 613.471 1223.48 L 559.101 1238.5 C 551.098 1240.58 541.451 1242 533.987 1245.44 L 455.605 1263.42 L 454.123 1262.4 C 459.806 1260.93 465.664 1259.73 471.103 1257.5 C 485.527 1254.46 499.901 1249.49 514 1245.19 C 567.649 1228.84 620.376 1208.44 670.932 1184.16 L 715 1162.7 L 725.118 1157.33 L 768.255 1135.75 C 801.099 1119.16 832.638 1100.16 866.366 1085.28 C 875.739 1081.14 885.245 1076.48 895.001 1073.4 L 932.913 1060.39 z"/>
<path transform="translate(0,0)" fill="rgb(60,21,150)" d="M 964.226 1212.83 C 969.069 1210.98 974.118 1207.1 978.474 1204.28 C 994.39 1193.97 1008.45 1181.37 1024 1170.72 L 1024 1253.54 L 1024 1289.39 L 1024 1407.99 L 951.702 1406.44 L 876.96 1396.65 C 862.155 1395.47 846.863 1392.13 832.216 1389.59 L 760.298 1376.13 C 747.169 1373.34 734.005 1369.6 720.721 1367.76 L 649.522 1350.71 L 561.109 1329.34 C 563.538 1326.59 567.385 1326.38 570.875 1325.72 L 598.773 1321.5 L 652.897 1312.89 C 660.124 1311.82 671.68 1311.16 678.149 1308.1 C 777.523 1289.86 876.7 1265.19 964.226 1212.83 z"/>
<path transform="translate(0,0)" fill="rgb(33,11,86)" d="M 876.96 1396.65 L 876.429 1395.63 L 924.857 1355.03 C 956.096 1330.57 989.63 1309.15 1024 1289.39 L 1024 1407.99 L 951.702 1406.44 L 876.96 1396.65 z"/>
<path transform="translate(0,0)" fill="url(#Gradient8)" d="M -0 656.402 L 1024 656.224 L 1024 727.577 L 1024 751.018 L 1024 784.455 L 1024 810.077 L 1024 815.436 L 1024 824.208 L 1024 827.243 L 1024 831.51 L 1024 839.884 L 1024 853.653 L 1024 871.06 L 1024 883.004 L 1024 927.719 L 1024 963.075 L 1024 967.924 L 1024 1011.84 L 1024 1043.92 C 993.109 1046.09 962.667 1051.86 932.913 1060.39 L 895.001 1073.4 C 885.245 1076.48 875.739 1081.14 866.366 1085.28 C 832.638 1100.16 801.099 1119.16 768.255 1135.75 L 725.118 1157.33 L 715 1162.7 L 670.932 1184.16 C 620.376 1208.44 567.649 1228.84 514 1245.19 C 499.901 1249.49 485.527 1254.46 471.103 1257.5 C 465.664 1259.73 459.806 1260.93 454.123 1262.4 L 370.492 1282.02 L 359.928 1279.5 L 182.909 1242.7 C 178.086 1243.12 170.834 1241.1 165.944 1240.35 L 120.764 1233.57 L 0 1220.93 L 0 1212.4 L 0 1137.81 L 0 1125.99 L -0 1062.38 L 0 1040.03 L 0 1019.97 L 0 1017.62 L 0 979.293 L -0 975.317 L -0 932.566 L 0 913.558 L 0 895.043 L 0 868.114 L 0 839.34 L -0 836.782 L 0 770.307 L -0 748.011 L 0 702.715 L -0 656.402 z"/>
<path transform="translate(0,0)" fill="rgb(244,242,244)" d="M 609.903 674.5 L 611.351 674.206 L 617.281 678.5 C 615.826 680.536 613.687 681.968 611.732 683.5 C 609.379 683.317 606.733 680.171 605.032 678.5 L 609.903 674.5 z"/>
<path transform="translate(0,0)" fill="rgb(244,242,244)" d="M 673.722 823.496 L 672.574 822.232 L 673.287 821.887 C 675.503 820.804 677.16 819.716 679 818.046 C 681.063 819.734 683.17 821.57 685.602 822.693 L 683.896 824.891 L 682.672 825.916 C 681.145 826.402 680.565 827.04 679.534 828.258 L 679.179 828.687 C 678.077 826.104 675.972 824.993 673.722 823.496 z"/>
<path transform="translate(0,0)" fill="rgb(244,242,244)" d="M 867.267 701.5 L 868.225 701.872 C 868.446 702.798 868.712 703.695 869.242 704.5 C 871.074 707.283 873.497 707.722 876.5 708.322 L 876.401 709.307 C 875.368 709.439 874.434 709.656 873.5 710.144 C 871.103 711.397 869.41 713.808 868.668 716.334 L 868.5 716.977 L 867.936 717.163 C 866.27 716.111 866.413 713.859 865.289 712.5 C 864.408 711.435 861.394 709.85 860.125 709.206 L 859.223 708.761 L 861.179 708.195 C 864.293 707.014 865.63 705.187 866.921 702.292 L 867.267 701.5 z"/>
<path transform="translate(0,0)" fill="rgb(244,242,244)" d="M 336.434 660.5 C 338.846 660.048 341.959 659.545 343.995 661.202 C 346.119 662.931 347.197 665.254 346.967 668 C 346.75 670.596 345.034 671.999 343.136 673.5 C 341.15 674.157 339.1 673.84 337.044 673.709 C 334.265 671.602 333.551 670.73 332.237 667.5 C 333.074 663.8 333.629 663.056 336.434 660.5 z"/>
<path transform="translate(0,0)" fill="rgb(233,228,253)" d="M 337.48 664.5 C 338.376 664.099 338.881 663.91 339.885 663.987 C 342.313 664.171 342.384 664.706 343.919 666.5 L 342.5 669.779 L 342.109 669.917 C 339.579 670.583 338.813 670.847 336.5 669.691 C 336.051 667.514 336.555 666.476 337.48 664.5 z"/>
<path transform="translate(0,0)" fill="rgb(33,11,86)" d="M 116.704 820.036 L 152.766 811.117 C 157.182 809.98 164.306 807.22 168.786 807.419 C 171.116 807.522 176.083 810.357 178.595 811.372 L 210.748 824.472 L 209.015 825.444 L 208.081 824.818 C 206.002 823.846 202.162 823.821 199.822 823.344 C 180.489 819.404 159.949 819.896 140.334 820.916 C 134.147 821.237 128.046 820.685 122.124 822.832 L 116.704 820.036 z"/>
<path transform="translate(0,0)" fill="rgb(33,11,86)" d="M 925.426 812.289 C 935.39 808.6 945.931 804.577 955.5 799.973 C 957.648 798.94 964.272 794.466 966.207 794.393 C 970.445 794.233 987.639 806.692 993.528 808.402 C 1002.35 810.962 1014.7 809.905 1024 810.077 L 1024 815.436 L 965.053 814.534 C 952.134 814.152 938.134 814.601 925.426 812.289 z"/>
<path transform="translate(0,0)" fill="rgb(45,9,131)" d="M 1024 751.018 L 793.5 751.554 L 793.262 750.5 C 805.578 749.758 818.873 746.619 831 744.252 L 869.751 737.297 C 881.007 735.074 893.807 731.218 905.308 732.065 C 913.409 732.662 920.734 736.347 928.316 738.87 C 957.185 748.477 997.27 740.829 1024 727.577 L 1024 751.018 z"/>
<path transform="translate(0,0)" fill="url(#Gradient9)" d="M 262.787 840.591 C 270.473 838.09 278.316 838.743 286.5 839.603 C 292.21 840.203 298.499 839.79 304.285 839.85 L 406.863 840.323 L 456.776 840.234 C 463.298 840.111 471.92 840.793 478.032 838.417 L 478.804 838.1 L 478.857 840.165 L 433.754 857.015 C 428.439 859.116 421.224 863.135 415.576 863.413 C 400.657 859.655 383.531 858.941 368.127 857.016 L 286.172 845.357 L 262.787 840.591 z"/>
<path transform="translate(0,0)" fill="rgb(33,11,86)" d="M 0 702.715 C 55.7018 724.663 116.52 739.449 176.218 744.617 L 230.617 748.549 C 240.973 749.242 252.908 749.36 263 751.571 L -0 748.011 L 0 702.715 z"/>
<path transform="translate(0,0)" fill="url(#Gradient10)" d="M 854.715 817.17 L 899.338 814.512 C 907.898 814.025 917.183 814.744 925.426 812.289 C 938.134 814.601 952.134 814.152 965.053 814.534 L 1024 815.436 L 1024 824.208 L 1024 827.243 L 1024 831.51 L 1024 839.884 L 729.725 840.539 L 576.445 840.572 L 544.707 841.011 C 539.24 841.091 533.03 840.578 527.688 841.729 L 518.214 838.531 L 514.658 836.999 C 525.088 835.025 537.003 835.034 547.684 834.054 L 628.231 827.787 L 628.266 827.56 C 634.324 826.5 640.716 826.348 646.857 826.208 C 654.155 825.74 667.6 826.981 673.722 823.496 C 675.972 824.993 678.077 826.104 679.179 828.687 L 679.534 828.258 C 680.565 827.04 681.145 826.402 682.672 825.916 L 683.896 824.891 L 714.426 824.198 L 854.715 817.17 z"/>
<path transform="translate(0,0)" fill="rgb(104,23,197)" d="M 628.231 827.787 L 628.266 827.56 C 634.324 826.5 640.716 826.348 646.857 826.208 L 647.301 826.523 C 654.52 831.125 667.769 825.863 676 829.5 L 675.5 831 L 675.057 830.894 C 666.782 829.094 656.141 830.637 647.553 830.428 C 645.756 830.385 644.025 829.22 642.326 829.674 L 641.5 828 C 637.302 828.136 632.307 828.833 628.231 827.787 z"/>
<path transform="translate(0,0)" fill="rgb(60,21,150)" d="M 854.715 817.17 L 899.338 814.512 C 907.898 814.025 917.183 814.744 925.426 812.289 C 938.134 814.601 952.134 814.152 965.053 814.534 L 1024 815.436 L 1024 824.208 L 1024 827.243 L 1024 831.51 C 1013.66 831.545 1000.81 832.799 990.808 830.875 C 986.094 829.967 980.539 830.51 975.714 830.521 L 946.841 830.525 C 943.487 830.471 940.161 829.091 936.875 829.827 C 930.295 831.3 921.324 830.258 914.399 830.279 C 913.134 830.283 906.823 830.684 906.137 830.258 C 905.606 829.928 905.003 828.199 904.5 828 C 900.848 826.551 894.342 828.514 889.626 826.839 L 876.25 825.705 C 878.524 824.07 883.713 824.736 886.5 824.51 C 885.807 823.739 885.175 823.515 884.25 823.05 C 888.271 821.268 895.629 821.969 900.134 821.899 C 885.273 819.124 869.352 822.147 854.715 817.17 z"/>
<path transform="translate(0,0)" fill="url(#Gradient11)" d="M 67.8839 828.971 L 116.704 820.036 L 122.124 822.832 C 128.046 820.685 134.147 821.237 140.334 820.916 C 159.949 819.896 180.489 819.404 199.822 823.344 C 202.162 823.821 206.002 823.846 208.081 824.818 L 209.015 825.444 L 210.748 824.472 L 244.735 836.5 L 262.787 840.591 L 286.172 845.357 L 368.127 857.016 C 383.531 858.941 400.657 859.655 415.576 863.413 L 400.521 869.022 L 363.564 868.337 L 347.787 867.975 C 342.262 869.437 332.716 868.128 326.733 868.124 L 265.936 868.086 L 0 868.114 L 0 839.34 L -0 836.782 L 67.8839 828.971 z"/>
<path transform="translate(0,0)" fill="rgb(60,21,150)" d="M 347.787 867.975 C 350.282 866.812 352.993 867.556 355.51 866.5 C 352.076 866.513 348.008 867.025 345.148 864.847 L 345.48 864.486 C 348.348 861.634 372.445 863.058 377.741 863.07 C 383.335 864.182 388.38 865.588 393.747 867.473 L 363.564 868.337 L 347.787 867.975 z"/>
<path transform="translate(0,0)" fill="rgb(45,9,131)" d="M 228.585 835.612 C 233.151 835.907 240.762 838.285 244.735 836.5 L 262.787 840.591 L 286.172 845.357 L 284.509 845.902 C 273.053 848.371 256.11 843.637 244.5 841.89 C 239.522 841.141 234.143 843.359 229.565 840.367 C 226.852 838.594 224.264 837.967 221.156 837.277 L 220.5 836 L 228.585 835.612 z"/>
<path transform="translate(0,0)" fill="rgb(45,9,131)" d="M 67.8839 828.971 L 116.704 820.036 L 122.124 822.832 L 123.424 823.982 L 122.589 824.303 L 119.505 825.75 C 121.141 827 129.233 826.956 131.51 826.5 C 138.019 825.197 144.27 825.807 151 825.827 C 157.816 825.847 164.869 825.291 171.627 826.138 L 171.764 826.601 L 169.25 827.75 L 171.379 828.526 C 166.092 828.219 158.526 827.055 153.658 829.114 C 156.179 829.983 158.373 830.699 161.076 830.801 L 154.5 832.069 L 153.5 831 L 152 832.238 C 149.53 831.671 149.823 830.249 147.292 831.184 C 146.195 832.471 145.885 833.112 144.245 833.631 C 146.542 833.627 149.346 832.969 150.995 834.609 C 143.6 834.942 131.492 836.698 124.651 834.11 L 92.5 835.166 L 91.3514 833.599 L 90.6648 833.958 C 86.8876 835.856 83.5038 835.254 79.4529 835.5 L 57.3756 836.453 L 18.1103 839.327 C 12.3847 839.603 5.634 840.257 0 839.34 L -0 836.782 L 67.8839 828.971 z"/>
<path transform="translate(0,0)" fill="url(#Gradient12)" d="M 527.688 841.729 C 533.03 840.578 539.24 841.091 544.707 841.011 L 576.445 840.572 L 729.725 840.539 L 1024 839.884 L 1024 853.653 L 962.21 859.144 C 955.121 853.036 946.747 847.785 937.49 846.065 L 921.851 849.579 C 919.316 850.584 908.775 856.446 906.847 856.368 C 891.296 868.806 875.993 882.659 858.674 892.572 C 840.879 902.757 820.762 907.005 801.086 912.298 L 737.784 928.513 L 651.357 889.407 L 606.042 871.378 L 590.712 864.874 C 582.477 863.651 573.541 858.714 565.726 855.605 L 527.688 841.729 z"/>
<path transform="translate(0,0)" fill="rgb(104,23,197)" d="M 590.712 864.874 L 733.088 867.368 L 722.34 868.111 L 631.664 869.757 C 625.777 869.894 610.511 868.564 606.042 871.378 L 590.712 864.874 z"/>
<path transform="translate(0,0)" fill="rgb(104,23,197)" d="M 937.49 846.065 C 946.747 847.785 955.121 853.036 962.21 859.144 L 1024 853.653 L 1024 871.06 L 1024 883.004 L 1024 927.719 L 1024 963.075 L 1024 967.924 L 1024 1011.84 L 869.867 976.153 L 846.202 969.084 L 820.91 960.761 L 806.604 955.775 L 737.784 928.513 L 801.086 912.298 C 820.762 907.005 840.879 902.757 858.674 892.572 C 875.993 882.659 891.296 868.806 906.847 856.368 C 908.775 856.446 919.316 850.584 921.851 849.579 L 937.49 846.065 z"/>
<path transform="translate(0,0)" fill="rgb(60,21,150)" d="M 937.49 846.065 L 931.884 858.394 L 931.119 859.297 C 927.338 865.674 926.06 872.563 923.536 879.431 C 919.138 879.663 913.195 885.502 909.598 888.047 C 897.143 896.861 834.799 947.879 823.939 945.797 C 851.609 928.523 874.702 907.901 897.437 884.668 C 905.481 876.448 914.065 868.337 920.8 859 C 922.872 856.128 922.163 852.931 921.851 849.579 L 937.49 846.065 z"/>
<path transform="translate(0,0)" fill="rgb(45,9,131)" d="M 923.536 879.431 C 926.06 872.563 927.338 865.674 931.119 859.297 C 929.773 866.93 925.986 880.267 930.581 886.89 C 933.862 891.619 937.769 895.908 941.15 900.566 C 944.387 905.027 947.45 910.723 951.593 914.353 L 970.127 936.192 C 966.555 945.431 960.742 947.938 952.32 951.678 C 941.32 956.562 929.51 959.654 918 963.091 C 902.026 967.86 886.168 972.596 869.867 976.153 L 846.202 969.084 L 883.776 956.819 C 895.982 952.57 910.459 947.48 920.224 938.752 C 924.329 935.083 924.694 932.676 924.91 927.5 C 923.314 925.203 922.581 923.975 919.856 922.927 C 904.099 916.868 856.012 943.975 839.351 951.487 C 841.213 947.194 855.696 941.239 860 938.858 L 888.043 922.063 C 896.584 916.596 905.75 910.505 912.145 902.547 C 917.601 895.759 920.975 887.683 923.536 879.431 z"/>
<path transform="translate(0,0)" fill="rgb(33,11,86)" d="M 937.49 846.065 C 946.747 847.785 955.121 853.036 962.21 859.144 L 1024 853.653 L 1024 871.06 L 1024 883.004 L 1024 927.719 L 1024 963.075 L 1024 967.924 L 1024 1011.84 L 869.867 976.153 C 886.168 972.596 902.026 967.86 918 963.091 C 929.51 959.654 941.32 956.562 952.32 951.678 C 960.742 947.938 966.555 945.431 970.127 936.192 L 951.593 914.353 C 947.45 910.723 944.387 905.027 941.15 900.566 C 937.769 895.908 933.862 891.619 930.581 886.89 C 925.986 880.267 929.773 866.93 931.119 859.297 L 931.884 858.394 L 937.49 846.065 z"/>
<path transform="translate(0,0)" fill="rgb(223,162,177)" d="M 979.947 871.455 C 984.995 870.375 990.875 870.93 996.048 870.944 L 1024 871.06 L 1024 883.004 C 1007.63 882.879 994.384 878.853 979.947 871.455 z"/>
<path transform="translate(0,0)" fill="rgb(171,83,146)" d="M 962.21 859.144 L 1024 853.653 L 1024 871.06 L 996.048 870.944 C 990.875 870.93 984.995 870.375 979.947 871.455 L 962.21 859.144 z"/>
<path transform="translate(0,0)" fill="rgb(104,23,197)" d="M 478.857 840.165 L 498.449 836.947 C 486.974 842.559 470.83 853.248 466.451 865.902 C 464.092 872.72 464.23 881.949 467.503 888.409 C 469.169 891.698 471.156 895.036 473.463 897.905 C 486.741 916.931 504.402 934.873 499.553 960.454 C 495.618 981.214 479.992 996.393 463.031 1007.46 C 441.34 1021.62 417.861 1031.69 393.53 1040.28 C 363.332 1029.99 331.188 1019.04 299.796 1013.49 C 284.487 1008.64 267.553 1006.69 251.729 1003.87 L 177.792 1000.11 L 176.772 999.559 L 82.7493 1005.46 L 0 1019.97 L 0 1017.62 L 0 979.293 L -0 975.317 L -0 932.566 L 0 913.558 L 0 895.043 L 0 868.114 L 265.936 868.086 L 326.733 868.124 C 332.716 868.128 342.262 869.437 347.787 867.975 L 363.564 868.337 L 400.521 869.022 L 415.576 863.413 C 421.224 863.135 428.439 859.116 433.754 857.015 L 478.857 840.165 z"/>
<path transform="translate(0,0)" fill="url(#Gradient13)" d="M 347.787 867.975 L 363.564 868.337 L 400.521 869.022 L 344.797 891.055 C 339.237 893.116 332.712 896.467 327.005 897.496 L 303.658 905.508 C 301.998 906.049 297.909 907.875 296.394 907.727 L 235.169 925.913 C 229.23 927.546 220.776 930.99 214.721 931.005 C 202.213 935.442 189.056 938.002 176.231 941.367 C 173.398 942.11 167.239 942.857 164.983 944.425 L 134.724 952.266 L 38.1078 973.338 L 0 979.293 L -0 975.317 L -0 932.566 L 0 913.558 L 0 895.043 L 0 868.114 L 265.936 868.086 L 326.733 868.124 C 332.716 868.128 342.262 869.437 347.787 867.975 z"/>
<path transform="translate(0,0)" fill="rgb(253,238,202)" d="M -0 975.317 L 4.5 974.51 L 4.14193 973.344 C 4.68163 972.687 5.05985 972.437 5.86613 972.096 C 8.65759 970.914 10.9564 971.667 13.6211 972.665 L 14.5 973 L 16.5 971.51 C 19.6084 972.319 22.8288 971.93 26 971.755 L 25.853 973.031 L 23 973.51 L 27 974 L 28.5 972.51 L 38.1078 973.338 L 0 979.293 L -0 975.317 z"/>
<path transform="translate(0,0)" fill="rgb(235,203,181)" d="M 1.23324 912.743 C 3.97525 911.71 7.34959 911.853 9.72893 910.826 C 11.0605 910.251 12.5704 910.457 14 910.5 L 14.51 909.5 L 36.2328 911.056 C 34.8891 912.545 32.328 912.189 30.3458 912.346 L 34.75 915.505 C 36.543 914.078 38.1173 914.648 40.3163 914.792 L 40.2666 916.234 L 43 916.5 L 44 915.51 C 46.5919 915.865 46.2972 916.915 48 917.51 C 50.0355 918.221 50.7474 915.798 53.75 917.505 C 55.439 916.161 56.5187 916.977 58 915.51 L 59.4251 916.083 L 58.5582 918.515 L 55.7062 918.206 L 55.656 918.822 L 57 920 C 58.2812 919.843 60.6368 919.88 61.5 919 L 61.5 917.51 C 62.5639 917.66 63.0773 917.782 64.0608 918.188 C 68.348 919.955 71.1443 917.224 75.6182 920.324 C 74.0876 920.707 72.6931 921.108 71.25 921.75 L 74.868 921.738 C 76.6457 921.716 77.552 921.682 79 922.755 L 82.5 922.51 L 82.8827 923.554 L 81.1975 924.469 L 1.23324 912.743 z"/>
<path transform="translate(0,0)" fill="rgb(235,203,181)" d="M 214.721 931.005 C 214.428 930.684 214.566 930.878 214.331 930.31 C 214.111 929.777 216.059 928.61 216.51 927.5 C 218.056 926.494 219.175 925.844 221 925.51 L 221.209 927.234 L 222.5 928 L 224.5 924.51 L 226.225 926.037 C 227.616 925.98 228.711 925.755 229.875 924.979 L 230.5 924.51 L 233.5 925 L 235.005 923.005 C 236.352 923.546 238.53 922.51 240.5 922.51 L 236.168 921.29 L 237.5 918.51 L 243.5 918.51 C 244.697 917.349 245.35 916.841 247 916.51 L 247.209 918.234 C 248.616 919.345 249.75 919.371 251.5 919.51 L 250.007 918.656 L 250.5 917.51 L 252.75 917.505 L 250.168 916.29 C 250.906 915.889 251.481 915.563 252.083 914.961 L 252.5 914.51 C 256.594 914.763 258.668 911.929 261.926 911.918 L 262.51 912 L 263.5 910.776 C 272.398 910.184 288.259 904.306 296.394 907.727 L 235.169 925.913 C 229.23 927.546 220.776 930.99 214.721 931.005 z"/>
<path transform="translate(0,0)" fill="rgb(181,45,200)" d="M 1.23324 912.743 L 81.1975 924.469 L 82.0547 924.664 C 95.9887 927.77 110.807 928.644 124.981 930.354 C 129.531 930.903 135.811 930.729 139.953 932.556 L -0 932.566 L 0 913.558 L 1.23324 912.743 z"/>
<path transform="translate(0,0)" fill="rgb(33,11,86)" d="M 498.449 836.947 C 503.992 836.518 509.113 836.231 514.658 836.999 L 518.214 838.531 L 527.688 841.729 L 565.726 855.605 C 573.541 858.714 582.477 863.651 590.712 864.874 L 606.042 871.378 L 651.357 889.407 L 737.784 928.513 L 806.604 955.775 L 820.91 960.761 L 846.202 969.084 L 869.867 976.153 L 1024 1011.84 L 1024 1043.92 C 993.109 1046.09 962.667 1051.86 932.913 1060.39 L 895.001 1073.4 C 885.245 1076.48 875.739 1081.14 866.366 1085.28 C 832.638 1100.16 801.099 1119.16 768.255 1135.75 L 725.118 1157.33 L 715 1162.7 L 574.25 1109.79 L 393.53 1040.28 C 417.861 1031.69 441.34 1021.62 463.031 1007.46 C 479.992 996.393 495.618 981.214 499.553 960.454 C 504.402 934.873 486.741 916.931 473.463 897.905 C 471.156 895.036 469.169 891.698 467.503 888.409 C 464.23 881.949 464.092 872.72 466.451 865.902 C 470.83 853.248 486.974 842.559 498.449 836.947 z"/>
<path transform="translate(0,0)" fill="rgb(0,0,0)" d="M 518.214 838.531 L 527.688 841.729 L 565.726 855.605 C 573.541 858.714 582.477 863.651 590.712 864.874 L 606.042 871.378 L 651.357 889.407 L 737.784 928.513 L 806.604 955.775 L 820.91 960.761 L 846.202 969.084 L 869.867 976.153 L 1024 1011.84 L 1024 1043.92 C 993.109 1046.09 962.667 1051.86 932.913 1060.39 C 922.501 1049.4 909.045 1041.59 895.995 1034.12 C 842.089 1003.26 782.928 986.75 725.491 964.283 C 690.14 950.455 656.02 935.173 622.777 916.777 C 598.31 903.237 573.202 887.803 552.752 868.58 C 547.273 863.43 542.534 857.241 537.712 851.472 C 536.348 849.841 534.096 846.221 532.426 845.119 C 529.602 843.253 523.927 842.256 520.561 841.504 L 519.06 842.605 L 518.452 846.857 L 518.214 838.531 z"/>
<path transform="translate(0,0)" fill="rgb(45,9,131)" d="M 473.463 897.905 C 482.879 904.728 491.367 911.076 501.656 916.659 L 502.358 917.138 C 513.756 924.817 527.948 930.017 540.471 935.684 C 572.878 950.35 612.803 967.515 635.393 995.875 C 641.29 1003.28 646.79 1013.14 648.595 1022.5 C 651.361 1036.84 646.305 1052.7 638.127 1064.44 C 623.474 1085.49 597.205 1099.6 574.25 1109.79 L 393.53 1040.28 C 417.861 1031.69 441.34 1021.62 463.031 1007.46 C 479.992 996.393 495.618 981.214 499.553 960.454 C 504.402 934.873 486.741 916.931 473.463 897.905 z"/>
<path transform="translate(0,0)" fill="rgb(33,11,86)" d="M 176.772 999.559 L 177.792 1000.11 L 251.729 1003.87 C 267.553 1006.69 284.487 1008.64 299.796 1013.49 C 331.188 1019.04 363.332 1029.99 393.53 1040.28 L 574.25 1109.79 L 715 1162.7 L 670.932 1184.16 C 620.376 1208.44 567.649 1228.84 514 1245.19 C 499.901 1249.49 485.527 1254.46 471.103 1257.5 C 465.664 1259.73 459.806 1260.93 454.123 1262.4 L 370.492 1282.02 L 359.928 1279.5 L 182.909 1242.7 C 178.086 1243.12 170.834 1241.1 165.944 1240.35 L 120.764 1233.57 L 0 1220.93 L 0 1212.4 L 0 1137.81 L 0 1125.99 L -0 1062.38 L 0 1040.03 L 0 1019.97 L 82.7493 1005.46 L 176.772 999.559 z"/>
<path transform="translate(0,0)" fill="rgb(0,0,0)" d="M 177.792 1000.11 L 251.729 1003.87 C 267.553 1006.69 284.487 1008.64 299.796 1013.49 C 331.188 1019.04 363.332 1029.99 393.53 1040.28 L 574.25 1109.79 L 715 1162.7 L 670.932 1184.16 C 660.524 1175.64 650.371 1167.19 638.843 1160.18 C 581.081 1125.06 510.293 1116.17 445.084 1103.53 C 418.711 1098.42 391.991 1093.31 367 1083.17 C 350.594 1076.52 334.2 1068.53 319.418 1058.76 C 297.013 1043.95 275.527 1020.59 248.858 1014.23 C 228.753 1005 203.587 1002.35 181.65 1002.05 L 177.792 1000.11 z"/>
<path transform="translate(0,0)" fill="rgb(45,9,131)" d="M 223.251 1049.74 L 225.467 1048.35 C 221.945 1059.3 219.451 1070.12 224.883 1081.08 C 233.475 1098.42 259.512 1109.33 275.793 1118.06 C 317.464 1140.39 409.131 1181.57 388.996 1241.99 C 384.135 1256.58 372.402 1270.71 359.928 1279.5 L 182.909 1242.7 C 187.075 1239.24 194.163 1237.62 199.199 1235.31 C 218.475 1226.47 238.599 1213.87 250.257 1195.63 C 269.164 1166.04 247.459 1135.08 227.771 1112.56 C 221.694 1105.61 211.8 1097.27 209.879 1088.03 L 209.772 1087.5 C 207.062 1074.34 218.521 1062.01 222.981 1050.45 L 223.251 1049.74 z"/>
<path transform="translate(0,0)" fill="rgb(60,21,150)" d="M 176.772 999.559 L 177.792 1000.11 L 181.65 1002.05 C 203.587 1002.35 228.753 1005 248.858 1014.23 C 251.089 1017.66 252.882 1021.29 251.8 1025.5 C 251.369 1027.18 250.377 1028.77 249.466 1030.22 C 242.052 1037.39 234.101 1042.8 225.467 1048.35 L 223.251 1049.74 L 222.981 1050.45 C 218.521 1062.01 207.062 1074.34 209.772 1087.5 L 209.879 1088.03 C 211.8 1097.27 221.694 1105.61 227.771 1112.56 C 247.459 1135.08 269.164 1166.04 250.257 1195.63 C 238.599 1213.87 218.475 1226.47 199.199 1235.31 C 194.163 1237.62 187.075 1239.24 182.909 1242.7 C 178.086 1243.12 170.834 1241.1 165.944 1240.35 L 120.764 1233.57 L 0 1220.93 L 0 1212.4 L 0 1137.81 L 0 1125.99 L -0 1062.38 L 0 1040.03 L 0 1019.97 L 82.7493 1005.46 L 176.772 999.559 z"/>
<path transform="translate(0,0)" fill="rgb(45,9,131)" d="M 176.772 999.559 L 177.792 1000.11 L 181.65 1002.05 C 203.587 1002.35 228.753 1005 248.858 1014.23 C 251.089 1017.66 252.882 1021.29 251.8 1025.5 C 251.369 1027.18 250.377 1028.77 249.466 1030.22 C 242.052 1037.39 234.101 1042.8 225.467 1048.35 L 223.251 1049.74 L 186.082 1069.26 L 0 1137.81 L 0 1125.99 L -0 1062.38 L 0 1040.03 L 0 1019.97 L 82.7493 1005.46 L 176.772 999.559 z"/>
<path transform="translate(0,0)" fill="rgb(33,11,86)" d="M 0 1040.03 C 10.7679 1036.63 21.9602 1034.85 33.0198 1032.69 C 61.1832 1027.19 89.3901 1023.89 117.969 1021.61 C 122.584 1021.24 132.291 1019.2 136.5 1020.79 C 132.85 1022.87 126.032 1023.24 121.743 1024.17 L 93.146 1031.2 C 61.7535 1040.01 30.0933 1049.76 -0 1062.38 L 0 1040.03 z"/>
<path transform="translate(0,0)" fill="rgb(181,45,200)" d="M 181.65 1002.05 C 203.587 1002.35 228.753 1005 248.858 1014.23 C 251.089 1017.66 252.882 1021.29 251.8 1025.5 C 251.369 1027.18 250.377 1028.77 249.466 1030.22 C 242.052 1037.39 234.101 1042.8 225.467 1048.35 L 223.251 1049.74 L 186.082 1069.26 L 0 1137.81 L 0 1125.99 L 9.60962 1123.43 C 72.3445 1105.5 137.375 1085.37 195.404 1055.18 C 206.512 1049.4 223.931 1041.44 229.989 1029.97 C 231.484 1027.14 231.059 1024.91 230.2 1021.95 C 218.969 1008.45 197.529 1004.47 181 1002.71 L 181.65 1002.05 z"/>
<path transform="translate(0,0)" fill="url(#Gradient14)" d="M -0 257.805 L 0 -0 L 1024 0 L 1024 287.335 L 1024 364.129 L 1024 553.808 L 1024 606.514 L 1024 634.144 L 1024 656.224 L -0 656.402 L 0 631.864 L 0 598.319 L -0 575.531 L -0 502.967 L 0 490.375 L 0 396.12 L -0 318.454 L -0 257.805 z"/>
<path transform="translate(0,0)" fill="rgb(244,242,244)" d="M 529.51 539.5 C 531.628 540.031 533.58 541.488 535.103 543 C 533.176 545.26 531.389 546.719 528.5 547.186 C 526.689 545.172 524.094 545.078 522.193 543 C 524.078 541.256 527.139 540.447 529.51 539.5 z"/>
<path transform="translate(0,0)" fill="rgb(244,242,244)" d="M 577.993 163.5 C 579.276 163.15 580.682 163.041 582 162.846 L 585.175 165.5 C 585.044 169.062 585.064 168.983 582.5 171.463 L 579.5 172.091 C 577.153 169.794 576.24 169.395 575.895 166 L 577.993 163.5 z"/>
<path transform="translate(0,0)" fill="rgb(181,45,200)" d="M 45.8858 357.5 C 47.3725 357.218 48.638 356.824 50 357.834 C 52.2018 359.466 51.9934 361.005 52.1811 363.5 L 49.5 366.349 L 45.5 366.38 L 42.8813 363.5 C 43.284 360.343 43.871 359.805 45.8858 357.5 z"/>
<path transform="translate(0,0)" fill="rgb(181,45,200)" d="M 996.75 184.5 C 997.561 184.071 998.148 183.802 999.081 183.742 C 1002.58 183.516 1003.18 183.842 1005.73 186.099 C 1006.17 189.818 1005.6 190.404 1003.78 193.5 C 1002.39 194.199 1000.54 194.215 999 194.385 C 996.895 193.371 995.892 192.411 994.561 190.5 C 994.718 187.283 994.737 186.993 996.75 184.5 z"/>
<path transform="translate(0,0)" fill="rgb(196,219,197)" d="M 917.75 165.5 C 921.357 165.617 921.735 166.241 924.349 168.5 L 924.309 173 C 922.953 175.149 921.805 175.915 919.5 176.941 C 918.415 176.745 917.315 176.53 916.375 175.922 C 914.317 174.592 913.092 172.356 912.649 170 C 914.2 167.345 915.14 166.934 917.75 165.5 z"/>
<path transform="translate(0,0)" fill="rgb(226,194,243)" d="M 161.514 378.5 L 165.5 377.882 C 168.249 379.805 168.817 380.224 170.073 383.5 C 169.152 386.7 168.297 387.331 165.915 389.5 L 162.5 389.883 C 159.929 387.596 159.145 386.892 158.038 383.5 C 158.901 380.566 159.086 380.373 161.514 378.5 z"/>
<path transform="translate(0,0)" fill="rgb(233,228,253)" d="M 258.361 485.5 L 262.5 484.97 C 265.42 486.384 265.636 486.664 267.235 489.5 C 266.76 493.349 266.522 493.676 263.5 496.105 C 262.225 496.453 260.96 496.408 259.645 496.446 C 256.844 494.68 256.378 494.06 255.112 491 C 255.826 488.057 256.194 487.649 258.361 485.5 z"/>
<path transform="translate(0,0)" fill="rgb(226,194,243)" d="M 988.439 387.5 C 989.195 388.195 989.71 388.616 990.026 389.618 C 991.032 392.809 993.832 394.495 996.37 396.5 C 994.236 397.964 991.347 399.523 990.386 402.029 C 989.806 403.545 989.341 404.315 988.222 405.5 C 985.898 400.141 984.175 399.355 979.236 396.662 C 979.62 396.16 979.93 395.853 980.485 395.541 C 984.345 393.372 986.128 391.863 988.227 387.906 L 988.439 387.5 z"/>
<path transform="translate(0,0)" fill="rgb(226,194,243)" d="M 295.045 342.89 C 297.352 340.004 298.069 339.1 301.5 337.738 C 304.508 338.261 306.38 339.02 308.351 341.5 C 309.105 342.448 309.534 343.742 309.924 344.872 L 309.225 346.255 C 307.272 349.904 305.795 350.865 302 352.046 C 299.943 351.764 298.522 351.375 297.031 349.844 C 295.064 347.825 295.084 345.536 295.045 342.89 z"/>
<path transform="translate(0,0)" fill="rgb(0,0,0)" d="M 129.84 45.851 C 129.562 44.3062 129.524 43.1774 129.862 41.6388 L 130.51 38.5 L 128.51 35.5 L 132.005 32.005 C 134.086 30.528 134.538 28.7394 136.286 27.13 C 138.022 25.5317 138.712 25.51 141 25.51 C 141.786 24.7592 142.515 24.0844 143.099 23.1606 L 143.5 22.51 C 146.711 22.51 148.445 21.51 151.5 21.51 L 150.5 19.6446 C 155.274 18.787 162.922 18.4108 167.334 20.7082 C 163.993 20.9857 161.347 20.9166 158.047 20.4527 C 156.037 20.17 155.64 20.9052 154.114 22.1136 L 155.5 22.51 L 156.5 21.51 C 158.673 21.51 159.311 21.4024 161.25 22.505 C 162.799 21.9974 163.499 21.9338 165.078 22.382 C 165.909 22.6178 166.378 21.259 167.796 21.3846 C 170.644 21.6368 172.465 24.2452 175.5 24.0682 C 177.272 25.5695 178.854 26.8221 180.032 28.8675 L 178 30.51 L 181 31.51 C 183.061 33.4925 183.259 36.0214 183.725 38.7015 C 176.152 31.4524 170.578 24.4772 158.89 24.8381 C 149.626 25.1241 143.496 25.9446 136.789 33.1894 C 133.375 36.8768 132.012 41.3998 129.84 45.851 z"/>
<path transform="translate(0,0)" fill="rgb(33,11,86)" d="M 891.652 181.152 C 891.21 180.113 890.492 178.816 890.458 177.681 L 890.5 171 C 890.529 169.865 890.631 169.265 890.188 168.191 L 889.826 167.34 C 889.262 165.6 889.54 164.955 890.5 163.51 C 890.507 161.399 890.71 160.8 889.51 159 L 890.5 157.51 L 889.952 156.34 C 890.352 154.62 895.041 149.404 896.679 148.349 C 897.411 147.878 897.963 147.673 898.449 146.92 L 898.652 146.5 L 899.697 146.32 C 900.081 147.295 900.207 147.793 901 148.51 C 902.591 147.715 903.181 146.613 904.115 145.131 L 904.5 144.51 L 907.505 144.25 L 904.425 142.429 C 906.888 141.873 907.918 141.179 910.25 142.505 C 912.108 141.026 913.462 141.869 915.5 140.51 C 919.294 140.51 922.586 140.098 926 141.5 C 927.466 142.102 930.016 141.11 931.838 141.813 C 932.973 142.251 932.329 142.149 933.487 142.193 C 937.433 142.343 938.365 144.643 941.658 145.357 L 942.5 145.51 C 945.122 148.441 947.799 151.166 949.974 154.459 L 949.069 155.744 L 947 154.5 L 946.492 155.094 C 947.098 155.722 949.407 158.168 949.405 158.998 C 949.404 159.436 948.108 160.879 947.921 161.502 C 947.526 162.814 948.333 165.709 948.553 167.121 C 943.988 158.081 940.998 152.816 931.433 148.54 C 925.199 145.753 915.309 146.38 909.097 148.798 C 904.971 150.405 900.031 153.759 897.441 157.35 C 891.865 165.085 891.62 171.964 891.652 181.152 z"/>
<path transform="translate(0,0)" fill="rgb(60,21,150)" d="M 738.045 294.384 L 737.73 293.793 C 737.672 292.373 737.632 291.207 738.51 290 C 740.155 287.738 740.731 287.059 743.5 286.51 C 743.184 289.346 744.137 290.33 745.495 292.75 L 748.5 293.51 C 749.298 293.258 749.984 293 750.83 292.996 C 752.096 292.991 753.256 292.588 754.5 292.51 L 756 292.5 C 758.198 291.935 761.703 292.243 763.5 291.51 L 764.188 291.132 C 766.929 289.753 769.792 291.026 772.53 291.847 L 763.067 293.403 C 760.224 293.698 756.971 293.651 754.5 295.184 L 754.54 295.808 C 754.856 301.758 754.629 306.701 750.469 311.284 C 748.151 313.836 744.966 315.282 741.5 315.412 C 737.89 315.548 734.494 313.464 732.057 310.954 C 729.097 307.905 727.751 303.155 727.914 298.952 L 727.944 298.5 C 729.587 297.321 729.927 297.26 731.956 297.122 L 733.419 296.732 C 735.093 296.445 736.615 295.275 738.045 294.384 z"/>
<path transform="translate(0,0)" fill="rgb(244,242,244)" d="M 738.045 294.384 C 739.236 293.008 740.335 291.405 741.923 290.5 C 744.355 294.316 746.294 296.397 750.325 298.5 C 746.261 301.412 744.803 304.271 741.5 307.452 L 741.177 306.707 C 739.295 302.501 732.911 300.234 731.956 297.122 L 733.419 296.732 C 735.093 296.445 736.615 295.275 738.045 294.384 z"/>
<path transform="translate(0,0)" fill="rgb(33,11,86)" d="M 295.045 342.89 C 292.311 341.468 290.733 341.149 287.751 342.543 C 285.075 343.794 282.706 341.869 280 343.755 C 278.84 342.879 278.972 342.932 278.768 341.458 C 278.328 338.295 277.77 333.57 278.51 330.5 L 278.93 330.023 C 280.142 328.616 280.737 327.849 281.005 326.005 C 282.576 324.719 284.094 323.46 285.51 322 L 287 320.51 L 294.51 320.5 L 294.23 319.23 L 291.684 319.727 L 291.5 318.51 C 292.588 317.694 293.088 317.52 294.42 317.174 C 296.741 316.573 298.461 315.281 300 313.5 C 303.675 313.419 306.901 312.93 310.047 315.057 C 311.285 315.894 316.933 320.569 317.464 320.679 C 321.351 321.492 325.283 324.684 327.981 327.452 L 327.317 328.498 L 325.679 328.343 C 327.803 331.46 328.038 335.525 327.414 339.346 C 327.285 340.135 326.874 340.818 326.5 341.51 L 325.879 341.288 C 321.698 339.925 316.447 340.755 312 340.755 C 310.56 342.358 310.377 342.762 309.924 344.872 C 309.534 343.742 309.105 342.448 308.351 341.5 C 306.38 339.02 304.508 338.261 301.5 337.738 C 298.069 339.1 297.352 340.004 295.045 342.89 z"/>
<path transform="translate(0,0)" fill="rgb(33,11,86)" d="M 55.9262 229.521 L 55.8431 228.479 C 55.6332 226.903 54.373 224.141 53.0858 223.177 L 52.654 222.859 C 51.4792 221.588 50.9502 219.689 50.8636 218 C 50.5067 211.035 53.9172 201.856 58.1943 196.5 C 59.7386 194.566 61.9362 193.454 63.5881 191.688 C 67.8287 187.154 72.7593 187.276 78.5 186.161 C 82.6566 185.354 92.9127 186.182 96.4328 188.19 C 102.325 191.55 106.652 192.922 110.554 199.173 C 111.91 201.344 112.422 203.924 113.723 206.018 L 113.979 206.4 C 115.483 209.43 115.206 215.885 114.115 219 L 109.873 223.157 C 106.474 222.891 101.529 223.098 98.5584 221.5 L 99.1168 220.674 C 101.581 216.972 102.55 213.8 101.551 209.373 C 100.553 204.958 97.4396 201.737 93.69 199.402 C 88.8736 196.403 84.2948 195.905 78.8686 197.297 C 74.2535 198.482 70.4757 201.143 68.0815 205.319 C 65.5933 209.659 65.6999 213.671 66.259 218.5 L 69.1581 223 C 65.1426 225.591 60.2683 227.485 55.9262 229.521 z"/>
<path transform="translate(0,0)" fill="url(#Gradient15)" d="M 787.467 345.497 C 804.322 351.702 817.939 364.709 825.445 380.977 C 832.887 397.108 832.865 415.563 826.655 432.118 C 820.341 448.949 807.973 461.97 791.538 469.317 C 776.62 475.987 760.497 475.668 745.359 469.728 C 729.471 463.492 715.407 449.984 708.731 434.259 L 707.451 430.714 C 720.206 443.673 733.001 452.02 751.766 452.149 C 760.028 452.206 767.575 450.961 775.235 447.667 C 781.593 445.519 787.288 441.754 792.179 437.226 C 805.141 425.227 811.556 410.103 812.209 392.647 L 811.966 385.366 C 810.808 367.357 800.125 356.588 787.467 345.497 z"/>
<path transform="translate(0,0)" fill="rgb(45,9,131)" d="M 0 490.375 L 251.859 486.346 C 253.687 488.769 252.135 491.583 252.921 494.3 C 253.437 496.085 256.117 498.05 257.5 499.247 C 262.311 499.333 263.909 499.911 267.5 496.49 C 270.163 493.953 270.412 491.229 270.654 487.721 C 275.725 485.706 286.495 487.386 292.124 487.535 C 360.62 489.352 428.398 498.23 496.172 507.954 C 481.84 510.705 464.508 508.996 449.819 508.981 L 346.76 508.306 L 251.518 508.127 L 107.662 504.823 L 34.8612 504.166 C 25.2547 504.141 15.0335 505.155 5.53876 504.537 C 3.62982 504.412 1.76981 503.645 -0 502.967 L 0 490.375 z"/>
<path transform="translate(0,0)" fill="url(#Gradient16)" d="M 747.637 341.702 C 759.116 339.479 775.687 338.315 786.267 344.482 C 786.96 344.886 786.997 344.987 787.467 345.497 C 800.125 356.588 810.808 367.357 811.966 385.366 L 812.209 392.647 C 811.556 410.103 805.141 425.227 792.179 437.226 C 787.288 441.754 781.593 445.519 775.235 447.667 C 767.575 450.961 760.028 452.206 751.766 452.149 C 733.001 452.02 720.206 443.673 707.451 430.714 L 706.507 430.182 C 702.094 424.969 701.425 410.044 701.95 403.564 C 700.35 395.735 704.008 383.699 707.274 376.729 C 715.636 358.884 729.431 348.327 747.637 341.702 z"/>
<path transform="translate(0,0)" fill="rgb(60,21,150)" d="M 55.9262 229.521 C 60.2683 227.485 65.1426 225.591 69.1581 223 L 66.259 218.5 C 65.6999 213.671 65.5933 209.659 68.0815 205.319 C 70.4757 201.143 74.2535 198.482 78.8686 197.297 C 84.2948 195.905 88.8736 196.403 93.69 199.402 C 97.4396 201.737 100.553 204.958 101.551 209.373 C 102.55 213.8 101.581 216.972 99.1168 220.674 L 98.5584 221.5 C 101.529 223.098 106.474 222.891 109.873 223.157 C 118.854 224.637 127.4 226.518 135.891 229.865 C 160.33 239.5 181.44 255.119 207.455 261.527 C 234.698 268.237 262.877 256.817 290.39 260.056 C 317.997 263.306 343.188 279.092 370.043 284.937 L 482.867 329.077 C 470.495 329.059 458.275 326.82 445.999 325.47 L 355.258 313.107 C 338.606 310.533 321.992 307.036 305.196 305.537 C 288.679 304.063 270.638 304.605 254.56 308.759 C 242.311 311.923 231.146 316.453 218.302 316.972 C 192.572 318.011 166.398 313.47 140.745 311.619 C 106.313 309.135 72.3111 310.33 38 313.771 C 25.396 315.035 12.4373 316.039 -0 318.454 L -0 257.805 L 55.9262 229.521 z"/>
<path transform="translate(0,0)" fill="rgb(244,242,244)" d="M 81.0679 207.5 C 82.5904 207.001 84.3957 207.006 86 206.871 C 88.1292 208.478 88.8645 208.929 89.8658 211.5 C 89.2056 214.902 89.0973 215.079 86.5 217.375 L 83.5 218.23 C 80.8352 217.721 79.5851 216.337 77.7616 214.5 C 77.929 210.565 78.223 210.221 81.0679 207.5 z"/>
<path transform="translate(0,0)" fill="url(#Gradient17)" d="M 426.845 270.613 C 427.735 267.646 428.421 264.812 430.411 262.366 C 429.671 259.641 429.691 259.198 427.525 257.457 L 423.53 257.717 C 429.554 254.827 436.281 253.198 442.6 251.045 C 461.28 244.679 478.615 239.801 498.616 241.114 C 512.447 242.023 525.504 245.595 539.324 242.239 C 551.69 239.236 562.93 231.946 573.96 225.866 L 614.076 204.32 C 631.368 195.382 650.461 185.811 670.407 185.994 C 684.622 186.124 698.865 190.594 712.151 195.259 L 782.416 222.605 C 795.599 227.146 809.261 230.222 822.914 232.97 C 830.703 234.538 838.845 236.473 846.766 237.022 C 868.176 238.506 887.591 228.244 908.942 233.468 C 919.978 236.168 930.087 241.738 940.115 246.903 L 975.522 264.607 L 1023.87 285.44 L 999.276 283 L 993.412 291.48 C 975.899 288.312 957.541 284.587 939.665 284.765 C 932.124 282.817 923.016 283.343 915.178 283.098 C 881.817 282.052 848.201 283.258 814.983 286.594 L 782.406 290.775 C 780.075 291.08 774.622 292.479 772.53 291.847 C 769.792 291.026 766.929 289.753 764.188 291.132 L 763.5 291.51 C 761.703 292.243 758.198 291.935 756 292.5 L 754.5 292.51 C 753.256 292.588 752.096 292.991 750.83 292.996 C 749.984 293 749.298 293.258 748.5 293.51 L 745.495 292.75 C 744.137 290.33 743.184 289.346 743.5 286.51 C 740.731 287.059 740.155 287.738 738.51 290 C 737.632 291.207 737.672 292.373 737.73 293.793 L 738.045 294.384 C 736.615 295.275 735.093 296.445 733.419 296.732 C 729.441 294.895 724.291 295.284 719.966 295.152 C 696.947 296.073 680.586 287.08 659.724 279.757 C 645.565 274.787 630.99 271.129 616.089 269.291 C 599.244 267.212 582.352 267.485 566.157 273.028 C 557.61 275.954 552.247 280.051 542.68 280.139 C 523.251 280.317 503.5 269.707 483.992 267.084 C 472.295 265.512 460.919 265.777 449.211 267.332 C 441.677 268.333 434.469 270.286 426.845 270.613 z"/>
<path transform="translate(0,0)" fill="url(#Gradient18)" d="M 772.514 564.346 L 815.879 554.645 L 844.907 546.183 L 890.747 531.279 C 895.19 529.969 902.518 526.817 906.878 528.261 L 907.5 528.49 C 908.182 527.827 908.933 527.149 909.796 526.728 C 914.157 524.6 927.193 522.434 932.143 523.15 C 940.494 524.359 950.043 529.235 958.208 532.022 L 1024 553.808 L 1024 606.514 L 1024 634.144 L 1024 656.224 L -0 656.402 L 0 631.864 L 0 598.319 L -0 575.531 C 16.9419 573.147 34.0494 567.772 50.7098 563.801 L 189.908 528.59 L 204.647 524.828 C 205.736 524.535 208.855 523.315 209.791 523.426 C 211.693 523.653 214.877 525.469 216.736 526.218 L 233.238 533.016 L 253.709 541.493 C 260.206 540.479 266.87 541.4 273.41 541.696 L 299.639 542.21 L 528.9 555.362 L 543.552 556.568 L 543.645 556.704 L 615.892 564.373 C 653.12 567.301 690.005 570.397 727.42 568.973 C 736.467 568.628 745.643 567.989 754.621 566.807 C 760.52 566.031 766.58 564.552 772.514 564.346 z"/>
<path transform="translate(0,0)" fill="rgb(244,242,244)" d="M 945.471 568.5 L 946.434 568.373 C 948.017 570.628 949.672 571.467 951.864 573 C 949.889 574.236 948.797 576.154 947.5 578.037 L 946.5 578.492 C 944.5 576.676 942.088 574.89 940.782 572.5 C 943.685 571.461 943.767 571.117 945.471 568.5 z"/>
<path transform="translate(0,0)" fill="rgb(226,194,243)" d="M 72.0072 637.999 C 73.442 634.735 74.2702 632.904 77.5 631.178 C 80.9525 631.138 83.4092 630.748 86.0116 633.5 C 87.5278 635.104 88.2082 636.965 88.2382 639.137 C 87.5381 642.129 86.9827 643.503 84.6194 645.616 C 82.009 646.432 79.6866 647.545 77 646.129 C 73.3843 644.225 73.0377 641.601 72.0072 637.999 z"/>
<path transform="translate(0,0)" fill="rgb(104,23,197)" d="M 853.209 591.332 L 899.762 580.844 L 915.643 576.802 C 917.494 576.331 920.581 575.097 922.375 575.086 C 923.522 575.079 926.105 576.352 927.27 576.749 L 942.101 581.941 L 981 595.085 C 995.116 599.596 1009.42 603.79 1024 606.514 L 1024 634.144 L 619.557 637.145 L 702.435 623.384 L 796.583 604.326 C 814.592 600.448 835.116 597.614 852.444 591.603 L 853.209 591.332 z"/>
<path transform="translate(0,0)" fill="rgb(244,242,244)" d="M 945.561 589.5 L 946.159 589.527 C 948.721 592.856 951.169 594.424 954.899 596.301 C 951.503 599.382 949.044 599.275 946.583 603.5 C 943.894 599.003 942.654 599.272 938.413 597.035 L 940 596.03 C 942.667 594.339 943.878 593.216 945.212 590.286 L 945.561 589.5 z"/>
<path transform="translate(0,0)" fill="rgb(104,23,197)" d="M -0 575.531 C 16.9419 573.147 34.0494 567.772 50.7098 563.801 L 189.908 528.59 L 204.647 524.828 C 205.736 524.535 208.855 523.315 209.791 523.426 C 211.693 523.653 214.877 525.469 216.736 526.218 L 233.238 533.016 L 253.709 541.493 C 259.714 544.034 272.15 551.194 278.5 549.861 L 278.908 550.258 C 285.26 555.954 341.501 570.918 352.874 573.383 L 353.551 573.655 C 362.897 577.332 373.917 579.284 383.713 581.473 C 430.998 592.043 479.037 596.196 527.346 598.91 L 563.736 600.654 C 568.123 600.86 574.686 600.364 578.687 601.931 L 493.517 614.006 L 445.348 621.349 C 438.449 622.442 426.051 625.951 419.49 624.5 L 418 625.455 C 417.069 625.179 416.353 624.762 415.413 625.056 C 408.785 627.129 401.037 627.497 394.137 628.305 L 363.373 632.142 L 250.606 643.911 C 224.045 645.386 197.441 644.692 170.878 643.765 L 113.442 640.786 C 105.569 640.284 95.8748 638.243 88.2382 639.137 C 88.2082 636.965 87.5278 635.104 86.0116 633.5 C 83.4092 630.748 80.9525 631.138 77.5 631.178 C 74.2702 632.904 73.442 634.735 72.0072 637.999 L 0 631.864 L 0 598.319 L -0 575.531 z"/>
<path transform="translate(0,0)" fill="rgb(33,11,86)" d="M -0 575.531 C 16.9419 573.147 34.0494 567.772 50.7098 563.801 L 189.908 528.59 L 204.647 524.828 C 205.736 524.535 208.855 523.315 209.791 523.426 C 211.693 523.653 214.877 525.469 216.736 526.218 L 233.238 533.016 L 0 598.319 L -0 575.531 z"/>
</svg>