<svg version="1.1" xmlns="http://www.w3.org/2000/svg" style="display: block;" viewBox="0 0 2048 2048" width="640" height="640">
<defs>
	<linearGradient id="Gradient1" gradientUnits="userSpaceOnUse" x1="1682.98" y1="1034.66" x2="366.302" y2="997.319">
		<stop class="stop0" offset="0" stop-opacity="1" stop-color="rgb(94,103,101)"/>
		<stop class="stop1" offset="1" stop-opacity="1" stop-color="rgb(255,194,105)"/>
	</linearGradient>
</defs>
<path transform="translate(0,0)" fill="url(#Gradient1)" d="M 1193.27 274.498 L 1573.62 274.282 C 1586.03 274.271 1600.56 272.823 1612.77 274.482 C 1677.34 283.255 1686.14 399.533 1608.04 408.067 C 1594.16 409.584 1579.98 407.21 1566.11 408.55 C 1566.13 454.201 1567.52 499.512 1561.1 544.846 C 1542.07 679.154 1465.85 809.295 1371.2 904.295 C 1334.7 940.923 1293.72 979.598 1245.01 998.873 C 1264.02 1026.01 1289.71 1046.81 1314.16 1068.81 L 1365.52 1118.19 C 1484.9 1241.71 1566.37 1399.5 1568.53 1573.8 C 1568.73 1590.4 1567.61 1607.7 1569.02 1624.19 C 1595.49 1623.18 1622.87 1621.13 1643.82 1640.43 C 1691.86 1684.7 1658.19 1760.57 1595.03 1761.12 L 1058.34 1761.13 L 448.065 1760.64 C 391.193 1758.25 364.746 1680.19 406.838 1641.48 C 428.224 1621.82 455.143 1624.01 482.092 1624.91 L 483.827 1571.75 C 489.393 1425.99 545.214 1282.09 638.866 1170.63 C 673.848 1129 713.129 1091.79 752.807 1054.74 L 796.859 1012.85 L 695.316 921.859 C 588.019 814.157 506.935 689.032 486.174 534.739 C 480.469 492.341 479.936 450.68 480.028 407.997 C 448.361 407.517 411.673 406.91 393.996 375.5 C 385.731 360.815 382.776 343.073 387.411 326.734 L 387.923 325 C 401.036 279.439 435.669 274.351 475.404 274.297 L 1193.27 274.498 z M 1037.67 1379.27 C 1054.68 1394.58 1069.61 1411.53 1084.71 1428.68 L 1222.41 1580.3 C 1233.38 1592.09 1254.38 1607.3 1259.45 1623.71 L 1440.01 1623.72 L 1439.75 1561.32 C 1439.17 1541.42 1436.26 1521.63 1432.7 1502 C 1403.21 1339.39 1286.07 1202.14 1154.43 1108.93 L 1110.49 1080.64 C 1091.77 1069.51 1068.94 1060.99 1055.75 1042.86 C 1036.26 1016.06 1041.95 975.275 1065.5 952.718 C 1077.27 941.447 1093.54 933.953 1107.92 926.5 L 1157.2 900.54 C 1297.44 823.61 1419.05 679.811 1435.01 516.459 C 1438.43 481.408 1434.45 445.483 1436.48 410.291 L 1175.27 410.328 L 630.155 410.475 C 625.283 410.482 619.769 409.981 614.992 410.852 C 622.005 597.963 681.119 755.516 841.307 866.756 L 928.121 922.729 C 961.389 942.748 994.015 945.376 995.842 992.53 C 998.083 1050.35 988.602 1048.2 951.308 1073.35 L 879.432 1125.06 C 801.431 1183.62 717.314 1259.28 670.715 1345.76 C 644.335 1394.72 616.547 1478.6 615.712 1534.44 L 615.61 1623.86 L 661.137 1623.61 C 669.177 1623.55 683.007 1626.32 689.139 1619.87 L 733.694 1572.87 L 899.728 1371.76 C 907.662 1362.09 915.014 1350.62 924.653 1342.66 C 949.123 1322.46 988.099 1322.45 1011.61 1343.98 C 1022.85 1354.28 1030.01 1366.27 1037.67 1379.27 z"/>
<path transform="translate(0,0)" fill="rgb(241,220,167)" d="M 1037.67 1379.27 C 1054.68 1394.58 1069.61 1411.53 1084.71 1428.68 L 1222.41 1580.3 C 1233.38 1592.09 1254.38 1607.3 1259.45 1623.07 L 1045.09 1623.71 L 873.701 1623.98 C 878.255 1620.54 880.209 1615.53 883.805 1611.14 L 974.323 1490.3 C 991.163 1466.86 1028.97 1422.83 1035.95 1395.63 L 1036.33 1394.07 C 1037.68 1388.86 1037.86 1384.59 1037.67 1379.27 z"/>
</svg>