<svg version="1.1" xmlns="http://www.w3.org/2000/svg" style="display: block;" viewBox="0 0 2048 1024" width="2048" height="1024">
<defs>
	<linearGradient id="Gradient1" gradientUnits="userSpaceOnUse" x1="1024" y1="-1.94995" x2="1022.9" y2="575.862">
		<stop class="stop0" offset="0" stop-opacity="1" stop-color="rgb(6,0,44)"/>
		<stop class="stop1" offset="1" stop-opacity="1" stop-color="rgb(72,10,235)"/>
	</linearGradient>
	<linearGradient id="Gradient2" gradientUnits="userSpaceOnUse" x1="1505.69" y1="399.397" x2="2010.01" y2="638.886">
		<stop class="stop0" offset="0" stop-opacity="1" stop-color="rgb(26,2,58)"/>
		<stop class="stop1" offset="1" stop-opacity="1" stop-color="rgb(56,3,119)"/>
	</linearGradient>
	<linearGradient id="Gradient3" gradientUnits="userSpaceOnUse" x1="730.521" y1="518.659" x2="1491.38" y2="664.534">
		<stop class="stop0" offset="0" stop-opacity="1" stop-color="rgb(8,2,18)"/>
		<stop class="stop1" offset="1" stop-opacity="1" stop-color="rgb(54,3,115)"/>
	</linearGradient>
	<linearGradient id="Gradient4" gradientUnits="userSpaceOnUse" x1="900.583" y1="659.203" x2="944.814" y2="822.621">
		<stop class="stop0" offset="0" stop-opacity="1" stop-color="rgb(135,28,236)"/>
		<stop class="stop1" offset="1" stop-opacity="1" stop-color="rgb(179,54,240)"/>
	</linearGradient>
</defs>
<path transform="translate(0,0)" fill="url(#Gradient1)" d="M 0 73.4552 L 0 -0 L 2048 0 L 2048 71.4581 L 2048 248.654 L 2048 522.722 L 2048 563.9 L 2048 829.382 L 2048 1024 L 1264.96 1024 L 827.871 1024 L 133.971 1024 L -0 1024 L 0 947.94 L -0 901.947 L 0 747.381 L -0 728.917 L 0 641.089 L 0 569.184 L 0 246.518 L 0 73.4552 z"/>
<path transform="translate(0,0)" fill="rgb(251,249,248)" d="M 173.078 69.5 C 174.931 69.5369 178.021 73.1656 179.455 74.5 C 177.606 76.5388 176.079 78.7946 174.5 81.0425 C 172.723 80.426 169.761 76.2512 168.367 74.6999 C 170.623 73.4814 171.537 72.3674 172.716 70.1831 L 173.078 69.5 z"/>
<path transform="translate(0,0)" fill="rgb(251,249,248)" d="M 921.863 295.5 C 922.529 295.357 922.748 295.272 923.509 295.32 C 926.435 295.505 927.224 296.963 928.881 299 C 928.664 302.802 928.2 303.203 925.5 305.886 L 922.5 305.88 C 920.074 304.503 919.723 303.922 918.277 301.5 C 919.074 298.231 919.065 297.644 921.863 295.5 z"/>
<path transform="translate(0,0)" fill="rgb(251,249,248)" d="M 1252.1 347.5 L 1255 348.083 C 1257.13 350.232 1257.4 350.554 1257.99 353.5 C 1256.72 356.556 1256.19 356.847 1253.5 358.513 C 1252.07 358.497 1250.71 358.022 1249.33 357.663 C 1247.82 355.235 1247.68 354.715 1247.62 351.855 C 1249.08 349.212 1249.44 348.945 1252.1 347.5 z"/>
<path transform="translate(0,0)" fill="rgb(251,249,248)" d="M 462.18 165.5 L 465.5 165.143 C 468.071 166.848 468.558 167.251 469.913 170 C 469.218 173.082 468.751 173.453 466.5 175.466 L 463.5 175.98 C 460.855 174.945 460.525 174.845 458.966 172.5 C 459.06 168.548 459.332 168.239 462.18 165.5 z"/>
<path transform="translate(0,0)" fill="rgb(251,249,248)" d="M 1301.34 226.5 L 1304.5 225.982 C 1307.44 227.371 1307.66 227.673 1309.3 230.5 C 1308.87 233.793 1308.75 234.103 1306.5 236.544 C 1305.58 236.847 1304.47 237.263 1303.5 237.256 C 1300.62 237.234 1299.69 235.473 1298.1 233.5 C 1298.28 229.612 1298.57 229.224 1301.34 226.5 z"/>
<path transform="translate(0,0)" fill="rgb(251,249,248)" d="M 82.8185 45.5 C 85.0639 46.9204 87.7916 50.3682 89.9021 52.2453 L 82.5 59.8393 C 80.4078 56.4448 76.6924 55.4826 74.9157 52.5 C 78.0174 50.7202 80.1092 49.1777 82.2538 46.2767 L 82.8185 45.5 z"/>
<path transform="translate(0,0)" fill="rgb(251,249,248)" d="M 1460 220.5 C 1462.22 222.981 1466 224.931 1467.08 228 C 1464.08 229.989 1462.47 232.269 1460.5 235.232 C 1459.74 234.833 1459.93 235.035 1459.46 234.473 L 1452.78 227.5 L 1460 220.5 z"/>
<path transform="translate(0,0)" fill="rgb(251,249,248)" d="M 563.063 367.5 C 566.029 368.049 566.418 368.431 568.657 370.5 L 568.785 375 C 566.896 377.644 566.54 377.878 563.5 379.047 C 562.186 378.818 560.775 378.204 559.5 377.775 C 557.856 375.497 557.631 374.959 557.333 372.17 C 559.225 369.477 560.056 368.838 563.063 367.5 z"/>
<path transform="translate(0,0)" fill="rgb(251,249,248)" d="M 83.0422 477.5 C 85.7725 477.833 89.1453 482.442 91.1609 484.53 C 88.3087 486.883 86.3568 489.482 84.2449 492.5 C 82.4653 491.498 77.0096 485.87 76.2231 484 C 78.9882 482.116 80.913 480.061 83.0422 477.5 z"/>
<path transform="translate(0,0)" fill="rgb(251,249,248)" d="M 1150.49 193.5 L 1153.5 192.951 C 1156.52 194.084 1156.9 194.636 1158.68 197.157 C 1158.82 200.907 1158.45 201.497 1156.2 204.5 C 1153.83 205.577 1152.5 205.388 1150.01 204.764 C 1148.28 202.929 1146.9 201.765 1147.01 199 C 1147.12 196.385 1148.77 195.167 1150.49 193.5 z"/>
<path transform="translate(0,0)" fill="rgb(251,249,248)" d="M 830.47 137.5 C 832.491 136.918 833.54 137.265 835.5 137.935 C 837.644 140.083 838.087 140.597 838.885 143.5 C 837.752 146.804 837.107 147.353 834.5 149.459 C 833.275 149.606 831.951 149.502 830.713 149.5 C 828.255 147.731 827.811 147.238 826.53 144.5 C 827.034 140.541 827.467 140.126 830.47 137.5 z"/>
<path transform="translate(0,0)" fill="rgb(251,249,248)" d="M 96.9861 195.5 L 98.3553 195.442 C 100.871 198.632 104.003 201.032 106.735 204 C 106.205 204.506 105.723 204.962 105.1 205.358 C 102.226 207.181 100.821 208.576 99.1966 211.613 L 98.7317 212.5 L 97.6025 212.409 C 94.9501 208.77 91.3061 206.855 88.5189 203.5 C 91.7733 201.387 94.5086 199.614 96.554 196.234 L 96.9861 195.5 z"/>
<path transform="translate(0,0)" fill="rgb(251,249,248)" d="M 1773.88 52.5 L 1775.45 52.6908 C 1778.13 56.8794 1780.76 58.3548 1784.33 61.5 C 1780.86 63.7358 1778.06 65.5728 1775.95 69.2159 L 1775.5 70.0203 L 1774.83 69.7844 C 1772.07 66.471 1768.62 64.1997 1765.63 61.1525 C 1768.96 58.5741 1771.35 55.8457 1773.88 52.5 z"/>
<path transform="translate(0,0)" fill="rgb(251,249,248)" d="M 1940.19 144.5 L 1941.39 144.386 C 1943.76 147.872 1947.32 150.772 1950.37 153.676 L 1949.67 154.184 C 1946.26 156.681 1943.96 157.803 1941.93 161.758 L 1941.5 162.623 L 1940.22 162.281 C 1938.49 158.514 1934.09 155.615 1930.96 152.973 L 1931.54 152.613 C 1935.11 150.35 1937.73 149.262 1939.78 145.318 L 1940.19 144.5 z"/>
<path transform="translate(0,0)" fill="rgb(251,249,248)" d="M 1611.91 313.5 L 1612.54 313.743 C 1614.73 318.119 1618.6 320.531 1622.45 323.321 C 1618.52 325.645 1615.34 327.398 1613.18 331.62 L 1612.75 332.5 L 1611.48 332.015 C 1609.83 327.828 1603.91 325.914 1603.17 322.5 C 1607.04 320.053 1609.26 317.194 1611.91 313.5 z"/>
<path transform="translate(0,0)" fill="rgb(251,249,248)" d="M 220.102 274.895 C 218.287 270.751 213.907 267.832 210.45 265.106 C 210.974 264.176 210.733 264.353 211.454 263.818 C 215.059 261.142 217.386 259.283 219.752 255.387 L 219.983 255 C 222.653 258.359 225.325 261.184 228.628 263.927 L 229.5 265.741 C 226.291 268.31 223.856 270.697 221.342 273.935 C 220.979 274.403 220.629 274.638 220.102 274.895 z"/>
<path transform="translate(0,0)" fill="rgb(251,249,248)" d="M 245.043 450.5 L 247.089 451.047 C 249.655 454.42 252.187 456.681 255.662 459.101 C 252.152 462.318 248.915 465.15 246.9 469.58 L 246.5 470.489 C 245.796 469.934 245.969 470.165 245.524 469.505 C 242.296 464.719 239.651 462.676 234.949 459.5 C 239.008 457.381 241.777 455.057 244.456 451.326 L 245.043 450.5 z"/>
<path transform="translate(0,0)" fill="rgb(251,249,248)" d="M 442.789 51.5 L 444.479 51.9723 C 446.84 56.969 450.7 59.1795 455.158 62.0733 C 450.554 64.7798 447.071 66.9007 443.5 70.9898 L 442.568 71.247 L 440.921 69 C 438.631 65.7925 433.725 64.1888 432.383 61.5 C 436.457 59.4586 439.959 56.186 442.309 52.3066 L 442.789 51.5 z"/>
<path transform="translate(0,0)" fill="rgb(251,249,248)" d="M 1378.76 85.8367 C 1383.9 82.8991 1386.27 79.9678 1389.49 75.1295 C 1391.46 79.209 1394.25 82.6454 1398.22 84.9172 L 1398.91 85.3051 C 1398.49 86.5105 1398.44 87.6759 1397.29 88.2867 C 1393.32 90.3874 1391.95 93.9851 1389.45 97.5 C 1387.93 95.6676 1386.92 93.1066 1385.27 91.5 C 1383.06 89.3459 1380.42 88.677 1378.76 85.8367 z"/>
<path transform="translate(0,0)" fill="rgb(251,249,248)" d="M 1957.89 260.209 C 1958.61 258.634 1959.21 257.689 1960.5 256.517 L 1962.09 259.201 C 1965.13 262.358 1968.23 264.941 1971.81 267.472 C 1966.56 270.69 1964.21 273.438 1960.5 278.173 L 1960.18 277.603 C 1957.48 273.028 1952.95 269.688 1948.66 266.7 C 1952.37 264.899 1955.24 263.431 1957.89 260.209 z"/>
<path transform="translate(0,0)" fill="rgb(251,249,248)" d="M 1745.95 267.508 C 1729.69 255.238 1717.82 240.94 1712.55 220.836 C 1706.98 199.628 1709.97 178.371 1721 159.5 C 1732.59 139.658 1751.58 126.834 1773.56 121.169 C 1773.56 122.086 1772.65 122.554 1772.01 123.164 C 1757.75 136.57 1748.73 151.615 1745.5 171.074 C 1742.34 190.09 1747.45 211.232 1758.69 226.885 C 1773.5 247.501 1793.67 259.603 1818.63 263.734 L 1838.09 264.874 C 1818.58 277.445 1796.04 283.627 1772.93 278.561 C 1763.13 276.414 1754.69 272.262 1745.95 267.508 z"/>
<path transform="translate(0,0)" fill="rgb(33,11,86)" d="M 930.921 423.13 C 933.562 421.278 934.118 420.969 937.5 420.913 C 945.583 428.971 954.349 434.83 965.5 437.984 C 971.986 439.818 980.215 439.553 986.991 440.281 L 1021.06 444.952 L 1109.86 459.577 C 1150.52 465.478 1191.79 469.191 1232.88 469.12 C 1253.57 469.085 1274.52 468.219 1295.05 465.687 C 1308.15 464.072 1322.87 460.113 1335.85 460.297 L 1336.96 460.279 L 1332.01 462.363 L 1191.48 507.205 C 1167.49 513.914 1142.82 521.376 1118.33 525.878 C 1106.12 524.388 1092.87 525.892 1080.41 525.032 C 1053.01 523.141 1025.71 515.364 1002 501.346 C 994.821 497.101 988.167 491.155 981.061 487.227 C 978.095 485.588 976.112 482.621 973.51 480.5 C 961.995 471.116 950.892 459.602 941.579 448 C 938.173 443.757 933.639 438.377 932.021 433.188 C 931.783 432.424 931.621 431.701 931.256 430.985 C 930.153 428.821 930.78 425.519 930.921 423.13 z"/>
<path transform="translate(0,0)" fill="url(#Gradient2)" d="M 1514.07 378.012 C 1517.22 376.572 1518.26 375.529 1521.71 376.856 C 1527.81 379.206 1533.88 383.188 1539.65 386.316 L 1571.02 402.876 C 1596.93 416.223 1623.77 427.811 1650.91 438.398 C 1710.82 461.768 1772.77 478.363 1835.58 491.681 L 1941.15 510.853 L 2017.83 520.145 L 2048 522.722 L 2048 563.9 L 2019.71 563.902 C 2017.77 563.902 2012.6 563.308 2011 563.903 C 2009.86 564.329 2008.3 565.612 2007.24 566.288 C 2005.95 565.313 2004.43 564.859 2003.11 563.943 C 2001.73 562.987 1997.8 563.51 1996 563.51 C 1994.68 564.634 1993.66 564.705 1991.96 564.898 L 1991.32 564.965 L 1865.95 573.567 L 1645.23 601.108 C 1637.33 590.511 1626.55 581.763 1617.27 572.368 L 1563.1 515.699 C 1541.26 492.16 1508.99 463.638 1502.66 430.67 C 1499.03 411.837 1503.52 393.655 1514.07 378.012 z"/>
<path transform="translate(0,0)" fill="rgb(45,9,131)" d="M 1336.96 460.279 C 1340 460.641 1350.9 454.558 1354.4 453.002 L 1426.63 419.192 C 1449.92 406.898 1472.89 392.515 1497.16 382.287 C 1501.16 380.601 1510.08 376.415 1514.07 378.012 C 1503.52 393.655 1499.03 411.837 1502.66 430.67 C 1508.99 463.638 1541.26 492.16 1563.1 515.699 L 1617.27 572.368 C 1626.55 581.763 1637.33 590.511 1645.23 601.108 L 1499.9 630.466 C 1499.16 629.784 1498.47 629.301 1497.48 629.016 C 1492.35 627.532 1484.71 628.235 1479.18 627.578 L 1401.16 618.322 L 1164.93 576.613 C 1153.34 572.192 1138.77 570.603 1126.55 567.994 L 1045.69 550.041 L 1034.97 547.659 C 1040.01 544.231 1050.2 542.884 1056.19 541.376 L 1118.33 525.878 C 1142.82 521.376 1167.49 513.914 1191.48 507.205 L 1332.01 462.363 L 1336.96 460.279 z"/>
<path transform="translate(0,0)" fill="rgb(104,23,197)" d="M 1336.96 460.279 C 1340 460.641 1350.9 454.558 1354.4 453.002 L 1426.63 419.192 C 1449.92 406.898 1472.89 392.515 1497.16 382.287 C 1501.16 380.601 1510.08 376.415 1514.07 378.012 C 1509.85 379.427 1505.94 381.448 1501.97 383.425 C 1484.56 397.211 1435.73 429.848 1433.31 452.044 C 1432.63 458.223 1434.54 463.971 1438.45 468.749 C 1451.79 485.036 1476.49 488.475 1493.72 499.463 C 1498.69 502.635 1504.91 507.867 1507.08 513.5 L 1507.41 514.322 C 1508.37 516.904 1508.45 520.358 1507.25 522.889 C 1503.22 531.411 1489.63 537.044 1481.07 539.851 C 1459.52 546.909 1435.84 549.889 1413.38 552.165 L 1328.68 558.405 L 1249.94 565.185 L 1199.03 571.577 C 1188.18 573.281 1175.86 576.465 1164.93 576.613 C 1153.34 572.192 1138.77 570.603 1126.55 567.994 L 1045.69 550.041 L 1034.97 547.659 C 1040.01 544.231 1050.2 542.884 1056.19 541.376 L 1118.33 525.878 C 1142.82 521.376 1167.49 513.914 1191.48 507.205 L 1332.01 462.363 L 1336.96 460.279 z"/>
<path transform="translate(0,0)" fill="rgb(181,45,200)" d="M 1336.96 460.279 C 1340 460.641 1350.9 454.558 1354.4 453.002 L 1426.63 419.192 C 1449.92 406.898 1472.89 392.515 1497.16 382.287 C 1501.16 380.601 1510.08 376.415 1514.07 378.012 C 1509.85 379.427 1505.94 381.448 1501.97 383.425 C 1491.34 387.043 1481.17 393.234 1471.34 398.669 L 1424.5 424.274 L 1365.98 453.033 L 1334.18 466.33 C 1269.06 493.51 1200.02 510.667 1131.73 527.848 C 1103.48 534.953 1073.05 540.214 1045.69 550.041 L 1034.97 547.659 C 1040.01 544.231 1050.2 542.884 1056.19 541.376 L 1118.33 525.878 C 1142.82 521.376 1167.49 513.914 1191.48 507.205 L 1332.01 462.363 L 1336.96 460.279 z"/>
<path transform="translate(0,0)" fill="url(#Gradient3)" d="M 901.776 436.275 C 911.532 433.602 919.948 424.962 930.279 423.103 L 930.921 423.13 C 930.78 425.519 930.153 428.821 931.256 430.985 C 931.621 431.701 931.783 432.424 932.021 433.188 C 933.639 438.377 938.173 443.757 941.579 448 C 950.892 459.602 961.995 471.116 973.51 480.5 C 976.112 482.621 978.095 485.588 981.061 487.227 C 988.167 491.155 994.821 497.101 1002 501.346 C 1025.71 515.364 1053.01 523.141 1080.41 525.032 C 1092.87 525.892 1106.12 524.388 1118.33 525.878 L 1056.19 541.376 C 1050.2 542.884 1040.01 544.231 1034.97 547.659 L 1045.69 550.041 L 1126.55 567.994 C 1138.77 570.603 1153.34 572.192 1164.93 576.613 L 1401.16 618.322 L 1479.18 627.578 C 1484.71 628.235 1492.35 627.532 1497.48 629.016 C 1498.47 629.301 1499.16 629.784 1499.9 630.466 L 1377.66 660.506 L 1257.7 692.31 C 1251.64 690.862 1245.18 691.051 1238.98 690.712 L 1211.93 688.791 L 1154.43 681.924 L 1062.22 664.483 C 987.564 648.026 912.851 625.342 844.508 590.652 C 805.601 570.903 756.614 539.847 742.516 496.064 C 736.439 477.192 741.655 457.153 750.41 440.088 C 754.35 440.761 757.557 443.673 760.968 445.633 L 780.337 456.103 L 810.647 470.62 C 814.002 469.041 819.434 468.893 823.184 468.413 C 827.884 467.812 832.512 466.639 837.005 465.145 C 859.495 457.666 880.786 447.137 901.776 436.275 z"/>
<path transform="translate(0,0)" fill="rgb(45,9,131)" d="M 901.776 436.275 C 911.532 433.602 919.948 424.962 930.279 423.103 L 930.921 423.13 C 930.78 425.519 930.153 428.821 931.256 430.985 C 931.621 431.701 931.783 432.424 932.021 433.188 C 933.639 438.377 938.173 443.757 941.579 448 C 950.892 459.602 961.995 471.116 973.51 480.5 C 976.112 482.621 978.095 485.588 981.061 487.227 C 988.167 491.155 994.821 497.101 1002 501.346 C 1025.71 515.364 1053.01 523.141 1080.41 525.032 C 1092.87 525.892 1106.12 524.388 1118.33 525.878 L 1056.19 541.376 C 1050.2 542.884 1040.01 544.231 1034.97 547.659 C 1023.6 545.337 1012.48 541.771 1001.27 538.805 L 901.078 507.704 C 889.441 503.598 876.362 500.068 865.55 494.118 L 810.647 470.62 C 814.002 469.041 819.434 468.893 823.184 468.413 C 827.884 467.812 832.512 466.639 837.005 465.145 C 859.495 457.666 880.786 447.137 901.776 436.275 z"/>
<path transform="translate(0,0)" fill="rgb(104,23,197)" d="M 901.776 436.275 C 911.532 433.602 919.948 424.962 930.279 423.103 C 924.42 428.948 917.846 435.674 917.853 444.54 C 917.856 448.97 919.228 452.107 922.452 455.118 C 928.658 460.914 938.565 461.096 939.775 471 C 938.81 475.678 936.068 478.76 932.129 481.379 C 925.198 485.988 916.361 486.958 908.314 488.313 L 865.55 494.118 L 810.647 470.62 C 814.002 469.041 819.434 468.893 823.184 468.413 C 827.884 467.812 832.512 466.639 837.005 465.145 C 859.495 457.666 880.786 447.137 901.776 436.275 z"/>
<path transform="translate(0,0)" fill="rgb(45,9,131)" d="M 728.359 438.331 C 745.533 435.649 763.247 435.007 780.601 434.201 L 875.822 434.02 C 883.408 434.353 894.763 433.482 901.776 436.275 C 880.786 447.137 859.495 457.666 837.005 465.145 C 832.512 466.639 827.884 467.812 823.184 468.413 C 819.434 468.893 814.002 469.041 810.647 470.62 L 780.337 456.103 L 760.968 445.633 C 757.557 443.673 754.35 440.761 750.41 440.088 C 741.655 457.153 736.439 477.192 742.516 496.064 C 756.614 539.847 805.601 570.903 844.508 590.652 C 912.851 625.342 987.564 648.026 1062.22 664.483 L 1154.43 681.924 L 1211.93 688.791 L 1238.98 690.712 C 1245.18 691.051 1251.64 690.862 1257.7 692.31 L 988.461 760.662 L 575.415 825.166 L 508.07 831.34 L 402.899 838.995 L 377.53 840.933 C 374.089 841.223 369.427 842.239 366.049 841.763 C 243.064 851.729 118.976 868.345 -0 901.947 L 0 747.381 L -0 728.917 L 0 641.089 L 0 569.184 C 16.3503 571.304 34.2444 574.636 50.6787 574.838 C 59.9414 570.909 70.7556 568.823 80.4919 566.185 L 147.711 548.698 C 297.699 510.124 448.681 477.202 601.976 454.626 L 668.158 445.164 C 687.665 442.31 708.638 438.793 728.359 438.331 z"/>
<path transform="translate(0,0)" fill="rgb(0,0,0)" d="M 0 747.381 L 292.648 823.307 C 300.823 825.428 363.393 839.245 366.049 841.763 C 243.064 851.729 118.976 868.345 -0 901.947 L 0 747.381 z"/>
<path transform="translate(0,0)" fill="rgb(181,45,200)" d="M 730.301 447.191 L 730.844 448.104 L 666.211 476.386 C 631.248 493.011 596.796 511.756 560.365 525.078 C 541.026 532.149 521.1 537.214 501.285 542.716 L 406.49 567.913 L 308.188 590.212 C 291.482 593.497 272.626 594.779 256.513 599.938 L 469.419 630.617 L 643.549 664.51 C 623.51 665.111 602.395 660.863 582.208 659.927 C 575.619 658.014 566.854 658.044 559.86 657.145 L 483.548 648.346 C 383.431 637.439 281.472 628.394 180.711 630.128 L 0 641.089 L 0 569.184 C 16.3503 571.304 34.2444 574.636 50.6787 574.838 L 71.6448 577.069 C 98.3071 570.095 126.21 566.506 153.548 563.414 C 211.711 556.836 270.481 555.229 328.939 558.558 C 349.494 559.728 370.455 560.695 390.802 563.907 C 412.071 561.005 434.257 554.388 455.111 549.086 C 501.889 537.192 548.058 523.656 592.982 505.876 L 665.81 473.156 L 730.301 447.191 z"/>
<path transform="translate(0,0)" fill="rgb(60,21,150)" d="M 71.6448 577.069 C 98.3071 570.095 126.21 566.506 153.548 563.414 C 211.711 556.836 270.481 555.229 328.939 558.558 C 349.494 559.728 370.455 560.695 390.802 563.907 L 235.434 597.107 C 228.221 597.254 219.83 595.32 212.617 594.427 L 158.23 587.272 L 71.6448 577.069 z"/>
<path transform="translate(0,0)" fill="rgb(104,23,197)" d="M 0 641.089 L 180.711 630.128 C 281.472 628.394 383.431 637.439 483.548 648.346 L 559.86 657.145 C 566.854 658.044 575.619 658.014 582.208 659.927 C 529.054 659.798 475.512 660.425 422.894 668.944 C 379.465 675.976 337.431 686.901 294.56 696.464 C 216.185 713.947 135.907 728.843 55.3986 730.102 C 37.5677 730.381 17.4929 731.996 -0 728.917 L 0 641.089 z"/>
<path transform="translate(0,0)" fill="rgb(104,23,197)" d="M 730.301 447.191 C 733.658 444.706 739.718 442.325 743.833 441.837 C 740.649 446.002 734.927 448.657 730.656 451.648 L 693.181 477.621 C 683.888 484.309 671.856 492.865 666.216 503.078 C 663.267 508.421 661.965 514.314 662.836 520.423 C 663.793 527.134 670.985 534.659 676.353 538.433 C 683.463 543.431 691.603 547.654 699.401 551.472 L 730.898 566.483 C 737.691 569.845 745.569 573.704 750.854 579.177 C 752.336 580.712 754.524 582.889 755.02 585.041 C 755.678 587.893 755.377 591.101 753.679 593.413 C 745.79 604.158 724.98 606.69 712.549 608.477 C 675.695 613.776 637.716 614.354 600.547 616.393 L 502.503 624.815 L 478.085 627.971 C 475.613 628.308 471.513 628.316 469.586 629.904 L 469.419 630.617 L 256.513 599.938 C 272.626 594.779 291.482 593.497 308.188 590.212 L 406.49 567.913 L 501.285 542.716 C 521.1 537.214 541.026 532.149 560.365 525.078 C 596.796 511.756 631.248 493.011 666.211 476.386 L 730.844 448.104 L 730.301 447.191 z"/>
<path transform="translate(0,0)" fill="rgb(0,0,0)" d="M 575.415 825.166 C 561.407 825.638 545.059 818.928 531.728 814.856 C 493.851 803.285 452.882 791.854 419.078 770.621 C 412.037 766.199 402.708 759.22 400.986 750.592 C 399.955 745.425 401.464 740.346 404.47 736.138 C 411.103 726.854 423.231 719.907 433.146 714.659 C 466.923 696.781 503.937 686.58 541.5 680.359 C 635.433 664.803 730.116 680.866 820.938 705.205 L 927.067 737.584 L 975.217 755.057 C 979.789 756.92 984.366 757.731 988.461 760.662 L 575.415 825.166 z"/>
<path transform="translate(0,0)" fill="rgb(60,21,150)" d="M 1991.32 564.965 L 1991.96 564.898 C 1993.66 564.705 1994.68 564.634 1996 563.51 C 1997.8 563.51 2001.73 562.987 2003.11 563.943 C 2004.43 564.859 2005.95 565.313 2007.24 566.288 C 2008.3 565.612 2009.86 564.329 2011 563.903 C 2012.6 563.308 2017.77 563.902 2019.71 563.902 L 2048 563.9 L 2048 829.382 L 2048 1024 L 1264.96 1024 L 827.871 1024 L 133.971 1024 L -0 1024 L 0 947.94 L -0 901.947 C 118.976 868.345 243.064 851.729 366.049 841.763 C 369.427 842.239 374.089 841.223 377.53 840.933 L 402.899 838.995 L 508.07 831.34 L 575.415 825.166 L 988.461 760.662 L 1257.7 692.31 L 1377.66 660.506 L 1499.9 630.466 L 1645.23 601.108 L 1865.95 573.567 L 1991.32 564.965 z"/>
<path transform="translate(0,0)" fill="url(#Gradient4)" d="M 1991.32 564.965 C 1979.55 569.686 1964.94 570.8 1952.49 573.432 L 1864.56 593.384 C 1819.47 605.092 1775.72 620.625 1731.96 636.438 L 1644.97 668.567 C 1636.01 671.4 1627.42 675.4 1618.52 678.449 L 1540.35 703.977 C 1365.94 757.676 1188.13 801.625 1007 825.085 L 909.802 835.968 C 889.146 837.888 868.465 840.028 847.706 840.271 L 676.879 850.067 C 492.566 859.299 305.879 866.85 125.77 910.315 C 83.4492 920.528 40.1916 930.844 0 947.94 L -0 901.947 C 118.976 868.345 243.064 851.729 366.049 841.763 C 369.427 842.239 374.089 841.223 377.53 840.933 L 402.899 838.995 L 508.07 831.34 L 575.415 825.166 L 988.461 760.662 L 1257.7 692.31 L 1377.66 660.506 L 1499.9 630.466 L 1645.23 601.108 L 1865.95 573.567 L 1991.32 564.965 z"/>
<path transform="translate(0,0)" fill="rgb(104,23,197)" d="M 1991.32 564.965 C 1979.55 569.686 1964.94 570.8 1952.49 573.432 L 1864.56 593.384 C 1819.47 605.092 1775.72 620.625 1731.96 636.438 L 1644.97 668.567 C 1636.01 671.4 1627.42 675.4 1618.52 678.449 L 1540.35 703.977 C 1365.94 757.676 1188.13 801.625 1007 825.085 L 909.802 835.968 C 889.146 837.888 868.465 840.028 847.706 840.271 C 856.624 834.658 871.296 832.133 881.605 829.082 L 1008.16 794.241 L 1225.17 732.79 L 1401.74 685.516 L 1666.64 615.199 L 1770.46 592.226 L 1853.91 577.956 C 1858.44 577.121 1867.58 577.016 1870.98 574.5 L 1865.95 573.567 L 1991.32 564.965 z"/>
<path transform="translate(0,0)" fill="rgb(45,9,131)" d="M 1991.32 564.965 L 1991.96 564.898 C 1993.66 564.705 1994.68 564.634 1996 563.51 C 1997.8 563.51 2001.73 562.987 2003.11 563.943 C 2004.43 564.859 2005.95 565.313 2007.24 566.288 C 1981.77 587.068 1956.78 607.245 1934.13 631.187 C 1883.78 684.417 1843.05 743.858 1778.94 782.384 C 1677.69 843.224 1561.65 870.527 1446 887.984 L 1249.93 913.613 C 1141.39 929.688 1032.15 952.189 927.838 986.717 L 849.462 1014.78 C 842.754 1017.43 833.71 1019.93 827.871 1024 L 133.971 1024 C 199.695 996.884 266.58 972.228 334.996 952.749 C 437.259 923.633 542.266 905.615 647.927 894.595 L 939.206 877.228 L 1092 876.041 L 1253.06 876.752 C 1372.82 873.419 1493 854.593 1606.2 814.571 C 1650.48 798.917 1696.3 781.525 1732.92 751.194 C 1746.5 739.94 1761.22 723.837 1762.79 705.493 C 1763.46 697.655 1760.89 690.237 1755.79 684.287 C 1738.81 664.486 1701.64 661.721 1677.63 664.611 C 1667.81 665.794 1655.62 669.612 1645.98 668.672 L 1644.97 668.567 L 1731.96 636.438 C 1775.72 620.625 1819.47 605.092 1864.56 593.384 L 1952.49 573.432 C 1964.94 570.8 1979.55 569.686 1991.32 564.965 z"/>
<path transform="translate(0,0)" fill="rgb(33,11,86)" d="M 2007.24 566.288 C 2008.3 565.612 2009.86 564.329 2011 563.903 C 2012.6 563.308 2017.77 563.902 2019.71 563.902 L 2048 563.9 L 2048 829.382 L 2048 1024 L 1264.96 1024 L 827.871 1024 C 833.71 1019.93 842.754 1017.43 849.462 1014.78 L 927.838 986.717 C 1032.15 952.189 1141.39 929.688 1249.93 913.613 L 1446 887.984 C 1561.65 870.527 1677.69 843.224 1778.94 782.384 C 1843.05 743.858 1883.78 684.417 1934.13 631.187 C 1956.78 607.245 1981.77 587.068 2007.24 566.288 z"/>
</svg>