<svg version="1.1" xmlns="http://www.w3.org/2000/svg" style="display: block;" viewBox="0 0 2048 1024" width="2048" height="1024">
<defs>
	<linearGradient id="Gradient1" gradientUnits="userSpaceOnUse" x1="1056" y1="533.342" x2="1049.18" y2="698.925">
		<stop class="stop0" offset="0" stop-opacity="1" stop-color="rgb(228,108,94)"/>
		<stop class="stop1" offset="1" stop-opacity="1" stop-color="rgb(233,143,132)"/>
	</linearGradient>
	<linearGradient id="Gradient2" gradientUnits="userSpaceOnUse" x1="1024.3" y1="129.983" x2="1024" y2="232.484">
		<stop class="stop0" offset="0" stop-opacity="1" stop-color="rgb(231,53,48)"/>
		<stop class="stop1" offset="1" stop-opacity="1" stop-color="rgb(253,88,79)"/>
	</linearGradient>
</defs>
<path transform="translate(0,0)" fill="rgb(242,148,121)" d="M 0 174 L -0 -0 L 1546.19 -0.06816 L 1921.92 -0.0373406 C 1935.66 -0.0347668 2042.18 -1.93459 2048 1 L 2048 1.75 L 2048 146.726 L 2048 291.04 L 2048 291.755 L 2048 411.888 L 2048 474.879 L 2048 561.299 L 2048 644.892 L 2048 748.715 L 2048 813.018 L 2048 862.747 L 2048 973.14 L 2048 1023 C 2042.18 1025.93 1935.66 1024.03 1921.92 1024.04 L 1546.19 1024.07 L -0 1024 L 0 894.17 L 0 802.657 L -0 759.223 L 0 646.889 L 0 562.428 L 0 511.178 L -0 411.988 L 0 291.752 L 0 177.027 L 0 175.25 L 0 174 z"/>
<path transform="translate(0,0)" fill="rgb(190,108,137)" d="M 346.582 494.591 C 361.391 496.069 482.215 509.448 484.5 511.556 L 359.706 510.844 L 351.524 501.929 C 348.761 499.534 346.531 498.138 343.078 496.923 L 341.938 495.522 L 341.5 495.057 L 346.582 494.591 z"/>
<path transform="translate(0,0)" fill="rgb(254,223,212)" d="M 1257.8 567.083 L 1258.15 564.71 C 1261.95 561.99 1347.62 563.911 1358.05 563.967 L 1356.02 577.696 L 1325.92 583.758 L 1325.84 603.102 C 1317.9 602.296 1301.06 602.786 1294.31 599.119 L 1294.39 598.745 L 1293 596.855 C 1283.35 595.308 1281.43 605.277 1273.71 607.613 C 1271.09 608.403 1267.93 608.124 1265.5 606.959 C 1262.4 604.114 1262.47 598.584 1261.93 594.585 L 1257.8 567.083 z"/>
<path transform="translate(0,0)" fill="rgb(180,103,140)" d="M 1200.34 368.241 C 1200.68 368.576 1201.63 369.759 1202 369.892 C 1204.08 370.647 1210.18 369.893 1212.6 369.893 L 1246.58 369.897 L 1447.97 369.898 L 1465.89 369.78 L 1462.07 410.998 L 1458.16 456.211 C 1457.87 459.645 1458.25 466.528 1457.07 469.5 C 1456.95 469.804 1455.8 470.642 1455.5 470.916 L 1448 471.042 C 1445.37 467.611 1444.46 431.176 1443.95 423.874 L 1429.73 422.762 L 1425.16 456.982 C 1424.63 461.256 1423.31 466.85 1423.87 471.098 L 1116.64 471.865 C 1132.78 459.486 1148.22 447.859 1161.76 432.453 C 1167.87 425.492 1172.95 417.699 1178.96 410.67 L 1178.92 410.028 C 1187.72 398.633 1194.4 383.502 1199.67 370.116 L 1200.34 368.241 z"/>
<path transform="translate(0,0)" fill="rgb(144,89,148)" d="M 1200.34 368.241 C 1200.68 368.576 1201.63 369.759 1202 369.892 C 1204.08 370.647 1210.18 369.893 1212.6 369.893 L 1246.58 369.897 L 1447.97 369.898 L 1465.89 369.78 L 1462.07 410.998 L 1178.96 410.67 L 1178.92 410.028 C 1187.72 398.633 1194.4 383.502 1199.67 370.116 L 1200.34 368.241 z"/>
<path transform="translate(0,0)" fill="rgb(254,223,212)" d="M 1221.6 563.916 L 1231 563.69 C 1234.43 559.102 1229.47 551.268 1232.93 546.5 C 1235.95 542.344 1240.53 540.396 1244.58 537.548 C 1245.03 540.57 1245.66 561.789 1246.08 562.5 C 1246.42 563.067 1247.03 563.423 1247.5 563.885 L 1256 563.991 L 1257.8 567.083 L 1261.93 594.585 C 1262.47 598.584 1262.4 604.114 1265.5 606.959 C 1267.93 608.124 1271.09 608.403 1273.71 607.613 C 1281.43 605.277 1283.35 595.308 1293 596.855 L 1294.39 598.745 L 1294.31 599.119 C 1292.09 604.465 1290.3 614.84 1287.05 618.915 L 1218.52 625.993 L 1207.33 672.801 L 879.726 694.04 L 833.266 672.666 C 825.383 669.039 814.56 665.574 808.058 659.917 C 806.408 657.074 805.946 652.031 805.205 648.771 L 799.206 625.628 C 797.413 619.873 795.605 613.081 790 610.134 C 785.787 612.14 784.808 616.184 781.805 619.741 C 780.451 620.08 779.035 620.418 777.637 620.158 C 764.397 617.698 771.646 603.199 766.766 595.508 C 765.115 592.907 764.518 592.55 761.5 591.899 L 758.731 594.5 L 757.281 593.858 L 751.688 563.317 L 1086.27 563.194 L 1178.53 563.28 C 1192.15 563.303 1208.29 561.734 1221.6 563.916 z"/>
<path transform="translate(0,0)" fill="url(#Gradient1)" d="M 1221.6 563.916 L 1231 563.69 C 1234.43 559.102 1229.47 551.268 1232.93 546.5 C 1235.95 542.344 1240.53 540.396 1244.58 537.548 C 1245.03 540.57 1245.66 561.789 1246.08 562.5 C 1246.42 563.067 1247.03 563.423 1247.5 563.885 L 1256 563.991 L 1257.8 567.083 L 1261.93 594.585 C 1262.47 598.584 1262.4 604.114 1265.5 606.959 C 1267.93 608.124 1271.09 608.403 1273.71 607.613 C 1281.43 605.277 1283.35 595.308 1293 596.855 L 1294.39 598.745 L 1294.31 599.119 C 1292.09 604.465 1290.3 614.84 1287.05 618.915 L 1218.52 625.993 L 1207.33 672.801 L 879.726 694.04 L 833.266 672.666 C 825.383 669.039 814.56 665.574 808.058 659.917 C 813.651 659.323 818.803 656.481 824.001 654.478 C 835.721 649.962 848.234 647.115 860.855 647.149 C 870.259 647.174 881.235 648.9 890.044 652.249 C 900.796 656.336 910.635 662.455 921.423 666.475 C 932.893 670.75 944.928 672.676 957.163 672.338 C 983.607 671.607 1001.14 653.141 1024.87 644.737 C 1030.55 642.723 1037.03 640.832 1043.11 641.026 C 1053.03 641.341 1062.2 644.648 1072.31 642.322 C 1086.7 639.007 1096.95 628.683 1110.5 624.726 C 1123.72 620.863 1140.77 627.884 1152.61 620.798 C 1157.84 617.665 1160.09 613.253 1161.51 607.505 C 1163.84 598.033 1163.52 587.884 1163.76 578.172 C 1171.56 578.1 1186.34 576.413 1192.53 582.03 C 1196.37 585.517 1198.89 591.264 1201.41 595.776 C 1203.12 598.853 1205.21 602.617 1208.06 604.816 C 1210.1 606.397 1211.37 605.97 1213.8 605.752 C 1217.73 601.412 1220.13 571.309 1221.6 563.916 z"/>
<path transform="translate(0,0)" fill="rgb(242,106,79)" d="M 898.157 175.422 C 910.65 165.817 923.09 156.539 937.103 149.206 C 969.548 132.229 1008.5 125.221 1044.89 129.929 C 1084.82 135.096 1119.12 150.766 1150.07 176.261 C 1167.36 192.776 1184.78 212.483 1194.31 234.721 L 1194.83 235.206 C 1202.44 252.524 1209.33 272.036 1210.09 291.129 L 1210.51 295.742 C 1211.47 321.267 1208.48 343.985 1200.34 368.241 L 1199.67 370.116 C 1194.4 383.502 1187.72 398.633 1178.92 410.028 L 869.751 410.199 L 869.158 410.251 C 861.967 397.619 853.929 384.327 850.228 370.149 L 849.486 368.829 C 839.96 344.393 838.353 318.372 839.456 292.486 L 839.65 291.918 C 840.653 272.009 846.618 253.251 854.251 235.007 L 854.704 234.725 C 865.099 211.62 880.093 192.944 898.157 175.422 z"/>
<path transform="translate(0,0)" fill="rgb(239,60,45)" d="M 854.704 234.725 L 1194.31 234.721 L 1194.83 235.206 C 1202.44 252.524 1209.33 272.036 1210.09 291.129 L 942.013 291.07 L 873.504 290.947 C 863.421 290.937 849.264 289.133 839.65 291.918 C 840.653 272.009 846.618 253.251 854.251 235.007 L 854.704 234.725 z"/>
<path transform="translate(0,0)" fill="url(#Gradient2)" d="M 898.157 175.422 C 910.65 165.817 923.09 156.539 937.103 149.206 C 969.548 132.229 1008.5 125.221 1044.89 129.929 C 1084.82 135.096 1119.12 150.766 1150.07 176.261 C 1167.36 192.776 1184.78 212.483 1194.31 234.721 L 854.704 234.725 C 865.099 211.62 880.093 192.944 898.157 175.422 z"/>
<path transform="translate(0,0)" fill="rgb(180,103,140)" d="M 869.158 410.251 L 869.751 410.199 C 880.098 427.217 893.281 443.169 908.357 456.205 C 914.28 461.327 922.162 466.132 927.318 471.893 L 204.396 478.669 L 346.582 494.591 L 341.5 495.057 L 341.938 495.522 L 343.078 496.923 L 342.009 497.049 C 334.561 498.125 329.638 504.638 325.4 510.346 L 324.02 512.258 C 315.207 528.465 310.302 544.565 307.441 562.79 L 302.813 662.496 L 275.058 657.17 C 272.872 650.508 269.386 640.759 263.819 636.231 C 260.637 633.643 257.899 633.752 254 634.156 C 247.525 637.414 244.666 643.253 241.79 649.545 C 235.878 668.032 235.003 685.506 235.267 704.851 C 236.634 723.142 239.513 739.779 246.139 756.938 L -0 759.223 L 0 646.889 L 0 562.428 L 0 511.178 L -0 411.988 L 621.514 411.484 L 803.661 411.315 L 849.065 411.272 C 854.742 411.262 864.091 412.419 869.158 410.251 z"/>
<path transform="translate(0,0)" fill="rgb(242,148,121)" d="M 0 511.178 L 324.02 512.258 C 315.207 528.465 310.302 544.565 307.441 562.79 L 0 562.428 L 0 511.178 z"/>
<path transform="translate(0,0)" fill="rgb(254,223,212)" d="M 0 562.428 L 307.441 562.79 L 302.813 662.496 L 275.058 657.17 C 272.872 650.508 269.386 640.759 263.819 636.231 C 260.637 633.643 257.899 633.752 254 634.156 C 247.525 637.414 244.666 643.253 241.79 649.545 C 235.878 668.032 235.003 685.506 235.267 704.851 C 236.634 723.142 239.513 739.779 246.139 756.938 L -0 759.223 L 0 646.889 L 0 562.428 z"/>
<path transform="translate(0,0)" fill="rgb(242,106,79)" d="M 46.0369 642.802 C 48.4181 644.172 50.4436 643.631 53 643.214 C 55.8581 639.579 54.667 627.573 56.5674 622.158 C 59.4774 629.074 61.1937 635.595 61.5099 643.153 C 65.2652 643.122 73.0529 644.131 75.8936 642 L 76.7911 638.863 C 80.2147 637.077 82.7314 637.491 86.4635 638.742 C 90.2136 639.998 94.1245 642.691 98.1835 641.5 C 99.8676 636.489 99.0838 628.925 99.1821 623.571 C 99.2032 622.423 98.893 619.477 99.2702 618.5 C 99.3273 618.352 100.763 617.508 101 617.351 C 105.508 617.616 106.832 617.113 110 620.557 C 112.159 617.054 109.615 603.098 113.5 602.584 C 114.619 602.437 115.925 602.645 117.048 602.757 C 118.882 605.562 118.088 612.064 118.378 615.5 C 118.874 621.358 119.846 627.291 120.807 633.093 C 121.776 628.797 121.109 620.431 124 617.94 L 130 617.98 C 132.926 622.114 132.669 636.381 133.102 641.98 L 159.714 642.435 C 159.886 635.931 159.447 628.476 161.265 622.224 L 162.953 621.329 C 166.289 624.584 165.73 634.64 166.014 639.319 C 166.048 639.875 166.043 642.632 166.211 642.825 C 166.477 643.133 167.023 642.856 167.43 642.871 C 183.123 643.463 201.13 642.554 216.401 646.107 C 192.832 648.396 169.887 650.711 146.705 655.839 C 131.337 659.239 116.591 664.147 101.637 668.972 L 29.4773 647.625 C 34.4311 646.112 38.5046 645.094 41.9945 641.065 L 42.1527 626.5 L 44 625.07 L 45.9986 626.5 C 46.244 631.573 47.2873 637.88 46.0369 642.802 z"/>
<path transform="translate(0,0)" fill="rgb(239,60,45)" d="M 216.401 646.107 C 225.356 645.855 233.085 647.891 241.79 649.545 C 235.878 668.032 235.003 685.506 235.267 704.851 L 101.637 668.972 C 116.591 664.147 131.337 659.239 146.705 655.839 C 169.887 650.711 192.832 648.396 216.401 646.107 z"/>
<path transform="translate(0,0)" fill="rgb(203,27,22)" d="M 0 646.889 L 1.67994 641.759 C 6.64323 639.877 24.1213 645.637 29.4773 647.625 L 101.637 668.972 L 235.267 704.851 C 236.634 723.142 239.513 739.779 246.139 756.938 L -0 759.223 L 0 646.889 z"/>
<path transform="translate(0,0)" fill="rgb(144,89,148)" d="M 0 175.25 L 680.627 175.077 L 836.935 174.955 L 877.946 174.875 C 884.302 174.867 891.977 174.049 898.157 175.422 C 880.093 192.944 865.099 211.62 854.704 234.725 L 854.251 235.007 C 846.618 253.251 840.653 272.009 839.65 291.918 L 839.456 292.486 C 838.353 318.372 839.96 344.393 849.486 368.829 L 850.228 370.149 C 853.929 384.327 861.967 397.619 869.158 410.251 C 864.091 412.419 854.742 411.262 849.065 411.272 L 803.661 411.315 L 621.514 411.484 L -0 411.988 L 0 291.752 L 0 177.027 L 0 175.25 z"/>
<path transform="translate(0,0)" fill="rgb(180,103,140)" d="M 425.304 374.5 C 428.73 373.754 433.264 374.601 436.758 375.004 L 461.571 378.35 L 545.5 388.996 L 610.938 399.387 L 610.5 400.49 C 606.474 399.597 601.737 399.699 597.567 399.247 L 566 395.735 L 455.809 381.212 L 434.6 378.162 C 431.057 377.668 426.665 377.57 423.421 376.031 L 425.304 374.5 z"/>
<path transform="translate(0,0)" fill="rgb(111,73,145)" d="M 0 177.027 C 4.73769 182.334 9.40145 187.627 13.1072 193.728 C 15.1379 197.071 17.1929 205.129 19.5843 207.538 C 37.1698 200.917 56.1209 199.384 73.6102 207.412 C 84.5835 212.449 95.1299 221.118 100.824 231.927 L 102.68 235.11 C 105.421 243.086 107.136 250.48 107.541 258.927 C 115.66 256.752 123.2 253.236 131.494 251.449 C 155.572 246.263 183.334 250.504 204.665 262.823 C 217.26 270.098 228.679 279.215 237.219 291.122 C 229.536 290.234 221.128 290.94 213.35 290.931 L 167.371 290.867 L 1.83667 290.884 L 0 291.752 L 0 177.027 z"/>
<path transform="translate(0,0)" fill="rgb(1,109,176)" d="M 237.735 291.229 C 254.887 289.456 273.225 290.744 290.487 290.772 L 394.472 290.933 L 729.368 291.065 C 742.06 291.062 835.988 289.809 838.466 291.722 L 839.456 292.486 C 838.353 318.372 839.96 344.393 849.486 368.829 C 848.938 369.207 848.069 370.01 847.476 370.218 C 844.553 371.243 837.247 370.213 833.692 370.211 L 782.391 370.189 L 528.956 370.29 L 424.697 370.985 C 416.482 370.753 407.609 368.182 399.5 366.628 C 387.613 364.351 376.59 363.09 364.456 362.955 C 362.433 355.53 360.154 348.465 356.246 341.776 C 346.833 325.662 330.597 313.512 312.564 308.921 C 291.178 303.477 271.836 307.753 253.191 318.852 C 250.704 316.578 248.899 310.552 247.325 307.391 C 244.539 301.796 241.091 296.494 237.735 291.229 z"/>
<path transform="translate(0,0)" fill="rgb(1,109,176)" d="M 0 175.25 L 680.627 175.077 L 836.935 174.955 L 877.946 174.875 C 884.302 174.867 891.977 174.049 898.157 175.422 C 880.093 192.944 865.099 211.62 854.704 234.725 L 854.251 235.007 C 846.618 253.251 840.653 272.009 839.65 291.918 L 839.456 292.486 L 838.466 291.722 C 835.988 289.809 742.06 291.062 729.368 291.065 L 394.472 290.933 L 290.487 290.772 C 273.225 290.744 254.887 289.456 237.735 291.229 L 237.219 291.122 C 228.679 279.215 217.26 270.098 204.665 262.823 C 183.334 250.504 155.572 246.263 131.494 251.449 C 123.2 253.236 115.66 256.752 107.541 258.927 C 107.136 250.48 105.421 243.086 102.68 235.11 L 100.824 231.927 C 95.1299 221.118 84.5835 212.449 73.6102 207.412 C 56.1209 199.384 37.1698 200.917 19.5843 207.538 C 17.1929 205.129 15.1379 197.071 13.1072 193.728 C 9.40145 187.627 4.73769 182.334 0 177.027 L 0 175.25 z"/>
<path transform="translate(0,0)" fill="rgb(3,50,112)" d="M 102.68 235.11 L 854.251 235.007 C 846.618 253.251 840.653 272.009 839.65 291.918 L 839.456 292.486 L 838.466 291.722 C 835.988 289.809 742.06 291.062 729.368 291.065 L 394.472 290.933 L 290.487 290.772 C 273.225 290.744 254.887 289.456 237.735 291.229 L 237.219 291.122 C 228.679 279.215 217.26 270.098 204.665 262.823 C 183.334 250.504 155.572 246.263 131.494 251.449 C 123.2 253.236 115.66 256.752 107.541 258.927 C 107.136 250.48 105.421 243.086 102.68 235.11 z"/>
<path transform="translate(0,0)" fill="rgb(3,50,112)" d="M 0 174 L -0 -0 L 1546.19 -0.06816 L 1921.92 -0.0373406 C 1935.66 -0.0347668 2042.18 -1.93459 2048 1 L 2048 1.75 L 2048 146.726 L 2047.04 146.797 L 2036.45 146.684 C 2013.04 148.379 1994.41 157.928 1979.08 175.652 L 1978.76 176.039 C 1968.66 190.197 1965.05 202.099 1962.94 219.182 C 1949.08 211.242 1935.36 208.02 1919.56 212.307 C 1907.69 215.53 1896.04 224.196 1889.85 234.95 C 1886.97 240.731 1885.09 246.234 1883.5 252.484 C 1845.23 245.682 1802.99 250.909 1770.41 273.858 C 1763.31 278.864 1757.41 285.031 1751.37 291.229 L 1750.63 291.783 C 1735.6 310.601 1727.02 332.758 1729.72 357.025 L 1731.39 369.016 L 1594.16 369.056 L 1590.83 325.112 L 1521.95 312.543 L 1469.16 327.489 L 1465.89 369.78 L 1447.97 369.898 L 1246.58 369.897 L 1212.6 369.893 C 1210.18 369.893 1204.08 370.647 1202 369.892 C 1201.63 369.759 1200.68 368.576 1200.34 368.241 C 1208.48 343.985 1211.47 321.267 1210.51 295.742 L 1210.09 291.129 C 1209.33 272.036 1202.44 252.524 1194.83 235.206 L 1194.31 234.721 C 1184.78 212.483 1167.36 192.776 1150.07 176.261 C 1119.12 150.766 1084.82 135.096 1044.89 129.929 C 1008.5 125.221 969.548 132.229 937.103 149.206 C 923.09 156.539 910.65 165.817 898.157 175.422 C 891.977 174.049 884.302 174.867 877.946 174.875 L 836.935 174.955 L 680.627 175.077 L 0 175.25 L 0 174 z"/>
<path transform="translate(0,0)" fill="rgb(1,109,176)" d="M 1150.07 176.261 C 1153.6 174.848 1158.17 175.53 1161.92 175.601 L 1182.53 175.725 L 1264.78 175.787 L 1739.6 175.825 L 1896.38 175.797 C 1923.64 175.784 1951.59 174.449 1978.76 176.039 C 1968.66 190.197 1965.05 202.099 1962.94 219.182 C 1949.08 211.242 1935.36 208.02 1919.56 212.307 C 1907.69 215.53 1896.04 224.196 1889.85 234.95 C 1886.97 240.731 1885.09 246.234 1883.5 252.484 C 1845.23 245.682 1802.99 250.909 1770.41 273.858 C 1763.31 278.864 1757.41 285.031 1751.37 291.229 L 1750.63 291.783 C 1735.6 310.601 1727.02 332.758 1729.72 357.025 L 1731.39 369.016 L 1594.16 369.056 L 1590.83 325.112 L 1521.95 312.543 L 1469.16 327.489 L 1465.89 369.78 L 1447.97 369.898 L 1246.58 369.897 L 1212.6 369.893 C 1210.18 369.893 1204.08 370.647 1202 369.892 C 1201.63 369.759 1200.68 368.576 1200.34 368.241 C 1208.48 343.985 1211.47 321.267 1210.51 295.742 L 1210.09 291.129 C 1209.33 272.036 1202.44 252.524 1194.83 235.206 L 1194.31 234.721 C 1184.78 212.483 1167.36 192.776 1150.07 176.261 z"/>
<path transform="translate(0,0)" fill="rgb(3,50,112)" d="M 1194.83 235.206 L 1889.85 234.95 C 1886.97 240.731 1885.09 246.234 1883.5 252.484 C 1845.23 245.682 1802.99 250.909 1770.41 273.858 C 1763.31 278.864 1757.41 285.031 1751.37 291.229 L 1750.63 291.783 L 1649.5 292.002 L 1349.7 292.056 L 1249.73 291.913 L 1224.33 291.719 C 1220.12 291.68 1215.17 291.079 1211.09 292.087 L 1210.51 295.742 L 1210.09 291.129 C 1209.33 272.036 1202.44 252.524 1194.83 235.206 z"/>
<path transform="translate(0,0)" fill="rgb(1,109,176)" d="M 1210.51 295.742 L 1211.09 292.087 C 1215.17 291.079 1220.12 291.68 1224.33 291.719 L 1249.73 291.913 L 1349.7 292.056 L 1649.5 292.002 L 1750.63 291.783 C 1735.6 310.601 1727.02 332.758 1729.72 357.025 L 1731.39 369.016 L 1594.16 369.056 L 1590.83 325.112 L 1521.95 312.543 L 1469.16 327.489 L 1465.89 369.78 L 1447.97 369.898 L 1246.58 369.897 L 1212.6 369.893 C 1210.18 369.893 1204.08 370.647 1202 369.892 C 1201.63 369.759 1200.68 368.576 1200.34 368.241 C 1208.48 343.985 1211.47 321.267 1210.51 295.742 z"/>
<path transform="translate(0,0)" fill="rgb(239,60,45)" d="M 2036.45 146.684 L 2047.04 146.797 L 2048 146.726 L 2048 291.04 L 2048 291.755 L 2048 411.888 L 2048 474.879 L 2048 561.299 L 2048 644.892 L 2048 748.715 L 2048 813.018 L 2048 862.747 L 2048 973.14 L 2048 1023 C 2042.18 1025.93 1935.66 1024.03 1921.92 1024.04 L 1546.19 1024.07 L -0 1024 L 0 894.17 L 0 802.657 L -0 759.223 L 246.139 756.938 C 239.513 739.779 236.634 723.142 235.267 704.851 C 235.003 685.506 235.878 668.032 241.79 649.545 C 244.666 643.253 247.525 637.414 254 634.156 C 257.899 633.752 260.637 633.643 263.819 636.231 C 269.386 640.759 272.872 650.508 275.058 657.17 L 302.813 662.496 L 307.441 562.79 C 310.302 544.565 315.207 528.465 324.02 512.258 L 325.4 510.346 C 329.638 504.638 334.561 498.125 342.009 497.049 L 343.078 496.923 C 346.531 498.138 348.761 499.534 351.524 501.929 L 359.706 510.844 C 369.312 527.234 374.145 544.124 376.691 562.898 L 733.259 564.034 L 733.303 563.635 C 734.156 558.064 735.213 549.22 739.915 545.737 C 742.959 544.869 743.265 544.951 746.261 546.012 C 749.07 547.901 749.645 552.082 750.255 555.19 L 751.688 563.317 L 757.281 593.858 L 758.731 594.5 L 761.5 591.899 C 764.518 592.55 765.115 592.907 766.766 595.508 C 771.646 603.199 764.397 617.698 777.637 620.158 C 779.035 620.418 780.451 620.08 781.805 619.741 C 784.808 616.184 785.787 612.14 790 610.134 C 795.605 613.081 797.413 619.873 799.206 625.628 L 805.205 648.771 C 805.946 652.031 806.408 657.074 808.058 659.917 C 814.56 665.574 825.383 669.039 833.266 672.666 L 879.726 694.04 L 1207.33 672.801 L 1218.52 625.993 L 1287.05 618.915 C 1290.3 614.84 1292.09 604.465 1294.31 599.119 C 1301.06 602.786 1317.9 602.296 1325.84 603.102 L 1325.92 583.758 L 1356.02 577.696 L 1358.05 563.967 L 1368.53 498.162 L 1388.9 495.915 L 1389.14 554.183 L 1389.98 554.207 L 1406.47 542.851 C 1407.08 542.427 1410.41 540.472 1410.64 539.962 C 1411.25 538.58 1410.84 533.238 1410.9 531.45 L 1411.89 505.096 C 1412.12 500.332 1412.01 494.673 1413.41 490.096 C 1415.28 484.03 1420.74 476.798 1423.87 471.098 C 1423.31 466.85 1424.63 461.256 1425.16 456.982 L 1429.73 422.762 L 1443.95 423.874 C 1444.46 431.176 1445.37 467.611 1448 471.042 L 1455.5 470.916 C 1455.8 470.642 1456.95 469.804 1457.07 469.5 C 1458.25 466.528 1457.87 459.645 1458.16 456.211 L 1462.07 410.998 L 1465.89 369.78 L 1469.16 327.489 L 1521.95 312.543 L 1590.83 325.112 L 1594.16 369.056 L 1731.39 369.016 L 1729.72 357.025 C 1727.02 332.758 1735.6 310.601 1750.63 291.783 L 1751.37 291.229 C 1757.41 285.031 1763.31 278.864 1770.41 273.858 C 1802.99 250.909 1845.23 245.682 1883.5 252.484 C 1885.09 246.234 1886.97 240.731 1889.85 234.95 C 1896.04 224.196 1907.69 215.53 1919.56 212.307 C 1935.36 208.02 1949.08 211.242 1962.94 219.182 C 1965.05 202.099 1968.66 190.197 1978.76 176.039 L 1979.08 175.652 C 1994.41 157.928 2013.04 148.379 2036.45 146.684 z"/>
<path transform="translate(0,0)" fill="rgb(203,27,22)" d="M 437.965 711.986 L 566.283 748.165 L 594.269 755.943 C 599.319 757.323 605.124 758.345 609.792 760.712 L 427.091 755.648 C 433.871 741.727 435.782 727.096 437.965 711.986 z"/>
<path transform="translate(0,0)" fill="rgb(242,106,79)" d="M 733.259 564.034 L 733.303 563.635 C 734.156 558.064 735.213 549.22 739.915 545.737 C 742.959 544.869 743.265 544.951 746.261 546.012 C 749.07 547.901 749.645 552.082 750.255 555.19 L 751.688 563.317 L 757.281 593.858 L 758.731 594.5 L 761.5 591.899 C 764.518 592.55 765.115 592.907 766.766 595.508 C 771.646 603.199 764.397 617.698 777.637 620.158 C 779.035 620.418 780.451 620.08 781.805 619.741 C 784.808 616.184 785.787 612.14 790 610.134 C 795.605 613.081 797.413 619.873 799.206 625.628 L 805.205 648.771 C 805.946 652.031 806.408 657.074 808.058 659.917 C 814.56 665.574 825.383 669.039 833.266 672.666 L 879.726 694.04 L 1207.33 672.801 L 1197.2 713.729 L 1140.08 713.885 C 1134.22 713.905 1125.26 712.712 1119.87 714.176 C 1114.72 715.576 1108.45 721.466 1103.1 723.785 C 1094.17 722.349 1084.55 722.586 1075.51 722.24 L 1022.83 720.852 L 869.896 718.029 C 850.107 717.601 830.516 715.121 810.819 713.424 L 700.515 703.382 L 614.819 695.641 C 593.311 693.957 570.987 693.29 549.693 690.008 L 640.549 670.162 C 649.963 668.171 655.779 667.393 661.297 658.92 C 665.135 650.362 668.018 640.692 670.088 631.546 C 671.564 625.019 672.38 617.358 675.363 611.361 C 678.301 609.749 679.278 610.038 682.5 610.352 C 685.903 613.99 687.045 617.942 688.524 622.566 C 691.401 615.931 692.391 604.599 697.5 599.532 L 699.5 599.814 C 702.797 604.359 702.529 611.963 703.086 617.5 L 705 619.019 C 717.23 614.346 713.595 584.248 719.244 573.125 C 720.661 570.334 722.128 569.259 725 568.264 C 727.629 569.519 728.477 570.697 729.795 573.208 C 730.344 574.255 730.499 574.156 731.5 574.683 L 733.259 564.034 z"/>
<path transform="translate(0,0)" fill="rgb(239,60,45)" d="M 746.261 546.012 C 749.07 547.901 749.645 552.082 750.255 555.19 L 751.688 563.317 L 757.281 593.858 L 758.731 594.5 L 761.5 591.899 C 764.518 592.55 765.115 592.907 766.766 595.508 C 771.646 603.199 764.397 617.698 777.637 620.158 C 779.035 620.418 780.451 620.08 781.805 619.741 C 784.808 616.184 785.787 612.14 790 610.134 C 795.605 613.081 797.413 619.873 799.206 625.628 L 805.205 648.771 C 805.946 652.031 806.408 657.074 808.058 659.917 C 814.56 665.574 825.383 669.039 833.266 672.666 L 879.726 694.04 C 883.603 695.855 889.505 697.705 891.806 701.5 C 891.389 704.02 891.504 704.721 889.739 706.5 C 855.462 704.258 821.382 703.754 787.456 698.141 C 783.081 697.417 775.895 697.082 772.128 694.795 C 773.821 693.701 777.631 694.298 779.758 694.344 L 806.05 695.5 C 809.142 695.708 812.979 696.605 815.702 695 C 815.03 692.774 814.832 692.308 812.966 690.907 C 806.363 685.95 796.767 682.855 788.962 680.201 C 785.962 679.181 781.368 678.314 778.942 676.404 C 774.027 672.532 774.762 663.111 771.517 657.827 C 767.673 651.568 759.627 646.972 754.689 641.252 C 750.819 636.768 748.43 631.066 747.134 625.344 C 745.264 617.087 745.851 607.669 745.676 599.207 C 745.308 581.447 744.864 563.746 746.261 546.012 z"/>
<path transform="translate(0,0)" fill="rgb(254,223,212)" d="M 376.691 562.898 L 733.259 564.034 L 731.5 574.683 C 730.499 574.156 730.344 574.255 729.795 573.208 C 728.477 570.697 727.629 569.519 725 568.264 C 722.128 569.259 720.661 570.334 719.244 573.125 C 713.595 584.248 717.23 614.346 705 619.019 L 703.086 617.5 C 702.529 611.963 702.797 604.359 699.5 599.814 L 697.5 599.532 C 692.391 604.599 691.401 615.931 688.524 622.566 C 687.045 617.942 685.903 613.99 682.5 610.352 C 679.278 610.038 678.301 609.749 675.363 611.361 C 672.38 617.358 671.564 625.019 670.088 631.546 C 668.018 640.692 665.135 650.362 661.297 658.92 C 655.779 667.393 649.963 668.171 640.549 670.162 L 549.693 690.008 C 538.605 690.591 527.192 688.376 516.246 686.825 L 470.221 680.21 C 460.706 678.75 449.566 678.535 440.668 675.059 L 439.98 675.011 C 440.038 657.88 440.183 640.577 436.493 623.763 C 434.738 617.684 431.678 609.551 425.859 606.224 C 423.386 604.81 421.261 604.792 418.5 605.08 C 411.789 608.426 408.174 613.871 405.78 620.875 C 401.396 633.699 400.258 647.917 399.002 661.32 L 380.983 660.952 L 376.691 562.898 z"/>
<path transform="translate(0,0)" fill="rgb(242,148,121)" d="M 440.668 675.059 C 453.479 670.242 468.742 667.655 482.216 665.481 C 487.847 664.573 494.661 663.084 500.287 664.266 C 512.178 666.765 523.702 672.272 535.917 672.835 C 547.381 673.365 558.818 666.026 570.441 665.272 C 583.362 664.434 595.774 670.21 608.579 669.238 C 617.053 668.595 626.516 663.059 634.889 660.767 C 643.157 658.503 652.776 658.963 661.297 658.92 C 655.779 667.393 649.963 668.171 640.549 670.162 L 549.693 690.008 C 538.605 690.591 527.192 688.376 516.246 686.825 L 470.221 680.21 C 460.706 678.75 449.566 678.535 440.668 675.059 z"/>
<path transform="translate(0,0)" fill="rgb(3,50,112)" d="M 342.009 497.049 L 343.078 496.923 C 346.531 498.138 348.761 499.534 351.524 501.929 L 359.706 510.844 C 369.312 527.234 374.145 544.124 376.691 562.898 L 380.983 660.952 L 399.002 661.32 C 400.258 647.917 401.396 633.699 405.78 620.875 C 408.174 613.871 411.789 608.426 418.5 605.08 C 421.261 604.792 423.386 604.81 425.859 606.224 C 431.678 609.551 434.738 617.684 436.493 623.763 C 440.183 640.577 440.038 657.88 439.98 675.011 L 438.48 705.588 L 438.258 705.666 L 437.965 711.986 C 435.782 727.096 433.871 741.727 427.091 755.648 C 417.831 770.848 407.005 784.542 388.853 788.96 C 387.002 789.41 384.279 789.554 382.951 790.845 L 383.032 819.697 L 382.98 899.374 C 379.559 901.226 371.685 907.053 368.396 907.451 C 365.773 907.768 358.423 904.861 355.632 904.133 L 314.087 894.145 C 310.303 893.288 304.063 890.948 300.351 892.01 L 300.689 850.718 L 300.889 812.219 L 300.86 793.05 C 292.655 793.822 285.354 793.682 277.513 790.78 C 261.439 784.831 252.966 771.794 246.139 756.938 C 239.513 739.779 236.634 723.142 235.267 704.851 C 235.003 685.506 235.878 668.032 241.79 649.545 C 244.666 643.253 247.525 637.414 254 634.156 C 257.899 633.752 260.637 633.643 263.819 636.231 C 269.386 640.759 272.872 650.508 275.058 657.17 L 302.813 662.496 L 307.441 562.79 C 310.302 544.565 315.207 528.465 324.02 512.258 L 325.4 510.346 C 329.638 504.638 334.561 498.125 342.009 497.049 z"/>
<path transform="translate(0,0)" fill="rgb(203,27,22)" d="M 382.079 697.554 L 395.076 701.797 C 394.401 708.781 393.451 715.822 390.933 722.416 C 389.462 726.266 387.457 730.257 383.5 732.016 C 381.855 729.608 382.445 726.245 382.408 723.334 L 382.079 697.554 z"/>
<path transform="translate(0,0)" fill="rgb(239,60,45)" d="M 380.983 660.952 L 399.002 661.32 L 395.076 701.797 L 382.079 697.554 L 380.983 660.952 z"/>
<path transform="translate(0,0)" fill="rgb(2,2,64)" d="M 438.258 705.666 L 437.697 705.04 C 436.442 707.056 436.685 708.77 436.392 711 C 435.772 715.716 434.521 720.848 433.476 725.5 C 431.425 734.633 425.099 749.461 419.244 756.483 C 410.836 766.567 396.505 779.186 383.086 780.658 L 383.005 779.183 C 390.647 775.515 397.906 771.188 404.364 765.654 C 413.512 757.815 419.175 747.82 423.804 736.893 C 431.152 719.545 434.705 701.519 435.714 682.69 C 436.763 663.099 435.104 643.342 436.493 623.763 C 440.183 640.577 440.038 657.88 439.98 675.011 L 438.48 705.588 L 438.258 705.666 z"/>
<path transform="translate(0,0)" fill="rgb(239,60,45)" d="M 275.058 657.17 L 302.813 662.496 L 301.127 743.28 C 279.505 718.581 283.991 686.855 275.058 657.17 z"/>
<path transform="translate(0,0)" fill="rgb(203,27,22)" d="M 1465.89 369.78 L 1469.16 327.489 L 1521.95 312.543 L 1516.06 479.746 L 1514.86 511.971 C 1514.67 515.356 1513.38 521.24 1513.99 524.413 C 1514.13 525.127 1517.33 528.087 1518.01 528.834 L 1538.8 550.87 C 1540.28 552.404 1544.43 555.727 1545.24 557.529 C 1545.75 558.668 1545.21 563.991 1545.21 565.553 L 1545.09 594.742 L 1544.88 643.612 C 1544.86 647.799 1545.84 655.899 1544.57 659.602 C 1543.19 663.596 1538.08 669.065 1535.52 672.797 L 1495.32 730.486 L 1429.28 728.226 C 1421.53 727.862 1413.41 728.297 1405.76 727.168 L 1355.02 790 L 1355.72 791.957 L 835.708 774.384 C 851.959 771.012 868.469 769.711 884.859 767.257 L 1016.82 748.547 L 1052.09 743.679 C 1059.44 742.75 1068.29 742.212 1075.38 740.202 C 1078 739.458 1080.44 737.306 1082.82 735.967 L 1103.1 723.785 C 1108.45 721.466 1114.72 715.576 1119.87 714.176 C 1125.26 712.712 1134.22 713.905 1140.08 713.885 L 1197.2 713.729 L 1207.33 672.801 L 1218.52 625.993 L 1287.05 618.915 C 1290.3 614.84 1292.09 604.465 1294.31 599.119 C 1301.06 602.786 1317.9 602.296 1325.84 603.102 L 1325.92 583.758 L 1356.02 577.696 L 1358.05 563.967 L 1368.53 498.162 L 1388.9 495.915 L 1389.14 554.183 L 1389.98 554.207 L 1406.47 542.851 C 1407.08 542.427 1410.41 540.472 1410.64 539.962 C 1411.25 538.58 1410.84 533.238 1410.9 531.45 L 1411.89 505.096 C 1412.12 500.332 1412.01 494.673 1413.41 490.096 C 1415.28 484.03 1420.74 476.798 1423.87 471.098 C 1423.31 466.85 1424.63 461.256 1425.16 456.982 L 1429.73 422.762 L 1443.95 423.874 C 1444.46 431.176 1445.37 467.611 1448 471.042 L 1455.5 470.916 C 1455.8 470.642 1456.95 469.804 1457.07 469.5 C 1458.25 466.528 1457.87 459.645 1458.16 456.211 L 1462.07 410.998 L 1465.89 369.78 z"/>
<path transform="translate(0,0)" fill="rgb(203,27,22)" d="M 1720.94 803.894 L 2046.81 813.02 L 2048 813.018 L 2048 862.747 L 2047.03 863.117 L 2046.21 862.835 L 670.828 943.158 C 641.494 942.287 611.863 938.308 582.585 935.924 L 562.457 934.376 C 559.74 934.224 555.448 934.677 552.904 934.027 C 550.689 933.461 547.102 930.367 545.159 929.005 L 523.802 913.177 L 481.588 923.483 L 418.825 882.704 L 382.98 899.374 L 383.032 819.697 C 390.399 821.552 398.936 821.923 406.508 822.801 L 464.425 828.261 L 682.98 840.483 L 774.834 840.91 C 788.203 840.909 802.07 839.887 815.369 840.721 L 641.817 865.789 C 645.087 867.821 655.09 867.792 659.201 868.139 L 716.24 872.171 L 781.5 874.809 C 850.66 876.063 922.378 872.365 990 856.971 C 1004.18 853.743 1018.36 850.665 1032.17 846.044 C 1043.33 842.309 1053.68 836.984 1064.73 833.037 C 1080.97 827.235 1098.62 824.398 1115.66 822.161 C 1154.76 817.028 1194.63 816.168 1233.98 814.13 C 1286.54 811.408 1338.54 809.41 1391.2 811.46 C 1402.76 811.91 1414.36 811.448 1425.87 812.73 L 1267.7 830.906 C 1286.14 834.755 1306.39 835.291 1325.18 836.281 C 1353.87 837.794 1382.3 838.359 1411.01 836.9 C 1478.49 833.47 1545.17 823.265 1612.88 822.116 L 1817.1 823.887 L 1862.96 823.242 C 1870.21 823.083 1878.02 823.73 1885.12 822.274 C 1881.82 820.861 1876.63 821.182 1873 820.806 L 1846 818.023 L 1794.07 812.947 C 1770.32 810.943 1744.04 809.829 1720.94 803.894 z"/>
<path transform="translate(0,0)" fill="rgb(101,1,12)" d="M 1601.5 848.628 L 1618.82 852.726 C 1620.48 853.134 1624.06 853.55 1625.41 854.356 C 1630.07 857.142 1635.96 865.226 1639.96 869.348 C 1633.76 872.727 1623.64 873.513 1616.75 873.511 C 1601.9 873.242 1588.73 871.658 1574.07 869.22 L 1601.5 848.628 z"/>
<path transform="translate(0,0)" fill="rgb(2,2,64)" d="M -0 759.223 L 246.139 756.938 C 252.966 771.794 261.439 784.831 277.513 790.78 C 285.354 793.682 292.655 793.822 300.86 793.05 L 300.889 812.219 L 300.689 850.718 L 300.351 892.01 C 304.063 890.948 310.303 893.288 314.087 894.145 L 355.632 904.133 C 358.423 904.861 365.773 907.768 368.396 907.451 C 371.685 907.053 379.559 901.226 382.98 899.374 L 418.825 882.704 L 481.588 923.483 L 523.802 913.177 L 545.159 929.005 C 547.102 930.367 550.689 933.461 552.904 934.027 C 555.448 934.677 559.74 934.224 562.457 934.376 L 582.585 935.924 C 611.863 938.308 641.494 942.287 670.828 943.158 L 2046.21 862.835 L 2047.03 863.117 L 2048 862.747 L 2048 973.14 L 2048 1023 C 2042.18 1025.93 1935.66 1024.03 1921.92 1024.04 L 1546.19 1024.07 L -0 1024 L 0 894.17 L 0 802.657 L -0 759.223 z"/>
<path transform="translate(0,0)" fill="rgb(203,27,22)" d="M -0 759.223 L 246.139 756.938 C 252.966 771.794 261.439 784.831 277.513 790.78 C 285.354 793.682 292.655 793.822 300.86 793.05 L 300.889 812.219 L 300.689 850.718 L 300.351 892.01 L 299 893.615 L 250.298 872.642 L 204.437 899.903 C 201.186 901.816 194.932 906.634 191.57 907.444 C 189.558 907.928 185.247 907.096 182.947 906.964 L 155.27 904.963 L 1.00105 894.063 L 0 894.17 L 0 802.657 L -0 759.223 z"/>
<path transform="translate(0,0)" fill="rgb(101,1,12)" d="M 80.1452 841.859 C 83.8765 842.377 114.717 846.185 115.729 847.002 C 119.697 850.201 123.784 857.447 127.029 861.661 C 127.902 862.794 129.301 865.068 130.53 865.721 C 135.759 868.501 146.793 869.008 152.932 870.012 C 154.186 870.217 157.367 870.321 158.386 870.893 C 161.749 872.782 166.547 879.094 169.446 882.008 L 122.75 881.401 L 36.0359 881.115 C 35.9368 878.84 40.415 873.347 41.781 871.257 L 60.853 868.876 L 80.1452 841.859 z"/>
<path transform="translate(0,0)" fill="rgb(239,60,45)" d="M -0 759.223 L 246.139 756.938 C 252.966 771.794 261.439 784.831 277.513 790.78 C 285.354 793.682 292.655 793.822 300.86 793.05 L 300.889 812.219 L 1.31646 803.248 L 0 802.657 L -0 759.223 z"/>
<path transform="translate(0,0)" fill="rgb(101,1,12)" d="M 2046.21 862.835 L 2047.03 863.117 L 2048 862.747 L 2048 973.14 L 2046.85 973.019 L 1823.34 923.989 C 1813.59 914.783 1802.63 905.443 1794.2 895.021 C 1789.85 889.659 1786.28 883.351 1782.67 877.472 L 1747.12 914.697 C 1740.57 914.008 1732.2 912.043 1725.77 912.573 C 1720.88 912.975 1714.1 921.315 1708.54 922.671 C 1705.7 923.362 1702.5 923.284 1699.56 923.841 L 1667.89 929.697 L 1571.13 947.405 L 1539.41 953.6 C 1537.16 954.073 1531.69 955.985 1529.61 955.674 C 1524.97 954.977 1503.56 943.253 1501.49 943.645 C 1500.91 943.756 1498.25 946.24 1497.59 946.756 C 1493.79 949.731 1485.26 957.302 1480.92 958.743 C 1476.17 960.32 1467.18 959.743 1461.99 960.147 L 1377.65 965.844 L 1201.17 978.09 L 1121.25 983.916 C 1103.95 984.784 1084.76 981.016 1067.5 979.331 L 966.391 969.732 L 670.828 943.158 L 2046.21 862.835 z"/>
<path transform="translate(0,0)" fill="rgb(134,12,12)" d="M 2036.45 146.684 L 2047.04 146.797 L 2048 146.726 L 2048 291.04 L 2048 291.755 L 2048 411.888 L 2048 474.879 L 2048 561.299 L 2048 644.892 L 2048 748.715 L 2048 813.018 L 2046.81 813.02 L 1720.94 803.894 L 1593.55 799.815 L 1355.72 791.957 L 1355.02 790 L 1405.76 727.168 C 1413.41 728.297 1421.53 727.862 1429.28 728.226 L 1495.32 730.486 L 1535.52 672.797 C 1538.08 669.065 1543.19 663.596 1544.57 659.602 C 1545.84 655.899 1544.86 647.799 1544.88 643.612 L 1545.09 594.742 L 1545.21 565.553 C 1545.21 563.991 1545.75 558.668 1545.24 557.529 C 1544.43 555.727 1540.28 552.404 1538.8 550.87 L 1518.01 528.834 C 1517.33 528.087 1514.13 525.127 1513.99 524.413 C 1513.38 521.24 1514.67 515.356 1514.86 511.971 L 1516.06 479.746 L 1521.95 312.543 L 1590.83 325.112 L 1594.16 369.056 L 1731.39 369.016 L 1729.72 357.025 C 1727.02 332.758 1735.6 310.601 1750.63 291.783 L 1751.37 291.229 C 1757.41 285.031 1763.31 278.864 1770.41 273.858 C 1802.99 250.909 1845.23 245.682 1883.5 252.484 C 1885.09 246.234 1886.97 240.731 1889.85 234.95 C 1896.04 224.196 1907.69 215.53 1919.56 212.307 C 1935.36 208.02 1949.08 211.242 1962.94 219.182 C 1965.05 202.099 1968.66 190.197 1978.76 176.039 L 1979.08 175.652 C 1994.41 157.928 2013.04 148.379 2036.45 146.684 z"/>
<path transform="translate(0,0)" fill="rgb(180,103,140)" d="M 1600.85 447.064 C 1615.77 446.953 1633.21 448.579 1647.78 445.893 L 1646.21 473.435 L 1602.97 473.547 L 1600.85 447.064 z"/>
<path transform="translate(0,0)" fill="rgb(242,148,121)" d="M 1602.97 473.547 L 1646.21 473.435 L 1644.21 518.962 L 1627.66 518.885 L 1611.17 499.99 C 1609.48 498.043 1605.91 494.875 1604.84 492.696 C 1603 488.926 1603.36 478.014 1602.97 473.547 z"/>
<path transform="translate(0,0)" fill="rgb(190,108,137)" d="M 1597.85 412.181 L 1649.33 412.222 L 1647.78 445.893 C 1633.21 448.579 1615.77 446.953 1600.85 447.064 L 1597.85 412.181 z"/>
<path transform="translate(0,0)" fill="rgb(101,1,12)" d="M 1694.55 564.719 C 1694.81 563.543 1694.99 562.521 1695.89 561.654 C 1696.67 560.909 1696.55 561.1 1697.53 561.097 L 1783.59 560.966 L 2048 561.299 L 2048 644.892 L 2048 748.715 L 2048 813.018 L 2046.81 813.02 L 1720.94 803.894 L 1593.55 799.815 L 1586.5 798.589 L 1586.84 797.5 L 1758.43 715.335 L 1752.72 608.999 L 1698.14 609.016 L 1694.55 564.719 z"/>
<path transform="translate(0,0)" fill="rgb(239,60,45)" d="M 2027.4 646.487 C 2028.64 645.155 2037 643.911 2039.18 643.497 C 2043.63 642.654 2044.19 642.297 2048 644.892 L 2048 748.715 L 2046.94 748.683 L 1852.84 715.771 C 1850.62 710.52 1849.87 703.48 1848.73 697.836 C 1856.13 694.285 1863.85 691.806 1871.5 688.907 C 1897.74 678.963 1924.86 671.399 1951.96 664.177 C 1976.8 657.556 2001.97 650.485 2027.4 646.487 z"/>
<path transform="translate(0,0)" fill="rgb(254,223,212)" d="M 1694.55 564.719 C 1694.81 563.543 1694.99 562.521 1695.89 561.654 C 1696.67 560.909 1696.55 561.1 1697.53 561.097 L 1783.59 560.966 L 2048 561.299 L 2048 644.892 C 2044.19 642.297 2043.63 642.654 2039.18 643.497 C 2037 643.911 2028.64 645.155 2027.4 646.487 C 2001.97 650.485 1976.8 657.556 1951.96 664.177 C 1924.86 671.399 1897.74 678.963 1871.5 688.907 C 1863.85 691.806 1856.13 694.285 1848.73 697.836 L 1840.89 665.977 C 1835.37 665.078 1828.61 660.919 1823.39 658.582 C 1812.69 653.788 1801.58 648.965 1790.44 645.278 L 1787.83 608.979 L 1752.72 608.999 L 1698.14 609.016 L 1694.55 564.719 z"/>
<path transform="translate(0,0)" fill="rgb(242,106,79)" d="M 1840.89 665.977 C 1846.99 663.425 1847.14 660.159 1851.02 655.555 C 1855.67 650.032 1860.6 647.796 1867.28 645.673 L 1868.92 627.5 L 1871 626.184 C 1873.98 630.207 1873.95 638.892 1874.62 644.044 C 1886.16 641.963 1899.03 642.752 1910.62 644.066 C 1911.33 638.11 1908.82 620.251 1911.96 616.601 L 1922.25 616.132 C 1922.4 621.89 1922.69 626.545 1924.89 631.981 C 1931.08 623.096 1926.68 611.765 1931.5 603.073 L 1937.5 602.914 C 1939.74 605.724 1938.27 615.352 1938.09 619.312 C 1941.85 619.157 1949.45 617.873 1952.5 619.964 C 1954.97 625.667 1953.59 635.23 1953.57 641.5 L 1955 642.932 C 1955.61 642.907 1959.15 642.971 1959.5 642.748 C 1961.61 641.382 1960.65 639.067 1964.31 637.5 C 1967.69 637.661 1970.55 637.653 1973.43 639.604 C 1974.32 640.212 1974.27 641.487 1974.48 642.518 C 1978.37 644.251 1983.68 643.872 1987.9 644.052 C 1987.86 639.256 1987.45 628.758 1990.5 625.293 L 1992.5 626.165 C 1995.01 631.619 1992.39 638.496 1994.41 643.971 L 2027.4 646.487 C 2001.97 650.485 1976.8 657.556 1951.96 664.177 C 1924.86 671.399 1897.74 678.963 1871.5 688.907 C 1863.85 691.806 1856.13 694.285 1848.73 697.836 L 1840.89 665.977 z"/>
<path transform="translate(0,0)" fill="rgb(144,89,148)" d="M 2036.45 146.684 L 2047.04 146.797 L 2048 146.726 L 2048 291.04 L 2048 291.755 L 2048 411.888 L 2048 474.879 L 2048 561.299 L 1783.59 560.966 L 1697.53 561.097 C 1696.55 561.1 1696.67 560.909 1695.89 561.654 C 1694.99 562.521 1694.81 563.543 1694.55 564.719 C 1693.6 563.316 1690.27 510.375 1689.85 504.342 L 1671.03 495.626 L 1670.63 474.381 L 1668.54 447.474 L 1663.48 412.122 C 1659.54 413.136 1653.5 412.265 1649.33 412.222 L 1597.85 412.181 L 1594.16 369.056 L 1731.39 369.016 L 1729.72 357.025 C 1727.02 332.758 1735.6 310.601 1750.63 291.783 L 1751.37 291.229 C 1757.41 285.031 1763.31 278.864 1770.41 273.858 C 1802.99 250.909 1845.23 245.682 1883.5 252.484 C 1885.09 246.234 1886.97 240.731 1889.85 234.95 C 1896.04 224.196 1907.69 215.53 1919.56 212.307 C 1935.36 208.02 1949.08 211.242 1962.94 219.182 C 1965.05 202.099 1968.66 190.197 1978.76 176.039 L 1979.08 175.652 C 1994.41 157.928 2013.04 148.379 2036.45 146.684 z"/>
<path transform="translate(0,0)" fill="rgb(111,73,145)" d="M 2036.45 146.684 L 2047.04 146.797 L 2048 146.726 L 2048 291.04 L 2047.2 290.958 C 2023.7 292.54 1999.01 290.973 1975.37 290.983 L 1824.01 290.939 L 1778.54 290.816 C 1769.57 290.794 1760.28 290.273 1751.37 291.229 C 1757.41 285.031 1763.31 278.864 1770.41 273.858 C 1802.99 250.909 1845.23 245.682 1883.5 252.484 C 1885.09 246.234 1886.97 240.731 1889.85 234.95 C 1896.04 224.196 1907.69 215.53 1919.56 212.307 C 1935.36 208.02 1949.08 211.242 1962.94 219.182 C 1965.05 202.099 1968.66 190.197 1978.76 176.039 L 1979.08 175.652 C 1994.41 157.928 2013.04 148.379 2036.45 146.684 z"/>
<path transform="translate(0,0)" fill="rgb(180,103,140)" d="M 1763.64 412.142 L 2047.04 412.004 L 2048 411.888 L 2048 474.879 L 1848.98 474.189 L 1670.63 474.381 L 1668.54 447.474 L 1663.48 412.122 L 1763.64 412.142 z"/>
<path transform="translate(0,0)" fill="rgb(190,108,137)" d="M 1663.48 412.122 L 1763.64 412.142 C 1788.53 414.284 1933.11 414.53 1942.69 425.172 L 1942.96 425.5 C 1939.39 430.292 1927.14 431.034 1921.14 431.906 L 1668.54 447.474 L 1663.48 412.122 z"/>
<path transform="translate(0,0)" fill="rgb(242,148,121)" d="M 1848.98 474.189 L 2048 474.879 L 2048 561.299 L 1783.59 560.966 L 1697.53 561.097 C 1696.55 561.1 1696.67 560.909 1695.89 561.654 C 1694.99 562.521 1694.81 563.543 1694.55 564.719 C 1693.6 563.316 1690.27 510.375 1689.85 504.342 L 1671.03 495.626 L 1670.63 474.381 L 1848.98 474.189 z"/>
</svg>