<svg version="1.1" xmlns="http://www.w3.org/2000/svg" style="display: block;" viewBox="0 0 2048 2048" width="640" height="640">
<path transform="translate(0,0)" fill="rgb(155,155,122)" d="M 1040.6 342.964 C 1060.24 343.184 1080.56 342.367 1099.66 347.428 C 1096.13 350.29 1096.88 351.8 1096.87 355.17 L 1096.83 445.5 C 1096.84 451.207 1100.4 466.267 1093.88 468.604 L 977.476 468.548 L 976.227 368.5 C 976.055 363.225 977.943 349.03 975.773 344.928 L 959.783 344.871 C 984.903 340.541 1015.14 342.952 1040.6 342.964 z"/>
<path transform="translate(0,0)" fill="rgb(121,125,98)" d="M 1024.94 1720.72 L 937.481 1721.44 C 916.719 1721.51 871.637 1730.38 871.075 1702.5 L 870.945 1659.02 C 871.013 1615.86 878.141 1621.68 914.171 1621.66 L 975.193 1621.71 L 1035.37 1621.7 L 1037.84 1622.5 C 1033.57 1663.05 1038.14 1682.77 1039.91 1719.76 C 1034.96 1719.87 1029.79 1719.65 1024.94 1720.72 z"/>
<path transform="translate(0,0)" fill="rgb(121,125,98)" d="M 959.783 344.871 L 909.628 345.15 C 898.054 345.113 877.589 347.432 871.996 333.643 C 869.828 328.297 870.014 259.178 872.523 252.761 C 882.97 243.667 888.164 244.012 901.445 243.995 L 1039.47 244.006 L 1040.15 313.808 C 1040.16 323.035 1041.27 333.885 1040.12 342.934 C 1015.14 342.952 984.903 340.541 959.783 344.871 z"/>
<path transform="translate(0,0)" fill="rgb(155,155,122)" d="M 651.776 1031.74 L 652.897 1030.92 C 657.715 1026.42 658.233 1023.39 658.393 1017 L 658.525 899.446 C 658.525 872.437 652.782 841.194 674.057 820.28 C 704.495 790.36 750.484 806.862 768.785 841 L 769.651 842.581 C 777.135 856.501 773.598 885.585 773.614 901.057 L 773.663 1045.76 C 773.634 1089.51 775.513 1125.05 729.065 1148.87 C 703.054 1162.22 675.586 1160.67 647.337 1161.03 L 647.105 1202.37 L 647.439 1054.77 C 647.624 1049.19 647.799 1035.48 651.776 1031.74 z"/>
<path transform="translate(0,0)" fill="rgb(232,172,101)" d="M 976.336 468.839 L 1093.88 468.549 L 1097.17 468.831 L 1097.02 553.206 C 1097.04 583.492 1096.89 613.21 1102.56 643.101 C 1120.57 738.044 1188.65 804.997 1272.48 846.332 C 1287.05 853.517 1302.02 860.582 1317.9 864.364 L 1317.99 912.291 L 1318.01 918.5 C 1315.36 942.466 1304.59 907.282 1300.72 903.149 C 1294.45 896.459 1241.73 887.844 1231.29 887.597 C 1087.88 850.013 987.628 736.653 976.565 586.81 C 975.527 572.753 976.123 558.332 976.111 544.218 L 976.336 468.839 z"/>
<path transform="translate(0,0)" fill="rgb(155,155,122)" d="M 426.202 1066.78 C 393.091 1066.69 358.793 1070.35 330.29 1050.25 C 287.761 1020.25 292.769 982.193 292.764 937.074 L 292.901 753.923 C 292.92 741.99 291.768 728.585 293.43 716.8 C 298.081 683.805 326.722 653.195 360.074 648.842 L 361.5 648.665 C 369.367 647.538 376.875 647.673 384.803 647.872 C 386.418 655.787 418.466 667.628 426.348 692.611 L 427.98 698.571 C 431.067 710.272 429.786 724.311 429.827 736.429 L 429.801 955.034 C 429.519 964.394 426.942 973.302 426.693 982.707 L 426.505 1039.26 C 426.497 1048.28 427.042 1057.82 426.202 1066.78 z"/>
<path transform="translate(0,0)" fill="rgb(208,140,96)" d="M 646.196 1336.14 L 817.689 1336.76 C 855.061 1336.87 852.873 1342.13 852.889 1374.75 L 852.686 1426.51 C 852.058 1443.68 841.531 1446.53 826.412 1445.86 C 818.884 1443.67 808.976 1444.74 801.089 1444.7 L 364.381 1444.74 C 337.156 1444.75 308.875 1443.28 281.77 1445.32 C 277.271 1445.72 272.225 1445.3 267.635 1445.31 C 240.534 1445.35 239.031 1449.46 238.926 1421.43 L 238.153 1353.5 C 238.538 1335.14 259.08 1336.84 271.759 1336.79 L 427.15 1336.78 L 646.196 1336.14 z"/>
<path transform="translate(0,0)" fill="rgb(181,132,99)" d="M 1234.19 1619.79 L 1656.74 1620.19 L 1715.92 1621.66 C 1749.6 1621.7 1761 1617.34 1760.81 1658.45 L 1760.31 1700.9 C 1759.73 1712.08 1754.69 1720.61 1743.19 1721.12 L 1024.45 1721.27 C 1029.79 1719.65 1034.96 1719.87 1039.91 1719.76 C 1038.14 1682.77 1033.57 1663.05 1037.84 1622.5 L 1035.37 1621.71 L 1035.43 1621.62 C 1044.9 1619.43 1054.72 1619.86 1064.36 1619.84 L 1234.19 1619.79 z"/>
<path transform="translate(0,0)" fill="rgb(217,174,148)" d="M 281.77 1445.99 C 308.875 1443.28 337.156 1444.75 364.381 1444.74 L 801.089 1444.7 C 808.976 1444.74 818.884 1443.67 826.412 1445.83 L 810.651 1445.88 L 749.137 1717.75 C 747.716 1723.37 746.966 1729.42 743.892 1734.41 L 344.66 1734.01 L 281.77 1445.99 z"/>
<path transform="translate(0,0)" fill="rgb(181,132,99)" d="M 1039.87 244.016 L 1669.3 244.041 C 1694.48 244.057 1720.95 242.369 1745.97 244.658 C 1761.12 246.043 1760.89 261.152 1760.89 271.96 L 1760.7 312 C 1760.32 346.501 1751.5 345.182 1720.32 345.192 L 1667.24 345.197 L 1658.72 346.088 C 1656.98 360.427 1658.1 376.248 1658.05 390.745 L 1657.93 468.799 C 1656.39 469.18 1653.55 468.742 1651.72 468.733 L 1097.17 468.639 L 1093.88 468.604 C 1100.4 466.267 1096.84 451.207 1096.83 445.5 L 1096.87 355.17 C 1096.88 351.8 1096.13 350.29 1098.16 347.58 C 1080.56 342.367 1060.24 343.184 1040.6 342.965 C 1041.27 333.885 1040.16 323.035 1040.15 313.808 L 1039.87 244.016 z"/>
<path transform="translate(0,0)" fill="rgb(186,165,135)" d="M 1098.16 347.58 L 1667.24 345.141 L 1658.72 346.088 C 1656.98 360.427 1658.1 376.248 1658.05 390.745 L 1657.93 468.799 C 1656.39 469.18 1653.55 468.742 1651.72 468.733 L 1097.17 468.639 L 1093.88 468.604 C 1100.4 466.267 1096.84 451.207 1096.83 445.5 L 1096.87 355.17 C 1096.88 351.8 1096.13 350.29 1098.16 347.58 z"/>
<path transform="translate(0,0)" fill="rgb(241,220,167)" d="M 1231.29 887.597 C 1241.73 887.844 1294.45 896.459 1300.72 903.149 C 1304.59 907.282 1315.36 942.466 1318.01 918.5 L 1318.15 912.291 C 1318.88 908.254 1318.83 903.967 1319.04 899.866 L 1374.5 893.942 C 1392.91 924.147 1391.78 966.003 1391.98 1000.31 C 1392.11 1021.31 1391.9 1014.55 1411.98 1022.14 C 1548.85 1073.94 1652.56 1203.81 1657.6 1352.65 L 1657.74 1384.84 C 1657.69 1389.92 1656.98 1395.76 1657.93 1400.73 L 1312.93 1249.26 C 1305.24 1251.13 1297.52 1255.71 1290.33 1259.04 L 1181.37 1306.34 C 1153.23 1317.81 1124.81 1328.76 1097.51 1342.19 L 976.749 1398.67 C 976.34 1375.34 975.316 1351.81 976.973 1328.52 C 985.177 1213.23 1060.77 1104.46 1160.5 1048.88 C 1182.16 1036.8 1204.89 1028.47 1227.32 1018.22 C 1231.29 975.426 1224.33 931.354 1231.09 888.682 L 1231.29 887.597 z"/>
<path transform="translate(0,0)" fill="rgb(255,203,105)" d="M 1097.06 468.831 L 1651.72 468.733 C 1653.55 468.742 1656.39 469.18 1658 468.539 L 1658.05 543.142 C 1658.07 575.903 1657.61 608.434 1650.54 640.614 C 1626.99 747.859 1541.3 846.191 1436.66 879.435 C 1416.3 885.903 1395.4 889.738 1374.5 893.942 L 1319.04 899.866 C 1318.83 903.967 1318.88 908.254 1318.15 912.291 L 1317.9 864.364 C 1302.02 860.582 1287.05 853.517 1272.48 846.332 C 1188.65 804.997 1120.57 738.044 1102.56 643.101 C 1096.89 613.21 1097.04 583.492 1097.02 553.206 L 1097.06 468.831 z"/>
<path transform="translate(0,0)" fill="rgb(121,125,98)" d="M 384.803 647.872 L 383.952 591.787 C 383.981 581.022 383.532 569.67 385.069 559.008 C 408.191 398.551 652.444 400.036 652.866 579.534 L 652.585 793.949 C 652.476 803.269 649.797 812.889 649.511 822.473 L 649.096 942.643 C 649.09 954.925 645.67 1025.84 651.197 1031.74 C 647.799 1035.48 647.624 1049.19 647.439 1054.77 L 647.102 1202.37 L 646.505 1335.96 L 427.15 1336.78 L 426.369 1066.78 C 427.042 1057.82 426.497 1048.28 426.505 1039.26 L 426.693 982.707 C 426.942 973.302 429.519 964.394 429.801 955.034 L 429.827 736.429 C 429.786 724.311 431.067 710.272 427.98 698.571 L 426.348 692.611 C 418.466 667.628 386.418 655.787 384.803 647.872 z"/>
<path transform="translate(0,0)" fill="rgb(232,172,101)" d="M 1097.51 1342.19 C 1124.81 1328.76 1153.23 1317.81 1181.37 1306.34 L 1290.33 1259.04 C 1297.52 1255.71 1305.24 1251.13 1312.93 1249.26 L 1657.26 1400.73 L 1657.45 1620.6 L 1234.19 1619.79 L 1064.36 1619.84 C 1054.72 1619.86 1044.9 1619.43 1035.43 1621.62 L 1035.37 1621.71 L 975.193 1621.76 L 976.474 1398.67 L 1097.51 1342.19 z"/>
<path transform="translate(0,0)" fill="rgb(208,140,96)" d="M 976.474 1398.67 L 1097.51 1342.19 L 1097.07 1546.36 C 1097.08 1557.04 1095.33 1615 1099.09 1619.6 L 1234.19 1619.79 L 1064.36 1619.84 C 1054.72 1619.86 1044.9 1619.43 1035.43 1621.62 L 1035.37 1621.71 L 975.193 1621.76 L 976.474 1398.67 z"/>
</svg>