<?xml version="1.0" encoding="utf-8" ?>
<svg xmlns="http://www.w3.org/2000/svg" xmlns:xlink="http://www.w3.org/1999/xlink" width="1613" height="807">
	<defs>
		<linearGradient id="gradient_0" gradientUnits="userSpaceOnUse" x1="1024.8579" y1="-5.3018241" x2="1021.6785" y2="607.65924">
			<stop offset="0" stop-color="#2B2D42"/>
			<stop offset="1" stop-color="#8D99AE"/>
		</linearGradient>
	</defs>
	<path fill="url(#gradient_0)" transform="scale(0.787598 0.788086)" d="M-0 31.424L0 -0L2048 0L2048 32.9365L2048 307.936L2048 514.544L2048 543.743L2048 569.647L2048 600.248L2048 652.266L2048 683.052L2048 689.508L2048 741.809L2048 860.141L2048 1024L1570.88 1024L1226.67 1024L884.043 1024L331.632 1024L59.5835 1024L-0 1024L0 926.096L0 845.663L-0 791.494L0 716.324L0 567.513L0 536.672L0 287.494L-0 31.424Z"/>
	<path fill="white" transform="scale(0.787598 0.788086)" d="M1367.16 78.5L1368.09 78.75C1369.47 81.0865 1373.53 83.4717 1374.1 85.5C1371.34 86.8405 1370.06 88.1915 1368.32 90.6953L1367.77 91.5C1365.92 89.291 1361.9 86.8895 1360.97 84.5C1363.38 82.9798 1364.88 81.5023 1366.6 79.2339L1367.16 78.5Z"/>
	<path fill="white" transform="scale(0.787598 0.788086)" d="M77.1074 61.5L77.4667 61.6948C78.9876 65.1056 80.9969 67.9209 84.074 70.0997L84.5 70.3902C80.4128 72.4127 79.7735 73.475 77.8515 77.5C77.0763 77.2735 77.1556 77.0578 76.753 76.3603C76.2446 75.4793 75.1205 72.5025 74.5 72.0188C73.2183 71.0198 71.322 71.4818 69.9298 70C71.2243 68.821 73.2768 68.4642 74.4078 67.4074C75.3272 66.5485 76.5049 62.8185 77.1074 61.5Z"/>
	<path fill="white" transform="scale(0.787598 0.788086)" d="M707.346 99.5L708.272 99.75C709.625 103.125 711.45 105.412 714.364 107.537L715.008 108C711.768 111.183 710.751 111.069 708.646 115.5L707.681 115.494C706.477 112.449 703.684 109.885 701.15 107.895L700.636 107.5C704.28 105.406 705.618 103.827 707.185 99.9114L707.346 99.5Z"/>
	<path fill="white" transform="scale(0.787598 0.788086)" d="M1969.12 67.5L1969.48 67.6915C1971.81 73.1006 1973.14 74.7997 1978.5 77.3437L1976.95 77.9627C1972.43 79.811 1971.67 81.1118 1969.83 85.5L1969.34 85.336L1968.79 84.0938C1967.09 80.5557 1965.47 79.3896 1961.9 78.1316C1960.68 77.703 1961.17 78.1084 1960.5 76.9714L1962.87 75.9256C1967.07 73.9368 1967.69 71.632 1969.12 67.5Z"/>
	<path fill="white" transform="scale(0.787598 0.788086)" d="M85.3206 426.5L86.7722 430.438C88.3728 433.88 91.7292 434.309 94.9822 435.384L94.5 436.092C93.2287 436.315 91.6473 436.522 90.5 437.132C87.0655 438.957 86.5502 443.281 85.5 446.685C84.3134 445.052 84.4406 443.311 83.8087 441.5C82.6617 438.212 77.8115 436.922 74.8136 435.5L82.1451 432.781C83.808 431.847 84.707 428.239 85.3206 426.5Z"/>
	<path fill="white" transform="scale(0.787598 0.788086)" d="M98.088 294.477C102.071 293.502 103.907 293.539 106.757 290.5L108.5 282.766C110.791 285.06 109.714 290.091 112.029 291.908C113.488 293.054 116.228 293.973 117.956 294.823L118.634 295.475L114.575 296.636C110.04 298.193 110.812 302.372 109 306.195C107.49 304.51 107.803 302.016 106.893 300.011C105.361 296.633 101.36 295.81 98.088 294.477Z"/>
	<path fill="white" transform="scale(0.787598 0.788086)" d="M1615.32 446.5C1616.02 447.043 1617.05 449.831 1617.67 450.777C1619.3 453.278 1622.61 455.605 1625.37 456.686L1626.24 457C1625.44 458.159 1624.19 458.081 1622.99 458.676C1618.88 460.715 1616.97 463.839 1615.57 468.05L1615.43 468.5C1614.42 464.423 1612.91 461.15 1608.89 459.259C1606.92 458.329 1605.08 458.179 1603.5 456.521L1604.07 456.394L1605 456.147C1606.15 455.86 1607.33 455.616 1608.42 455.118C1612.64 453.18 1613.78 450.496 1615.32 446.5Z"/>
	<path fill="white" transform="scale(0.787598 0.788086)" d="M1713.3 189.5L1714.32 189.786C1715.27 194.908 1717.21 199.044 1722.34 200.913C1724.41 201.669 1726.08 201.613 1727.31 203.5C1725.29 203.947 1722.97 204.373 1721.1 205.269C1717.21 207.132 1716.32 209.812 1714.76 213.5L1713.53 214.798C1712.54 212.851 1711.15 208.889 1709.74 207.409C1707.98 205.556 1704.08 203.805 1701.78 202.5C1703.79 201.747 1705.77 200.93 1707.61 199.82C1711.68 197.362 1712.19 193.828 1713.3 189.5Z"/>
	<path fill="white" transform="scale(0.787598 0.788086)" d="M1123.47 201.484C1126.13 208.786 1126.72 215.981 1130.31 223.144C1135.95 227.27 1144.57 228.679 1151.27 230.115C1146.91 233.224 1137.13 234.833 1131.66 237.096C1127.4 243.828 1125.44 252.199 1123.18 259.779C1120.33 252.332 1119.44 245.167 1115.76 237.751C1108.81 234.632 1102.42 232.474 1094.87 231.341C1102.38 229.201 1109.71 227.022 1116.56 223.17C1120.06 216.571 1121.71 208.711 1123.47 201.484Z"/>
	<defs>
		<linearGradient id="gradient_1" gradientUnits="userSpaceOnUse" x1="830.86676" y1="537.3371" x2="829.01672" y2="565.43304">
			<stop offset="0" stop-color="white"/>
			<stop offset="1" stop-color="#E6E6E6"/>
		</linearGradient>
	</defs>
	<path fill="url(#gradient_1)" transform="scale(0.787598 0.788086)" d="M748.039 528.692C755.549 528.608 764.079 531.488 771.373 533.266L810.458 542.889L905.14 566.052L929.765 572.139L927 573.808L926.225 574.282C922.087 576.619 917.416 575.241 913.001 576.256C909.52 577.057 905.085 576.54 901.49 576.5C895.869 572.836 882.788 577.695 876.152 574.95C874.024 574.07 869.509 574.399 867.39 575.222L866.203 575.759L865.236 576.111L864.632 576.336L839.022 566.265L781.1 543.03C770.091 538.549 758.492 534.333 748.039 528.692Z"/>
	<path fill="#E4E4E4" transform="scale(0.787598 0.788086)" d="M839.022 566.265C847.889 563.709 852.196 565.611 860.779 567.4C869.64 569.247 882.842 571.165 891.744 569.547C893.341 569.257 896.719 569.57 898 568.972C899.224 568.4 900.283 567.086 901.513 566.545C902.387 566.161 904.044 566.429 905.14 566.052L929.765 572.139L927 573.808L926.225 574.282C922.087 576.619 917.416 575.241 913.001 576.256C909.52 577.057 905.085 576.54 901.49 576.5C895.869 572.836 882.788 577.695 876.152 574.95C874.024 574.07 869.509 574.399 867.39 575.222L866.203 575.759L865.236 576.111L864.632 576.336L839.022 566.265Z"/>
	<path fill="#ADADAD" transform="scale(0.787598 0.788086)" d="M2048 514.544L2048 543.743C2036.76 546.27 2024.96 547.353 2013.57 549.178L1953.91 559.43L1856.47 580.839L1833.49 586.342C1829.11 587.314 1823.75 587.884 1819.78 590.065L1818.57 590.389C1813.03 588.129 1806.37 586.908 1800.56 585.344L1773.91 577.891L2048 514.544Z"/>
	<path fill="#EDF2F4" transform="scale(0.787598 0.788086)" d="M249.76 317.912C233.905 295.085 225.024 269.734 230.05 241.611C234.352 217.537 247.106 196.078 267.5 182.207C273.966 177.81 281.972 173.613 289.556 171.599C273.341 191.366 264.673 210.633 267.15 236.723C269.124 257.509 281.362 278.511 297.477 291.539C314.921 305.642 338.617 312.285 360.847 309.892C386.963 307.08 408.649 293.698 425.555 274.061C419.403 292.331 411.032 306.774 399.189 321.933C399.003 321.888 393.701 326.632 392.956 327.302C375.82 342.714 353.955 352.736 330.744 353.839C306.393 354.998 282.75 347.102 263.95 331.623C258.822 327.401 254.658 322.344 249.76 317.912Z"/>
	<path fill="#ADADAD" transform="scale(0.787598 0.788086)" d="M1305.64 468.119C1302.93 466.799 1300.13 465.667 1297.95 463.539L1333.72 475.36C1339.73 477.169 1346.15 477.997 1351.93 480.449L1611.21 538.933L1729.23 566.361C1743.83 570.038 1759.77 572.906 1773.91 577.891L1800.56 585.344C1806.37 586.908 1813.03 588.129 1818.57 590.389L1819.78 590.065C1823.75 587.884 1829.11 587.314 1833.49 586.342L1856.47 580.839L1953.91 559.43L2013.57 549.178C2024.96 547.353 2036.76 546.27 2048 543.743L2048 569.647L2048 600.248L2048 652.266L2048 683.052L1951.87 699.622C1951.58 699.171 1951.44 698.576 1951 698.27C1949.12 696.968 1894.25 695.274 1885.78 694.74C1847.25 692.316 1809.07 689.748 1771 682.935C1711.79 672.338 1654.29 652.3 1599.98 626.63C1539.03 597.816 1481.32 562.243 1422.51 529.41L1346.3 489.957C1332.68 483.059 1318.22 476.758 1305.64 468.119Z"/>
	<defs>
		<linearGradient id="gradient_2" gradientUnits="userSpaceOnUse" x1="1691.2041" y1="578.43066" x2="1696.7544" y2="551.76886">
			<stop offset="0" stop-color="#C9C9C9"/>
			<stop offset="1" stop-color="white"/>
		</linearGradient>
	</defs>
	<path fill="url(#gradient_2)" transform="scale(0.787598 0.788086)" d="M1351.93 480.449L1611.21 538.933L1729.23 566.361C1743.83 570.038 1759.77 572.906 1773.91 577.891L1800.56 585.344C1806.37 586.908 1813.03 588.129 1818.57 590.389L1819.78 590.065L1860.68 601.337C1865.14 602.555 1872.52 605.659 1876.96 605.633L1968.54 631.065L2039.32 650.465C2035.19 651.141 2029.55 649.076 2025.57 647.952L2005 642.63L1938.25 625.909L1856.46 606.238C1842.58 602.901 1828.15 600.437 1814.64 595.807L1355.3 482.583C1353.49 481.995 1352.8 482.158 1351.93 480.449Z"/>
	<path fill="#9D9FAA" transform="scale(0.787598 0.788086)" d="M2048 543.743L2048 569.647L2048 600.248L2048 652.266L2039.32 650.465L1968.54 631.065L1876.96 605.633C1872.52 605.659 1865.14 602.555 1860.68 601.337L1819.78 590.065C1823.75 587.884 1829.11 587.314 1833.49 586.342L1856.47 580.839L1953.91 559.43L2013.57 549.178C2024.96 547.353 2036.76 546.27 2048 543.743Z"/>
	<path fill="#737579" transform="scale(0.787598 0.788086)" d="M1968.54 631.065C1993.16 617.283 2020.87 607.661 2048 600.248L2048 652.266L2039.32 650.465L1968.54 631.065Z"/>
	<path fill="#343537" transform="scale(0.787598 0.788086)" d="M1282.23 474.194C1282.08 468.937 1282.24 464.211 1283.1 459L1284.99 458.817L1303.75 469.992L1305.64 468.119C1318.22 476.758 1332.68 483.059 1346.3 489.957L1422.51 529.41C1481.32 562.243 1539.03 597.816 1599.98 626.63C1654.29 652.3 1711.79 672.338 1771 682.935C1809.07 689.748 1847.25 692.316 1885.78 694.74C1894.25 695.274 1949.12 696.968 1951 698.27C1951.44 698.576 1951.58 699.171 1951.87 699.622L1885.93 711.604L1749.96 736.396L1527.27 775.5L1454 788.156C1439.51 790.568 1423.86 792.026 1409.74 796.04L1362.26 804.267C1354.34 804.327 1348.48 801.733 1341.18 799.245L1317.08 791.353L1256.69 774.383C1197.59 760.425 1139.38 754.746 1078.78 753.836L990.5 753.554C993.179 751.521 999.096 751.796 1002.54 751.335L1034.62 746.503C1066.77 741.027 1098.15 732.643 1129 722.142C1172.78 707.241 1213.71 687.558 1245.88 653.627L1147.62 655.251C1135.5 655.052 1121.98 655.747 1110.16 653.055L973.509 615.68C961.788 611.881 948.763 608.811 937.76 603.322C926.179 600.7 914.038 595.091 902.833 590.966L886.931 584.676C880.692 584.194 870.654 578.679 864.632 576.336L865.236 576.111L866.203 575.759L867.39 575.222C869.509 574.399 874.024 574.07 876.152 574.95C882.788 577.695 895.869 572.836 901.49 576.5C905.085 576.54 909.52 577.057 913.001 576.256C917.416 575.241 922.087 576.619 926.225 574.282L927 573.808L929.765 572.139L930.557 572.015C946.559 565.419 964.834 561.132 981.498 556.119C1052.76 534.679 1123.62 515.366 1196.72 501.166L1231.45 495.17C1238.54 494.1 1245.84 492.652 1253.02 493.074C1261.52 488.724 1269.73 482.366 1277.74 477.115L1282.23 474.194Z"/>
	<path fill="#9D9FAA" transform="scale(0.787598 0.788086)" d="M1274.15 579.688C1273.43 595.843 1270.71 610.172 1264.69 625.232L1164.6 614.578C1172.8 613.989 1181.3 611.171 1189.22 609.043C1218.41 601.202 1245.75 589.718 1274.15 579.688Z"/>
	<path fill="#ADADAD" transform="scale(0.787598 0.788086)" d="M930.557 572.015C946.559 565.419 964.834 561.132 981.498 556.119C1052.76 534.679 1123.62 515.366 1196.72 501.166L1231.45 495.17C1238.54 494.1 1245.84 492.652 1253.02 493.074C1181.83 538.159 1103.65 569.878 1022.56 591.971C1036.01 595.712 1051.86 598.91 1065.75 599.872L1130.97 609.747C1141.41 611.216 1154.7 611.424 1164.6 614.578L1264.69 625.232C1259.43 635.662 1254.04 645.165 1245.88 653.627L1147.62 655.251C1135.5 655.052 1121.98 655.747 1110.16 653.055L973.509 615.68C961.788 611.881 948.763 608.811 937.76 603.322C926.179 600.7 914.038 595.091 902.833 590.966L886.931 584.676C880.692 584.194 870.654 578.679 864.632 576.336L865.236 576.111L866.203 575.759L867.39 575.222C869.509 574.399 874.024 574.07 876.152 574.95C882.788 577.695 895.869 572.836 901.49 576.5C905.085 576.54 909.52 577.057 913.001 576.256C917.416 575.241 922.087 576.619 926.225 574.282L927 573.808L929.765 572.139L930.557 572.015Z"/>
	<path fill="#DFDFDF" transform="scale(0.787598 0.788086)" d="M902.833 590.966L926.163 589.418C926.812 590.767 927.278 592.039 928.538 592.933C925.881 595.74 925.353 595.634 921.495 595.75L937.418 601.769L937.76 603.322C926.179 600.7 914.038 595.091 902.833 590.966Z"/>
	<path fill="#DFDFDF" transform="scale(0.787598 0.788086)" d="M929.765 572.139L930.557 572.015L958.957 579.358C957.095 580.709 908.807 583.446 902.126 583.733C901.078 583.778 897.273 583.559 896.5 583.963C894.631 584.94 895.948 585.729 892.993 585.156L891.76 584.785C890.128 584.282 888.601 584.499 886.931 584.676C880.692 584.194 870.654 578.679 864.632 576.336L865.236 576.111L866.203 575.759L867.39 575.222C869.509 574.399 874.024 574.07 876.152 574.95C882.788 577.695 895.869 572.836 901.49 576.5C905.085 576.54 909.52 577.057 913.001 576.256C917.416 575.241 922.087 576.619 926.225 574.282L927 573.808L929.765 572.139Z"/>
	<defs>
		<linearGradient id="gradient_3" gradientUnits="userSpaceOnUse" x1="738.98883" y1="1007.6614" x2="523.39532" y2="362.96964">
			<stop offset="0" stop-color="#666778"/>
			<stop offset="1" stop-color="#919191"/>
		</linearGradient>
	</defs>
	<path fill="url(#gradient_3)" transform="scale(0.787598 0.788086)" d="M559.714 590.422L709.009 537.508L731.377 529.291C734.374 528.154 737.816 526.257 741.018 526.934L742.757 527.337L748.039 528.692C758.492 534.333 770.091 538.549 781.1 543.03L839.022 566.265L864.632 576.336C870.654 578.679 880.692 584.194 886.931 584.676L902.833 590.966C914.038 595.091 926.179 600.7 937.76 603.322C948.763 608.811 961.788 611.881 973.509 615.68L1110.16 653.055C1121.98 655.747 1135.5 655.052 1147.62 655.251L1245.88 653.627C1213.71 687.558 1172.78 707.241 1129 722.142C1098.15 732.643 1066.77 741.027 1034.62 746.503L1002.54 751.335C999.096 751.796 993.179 751.521 990.5 753.554L1078.78 753.836C1139.38 754.746 1197.59 760.425 1256.69 774.383L1317.08 791.353L1341.18 799.245C1348.48 801.733 1354.34 804.327 1362.26 804.267L1409.74 796.04C1423.86 792.026 1439.51 790.568 1454 788.156L1527.27 775.5L1749.96 736.396L1885.93 711.604L1951.87 699.622L2048 683.052L2048 689.508L2048 741.809L2048 860.141L2048 1024L1570.88 1024L1226.67 1024L884.043 1024L331.632 1024L59.5835 1024L-0 1024L0 926.096L0 845.663L-0 791.494L0 716.324L0 567.513L0 536.672L516.695 606.291L559.714 590.422Z"/>
	<path fill="#343537" transform="scale(0.787598 0.788086)" d="M559.714 590.422L709.009 537.508L731.377 529.291C734.374 528.154 737.816 526.257 741.018 526.934L742.757 527.337L748.039 528.692C758.492 534.333 770.091 538.549 781.1 543.03L839.022 566.265L864.632 576.336C870.654 578.679 880.692 584.194 886.931 584.676L902.833 590.966C914.038 595.091 926.179 600.7 937.76 603.322C948.763 608.811 961.788 611.881 973.509 615.68L1110.16 653.055C1102.58 656.033 1086.52 653.073 1078 652.674L956.32 644.949C928.048 643.256 898.913 643.355 870.835 640.225L688.847 626.613L571.156 613.228L516.695 606.291L559.714 590.422Z"/>
	<path fill="#737579" transform="scale(0.787598 0.788086)" d="M0 567.513L83.8833 582.317C170.775 601.237 256.544 632.18 336.062 671.844C351.093 679.342 366.781 686.728 381.281 695.147L151.654 748.631L146.239 749.527L-0 791.494L0 716.324L0 567.513Z"/>
	<path fill="#343537" transform="scale(0.787598 0.788086)" d="M723.534 652.993C759.366 650.941 794.721 648.51 830.669 649.434C879.012 650.677 927.146 657.527 974.757 665.5L974.326 666.5C955.557 663.135 934.642 662.474 915.517 661.864C840.023 659.457 763.592 666.039 689.962 683.066C660.098 689.972 625.398 699.05 599.973 716.708C594.391 720.584 587.619 726.004 586.409 732.974C585.809 736.432 586.556 740.092 588.639 742.958C597.261 754.822 617.653 761.279 630.983 765.807C688.202 785.243 749.518 794.195 809.29 801.994L1063.23 827.602L864.598 823.991L850.378 824.577C856.241 825.291 862.054 824.781 867.934 824.968C869.772 825.026 871.256 826.016 873.385 826.041C875.66 826.068 884.966 825.468 886 826.51C882.842 826.817 874.751 825.617 872.5 826.51C869.8 827.581 868.263 827.755 865 827.755C861.642 827.755 853.366 826.344 850.5 827.51C846.869 828.987 843.452 828.348 839.343 828.778L805.5 831.553C786.957 832.513 768.428 832.699 749.948 834.87C744.716 835.485 738.49 835.548 733.448 836.905L868.773 846.674C847.776 850.858 825.794 852.16 804.565 854.994L689.944 872.623L284.109 959.859L150.65 996.522L59.5835 1024L-0 1024L0 926.096L0 845.663L-0 791.494L146.239 749.527L151.654 748.631L381.281 695.147L662.934 655.898C666.112 654.23 670.044 655.091 673.5 654.51C689.65 651.795 706.971 651.842 723.5 650.949L723.966 651.913L723.534 652.993Z"/>
	<path fill="#ADADAD" transform="scale(0.787598 0.788086)" d="M662.934 655.898C666.112 654.23 670.044 655.091 673.5 654.51C689.65 651.795 706.971 651.842 723.5 650.949L723.966 651.913L723.534 652.993L608.591 669.954C595.762 671.532 583.09 674.34 570.438 676.941C542.294 682.727 514.77 689.879 488.254 701.147C461.501 712.516 436.173 727.401 410.385 740.77C382.837 755.052 354.408 767.871 325.494 779.121C221.948 819.41 109.96 834.75 0 845.663L-0 791.494L146.239 749.527L151.654 748.631L381.281 695.147L662.934 655.898Z"/>
	<path fill="white" transform="scale(0.787598 0.788086)" d="M662.934 655.898L665 656.595C653.249 657.072 641.126 659.087 629.395 660.448L558 669.79L273.671 722.207L206.827 736.766L168.037 745.851C163.646 746.852 157.38 749.128 153 749.039C152.375 749.026 152.155 748.871 151.654 748.631L381.281 695.147L662.934 655.898Z"/>
	<path fill="#ADADAD" transform="scale(0.787598 0.788086)" d="M1951.87 699.622L2048 683.052L2048 689.508L2048 741.809L2048 860.141L2048 1024L1570.88 1024L1226.67 1024L884.043 1024L331.632 1024C337.458 1021.38 344.251 1020.13 350.405 1018.45L385.701 1008.91L502 978.688L1170.16 836.722L1308.28 812.925L1362.26 804.267L1409.74 796.04C1423.86 792.026 1439.51 790.568 1454 788.156L1527.27 775.5L1749.96 736.396L1885.93 711.604L1951.87 699.622Z"/>
	<path fill="#343537" transform="scale(0.787598 0.788086)" d="M2048 741.809L2048 860.141L2048 1024L1570.88 1024L1226.67 1024L1285.21 1013.3L1406.5 988.997C1525.25 962.361 1641.44 928.352 1755.28 885.282C1856.56 846.961 1957.18 801.141 2048 741.809Z"/>
	<defs>
		<linearGradient id="gradient_4" gradientUnits="userSpaceOnUse" x1="1064.2375" y1="1254.0385" x2="1317.4861" y2="452.5061">
			<stop offset="0" stop-color="#B1B1CA"/>
			<stop offset="1" stop-color="#D5D5D5"/>
		</linearGradient>
	</defs>
	<path fill="url(#gradient_4)" transform="scale(0.787598 0.788086)" d="M1951.87 699.622L2048 683.052L2048 689.508L1759.86 763.654L1578 812.042L1460.71 844.227L1439.26 850.009C1437.58 850.438 1433.9 851.847 1432.3 851.703C1413.8 859.231 1392.89 863.47 1373.63 868.983L1272 899.087L978.374 992.045L924.461 1009.59C911.758 1013.62 895.302 1016.9 884.043 1024L331.632 1024C337.458 1021.38 344.251 1020.13 350.405 1018.45L385.701 1008.91L502 978.688L1170.16 836.722L1308.28 812.925L1362.26 804.267L1409.74 796.04C1423.86 792.026 1439.51 790.568 1454 788.156L1527.27 775.5L1749.96 736.396L1885.93 711.604L1951.87 699.622Z"/>
</svg>
